<ttFont>
    <TTGlyph name=".notdef" xMin="47" yMin="23" xMax="465" yMax="458">
      <contour>
        <pt x="47" y="458" on="1"/>
        <pt x="465" y="458" on="1"/>
        <pt x="465" y="23" on="1"/>
        <pt x="47" y="23" on="1"/>
      </contour>
      <contour>
        <pt x="376" y="122" on="1"/>
        <pt x="376" y="361" on="1"/>
        <pt x="137" y="361" on="1"/>
        <pt x="137" y="122" on="1"/>
      </contour>
    </TTGlyph>
    <TTGlyph name="A" xMin="-20" yMin="0" xMax="726" yMax="682">
      <contour>
        <pt x="-20" y="32" on="1"/>
        <pt x="-2" y="43" on="0"/>
        <pt x="41" y="63" on="0"/>
        <pt x="63" y="72" on="1"/>
        <pt x="284" y="615" on="1"/>
        <pt x="272" y="646" on="1"/>
        <pt x="403" y="682" on="1"/>
        <pt x="655" y="61" on="1"/>
        <pt x="726" y="51" on="1"/>
        <pt x="725" y="0" on="1"/>
        <pt x="410" y="0" on="1"/>
        <pt x="404" y="32" on="1"/>
        <pt x="423" y="44" on="0"/>
        <pt x="468" y="64" on="0"/>
        <pt x="491" y="74" on="1"/>
        <pt x="449" y="182" on="1"/>
        <pt x="211" y="182" on="1"/>
        <pt x="167" y="64" on="1"/>
        <pt x="259" y="51" on="1"/>
        <pt x="258" y="0" on="1"/>
        <pt x="-14" y="0" on="1"/>
      </contour>
      <contour>
        <pt x="240" y="258" on="1"/>
        <pt x="420" y="258" on="1"/>
        <pt x="330" y="494" on="1"/>
      </contour>
    </TTGlyph>
    <TTGlyph name="AE" xMin="-20" yMin="0" xMax="881" yMax="658">
      <contour>
        <pt x="-20" y="34" on="1"/>
        <pt x="-1" y="47" on="0"/>
        <pt x="60" y="72" on="0"/>
        <pt x="75" y="79" on="1"/>
        <pt x="349" y="599" on="1"/>
        <pt x="283" y="607" on="1"/>
        <pt x="284" y="658" on="1"/>
        <pt x="873" y="658" on="1"/>
        <pt x="874" y="643" on="0"/>
        <pt x="873" y="598" on="0"/>
        <pt x="869" y="547" on="0"/>
        <pt x="862" y="492" on="0"/>
        <pt x="857" y="468" on="1"/>
        <pt x="773" y="468" on="1"/>
        <pt x="756" y="565" on="1"/>
        <pt x="572" y="575" on="1"/>
        <pt x="572" y="365" on="1"/>
        <pt x="792" y="382" on="1"/>
        <pt x="792" y="281" on="1"/>
        <pt x="572" y="290" on="1"/>
        <pt x="572" y="86" on="1"/>
        <pt x="764" y="97" on="1"/>
        <pt x="797" y="205" on="1"/>
        <pt x="881" y="199" on="1"/>
        <pt x="882" y="178" on="0"/>
        <pt x="880" y="126" on="0"/>
        <pt x="877" y="72" on="0"/>
        <pt x="872" y="20" on="0"/>
        <pt x="869" y="0" on="1"/>
        <pt x="860" y="2" on="1"/>
        <pt x="860" y="0" on="1"/>
        <pt x="345" y="0" on="1"/>
        <pt x="339" y="34" on="1"/>
        <pt x="355" y="44" on="0"/>
        <pt x="407" y="67" on="0"/>
        <pt x="424" y="75" on="1"/>
        <pt x="424" y="182" on="1"/>
        <pt x="231" y="182" on="1"/>
        <pt x="171" y="64" on="1"/>
        <pt x="259" y="51" on="1"/>
        <pt x="258" y="0" on="1"/>
        <pt x="-14" y="0" on="1"/>
      </contour>
      <contour>
        <pt x="270" y="258" on="1"/>
        <pt x="424" y="258" on="1"/>
        <pt x="424" y="558" on="1"/>
      </contour>
    </TTGlyph>
    <TTGlyph name="Aacute" xMin="-20" yMin="0" xMax="726" yMax="898">
      <component glyphName="A" x="0" y="0" flags="0x204"/>
      <component glyphName="acutecomb.case" x="346" y="0" flags="0x4"/>
    </TTGlyph>
    <TTGlyph name="Abreve" xMin="-20" yMin="0" xMax="726" yMax="874">
      <component glyphName="A" x="0" y="0" flags="0x204"/>
      <component glyphName="uni0306.case" x="348" y="0" flags="0x4"/>
    </TTGlyph>
    <TTGlyph name="Acircumflex" xMin="-20" yMin="0" xMax="726" yMax="909">
      <component glyphName="A" x="0" y="0" flags="0x204"/>
      <component glyphName="uni0302.case" x="348" y="70" flags="0x4"/>
    </TTGlyph>
    <TTGlyph name="Adieresis" xMin="-20" yMin="0" xMax="726" yMax="898">
      <component glyphName="A" x="0" y="0" flags="0x204"/>
      <component glyphName="uni0308.case" x="347" y="179" flags="0x4"/>
    </TTGlyph>
    <TTGlyph name="Agrave" xMin="-20" yMin="0" xMax="726" yMax="898">
      <component glyphName="A" x="0" y="0" flags="0x204"/>
      <component glyphName="gravecomb.case" x="348" y="0" flags="0x4"/>
    </TTGlyph>
    <TTGlyph name="Alpha" xMin="-20" yMin="0" xMax="726" yMax="682">
      <component glyphName="A" x="0" y="0" flags="0x204"/>
    </TTGlyph>
    <TTGlyph name="Alphaacute" xMin="-20" yMin="0" xMax="726" yMax="682">
      <component glyphName="Alpha" x="0" y="0" flags="0x204"/>
      <component glyphName="grAcute.case" x="8" y="0" flags="0x4"/>
    </TTGlyph>
    <TTGlyph name="Alphaasper" xMin="-20" yMin="0" xMax="726" yMax="682">
      <component glyphName="Alpha" x="0" y="0" flags="0x204"/>
      <component glyphName="asper.case" x="-16" y="0" flags="0x4"/>
    </TTGlyph>
    <TTGlyph name="Alphaasperacute" xMin="-161" yMin="0" xMax="726" yMax="682">
      <component glyphName="asperacute.case" x="-90" y="0" flags="0x4"/>
      <component glyphName="Alpha" x="0" y="0" flags="0x204"/>
    </TTGlyph>
    <TTGlyph name="Alphaasperacuteiotasub" xMin="-161" yMin="-224" xMax="726" yMax="682">
      <component glyphName="asperacute.case" x="-90" y="0" flags="0x4"/>
      <component glyphName="Alpha" x="0" y="0" flags="0x204"/>
      <component glyphName="iotaadscript.case" x="222" y="0" flags="0x4"/>
    </TTGlyph>
    <TTGlyph name="Alphaaspergrave" xMin="-168" yMin="0" xMax="726" yMax="682">
      <component glyphName="Alpha" x="0" y="0" flags="0x204"/>
      <component glyphName="aspergrave.case" x="-94" y="0" flags="0x4"/>
    </TTGlyph>
    <TTGlyph name="Alphaaspergraveiotasub" xMin="-168" yMin="-224" xMax="726" yMax="682">
      <component glyphName="Alpha" x="0" y="0" flags="0x204"/>
      <component glyphName="iotaadscript.case" x="222" y="0" flags="0x4"/>
      <component glyphName="aspergrave.case" x="-94" y="0" flags="0x4"/>
    </TTGlyph>
    <TTGlyph name="Alphaasperiotasub" xMin="-20" yMin="-224" xMax="726" yMax="682">
      <component glyphName="Alpha" x="0" y="0" flags="0x204"/>
      <component glyphName="iotaadscript.case" x="222" y="0" flags="0x4"/>
      <component glyphName="asper.case" x="-16" y="0" flags="0x4"/>
    </TTGlyph>
    <TTGlyph name="Alphaaspertilde" xMin="-200" yMin="0" xMax="726" yMax="682">
      <component glyphName="Alpha" x="0" y="0" flags="0x204"/>
      <component glyphName="aspertilde.case" x="-28" y="0" flags="0x4"/>
    </TTGlyph>
    <TTGlyph name="Alphaaspertildeiotasub" xMin="-200" yMin="-224" xMax="726" yMax="682">
      <component glyphName="Alpha" x="0" y="0" flags="0x204"/>
      <component glyphName="aspertilde.case" x="-28" y="0" flags="0x4"/>
      <component glyphName="iotaadscript.case" x="222" y="0" flags="0x4"/>
    </TTGlyph>
    <TTGlyph name="Alphabreve" xMin="-20" yMin="0" xMax="726" yMax="874">
      <component glyphName="Alpha" x="0" y="0" flags="0x204"/>
      <component glyphName="uni0306.case" x="348" y="0" flags="0x4"/>
    </TTGlyph>
    <TTGlyph name="Alphagrave" xMin="-20" yMin="0" xMax="726" yMax="682">
      <component glyphName="Alpha" x="0" y="0" flags="0x204"/>
      <component glyphName="grGrave.case" x="-23" y="0" flags="0x4"/>
    </TTGlyph>
    <TTGlyph name="Alphaiotasub" xMin="-20" yMin="-224" xMax="726" yMax="682">
      <component glyphName="Alpha" x="0" y="0" flags="0x204"/>
      <component glyphName="iotaadscript.case" x="222" y="0" flags="0x4"/>
    </TTGlyph>
    <TTGlyph name="Alphalenis" xMin="-20" yMin="0" xMax="726" yMax="682">
      <component glyphName="Alpha" x="0" y="0" flags="0x204"/>
      <component glyphName="lenis.case" x="8" y="0" flags="0x4"/>
    </TTGlyph>
    <TTGlyph name="Alphalenisacute" xMin="-147" yMin="0" xMax="726" yMax="682">
      <component glyphName="Alpha" x="0" y="0" flags="0x204"/>
      <component glyphName="lenisacute.case" x="-29" y="0" flags="0x4"/>
    </TTGlyph>
    <TTGlyph name="Alphalenisacuteiotasub" xMin="-147" yMin="-224" xMax="726" yMax="682">
      <component glyphName="Alpha" x="0" y="0" flags="0x204"/>
      <component glyphName="lenisacute.case" x="-29" y="0" flags="0x4"/>
      <component glyphName="iotaadscript.case" x="222" y="0" flags="0x4"/>
    </TTGlyph>
    <TTGlyph name="Alphalenisgrave" xMin="-171" yMin="0" xMax="726" yMax="682">
      <component glyphName="Alpha" x="0" y="0" flags="0x204"/>
      <component glyphName="lenisgrave.case" x="-42" y="0" flags="0x4"/>
    </TTGlyph>
    <TTGlyph name="Alphalenisgraveiotasub" xMin="-171" yMin="-224" xMax="726" yMax="682">
      <component glyphName="Alpha" x="0" y="0" flags="0x204"/>
      <component glyphName="lenisgrave.case" x="-42" y="0" flags="0x4"/>
      <component glyphName="iotaadscript.case" x="222" y="0" flags="0x4"/>
    </TTGlyph>
    <TTGlyph name="Alphalenisiotasub" xMin="-20" yMin="-224" xMax="726" yMax="682">
      <component glyphName="Alpha" x="0" y="0" flags="0x204"/>
      <component glyphName="lenis.case" x="8" y="0" flags="0x4"/>
      <component glyphName="iotaadscript.case" x="222" y="0" flags="0x4"/>
    </TTGlyph>
    <TTGlyph name="Alphalenistilde" xMin="-200" yMin="0" xMax="726" yMax="682">
      <component glyphName="Alpha" x="0" y="0" flags="0x204"/>
      <component glyphName="lenistilde.case" x="-28" y="0" flags="0x4"/>
    </TTGlyph>
    <TTGlyph name="Alphalenistildeiotasub" xMin="-200" yMin="-224" xMax="726" yMax="682">
      <component glyphName="Alpha" x="0" y="0" flags="0x204"/>
      <component glyphName="lenistilde.case" x="-28" y="0" flags="0x4"/>
      <component glyphName="iotaadscript.case" x="222" y="0" flags="0x4"/>
    </TTGlyph>
    <TTGlyph name="Alphawithmacron" xMin="-20" yMin="0" xMax="726" yMax="831">
      <component glyphName="Alpha" x="0" y="0" flags="0x204"/>
      <component glyphName="uni0304.case" x="346" y="0" flags="0x4"/>
    </TTGlyph>
    <TTGlyph name="Alphawithtonos" xMin="-20" yMin="0" xMax="726" yMax="682">
      <component glyphName="Alpha" x="0" y="0" flags="0x204"/>
      <component glyphName="tonos.case" x="8" y="0" flags="0x4"/>
    </TTGlyph>
    <TTGlyph name="Amacron" xMin="-20" yMin="0" xMax="726" yMax="831">
      <component glyphName="A" x="0" y="0" flags="0x204"/>
      <component glyphName="uni0304.case" x="346" y="0" flags="0x4"/>
    </TTGlyph>
    <TTGlyph name="Aogonek" xMin="-20" yMin="-274" xMax="726" yMax="682">
      <component glyphName="A" x="0" y="0" flags="0x204"/>
      <component glyphName="uni0328.case" x="674" y="-9" flags="0x4"/>
    </TTGlyph>
    <TTGlyph name="Aring" xMin="-20" yMin="0" xMax="726" yMax="947">
      <component glyphName="A" x="0" y="0" flags="0x204"/>
      <component glyphName="uni030A.case" x="347" y="0" flags="0x4"/>
    </TTGlyph>
    <TTGlyph name="Atilde" xMin="-20" yMin="0" xMax="726" yMax="889">
      <component glyphName="A" x="0" y="0" flags="0x204"/>
      <component glyphName="tildecomb.case" x="348" y="0" flags="0x4"/>
    </TTGlyph>
    <TTGlyph name="B" xMin="26" yMin="0" xMax="637" yMax="666">
      <contour>
        <pt x="26" y="32" on="1"/>
        <pt x="45" y="44" on="0"/>
        <pt x="89" y="64" on="0"/>
        <pt x="111" y="73" on="1"/>
        <pt x="111" y="598" on="1"/>
        <pt x="40" y="607" on="1"/>
        <pt x="41" y="658" on="1"/>
        <pt x="75" y="660" on="0"/>
        <pt x="157" y="663" on="0"/>
        <pt x="241" y="665" on="0"/>
        <pt x="321" y="666" on="0"/>
        <pt x="353" y="666" on="1"/>
        <pt x="418" y="666" on="0"/>
        <pt x="513" y="637" on="0"/>
        <pt x="575" y="589" on="0"/>
        <pt x="605" y="528" on="0"/>
        <pt x="605" y="497" on="1"/>
        <pt x="605" y="474" on="0"/>
        <pt x="590" y="427" on="0"/>
        <pt x="559" y="386" on="0"/>
        <pt x="511" y="355" on="0"/>
        <pt x="478" y="349" on="1"/>
        <pt x="556" y="335" on="0"/>
        <pt x="637" y="240" on="0"/>
        <pt x="637" y="182" on="1"/>
        <pt x="637" y="147" on="0"/>
        <pt x="606" y="81" on="0"/>
        <pt x="540" y="31" on="0"/>
        <pt x="435" y="0" on="0"/>
        <pt x="361" y="0" on="1"/>
        <pt x="32" y="0" on="1"/>
      </contour>
      <contour>
        <pt x="372" y="588" on="1"/>
        <pt x="263" y="573" on="1"/>
        <pt x="263" y="376" on="1"/>
        <pt x="309" y="376" on="1"/>
        <pt x="385" y="376" on="0"/>
        <pt x="451" y="441" on="0"/>
        <pt x="451" y="481" on="1"/>
        <pt x="451" y="515" on="0"/>
        <pt x="407" y="580" on="0"/>
      </contour>
      <contour>
        <pt x="343" y="77" on="1"/>
        <pt x="377" y="74" on="0"/>
        <pt x="427" y="90" on="0"/>
        <pt x="460" y="121" on="0"/>
        <pt x="476" y="162" on="0"/>
        <pt x="476" y="184" on="1"/>
        <pt x="476" y="206" on="0"/>
        <pt x="459" y="252" on="0"/>
        <pt x="425" y="287" on="0"/>
        <pt x="376" y="310" on="0"/>
        <pt x="345" y="310" on="1"/>
        <pt x="263" y="310" on="1"/>
        <pt x="263" y="85" on="1"/>
      </contour>
    </TTGlyph>
    <TTGlyph name="Beta" xMin="26" yMin="0" xMax="637" yMax="666">
      <component glyphName="B" x="0" y="0" flags="0x204"/>
    </TTGlyph>
    <TTGlyph name="C" xMin="14" yMin="-16" xMax="573" yMax="678">
      <contour>
        <pt x="368" y="-16" on="1"/>
        <pt x="271" y="-19" on="0"/>
        <pt x="135" y="39" on="0"/>
        <pt x="52" y="135" on="0"/>
        <pt x="14" y="259" on="0"/>
        <pt x="14" y="321" on="1"/>
        <pt x="14" y="387" on="0"/>
        <pt x="55" y="516" on="0"/>
        <pt x="138" y="616" on="0"/>
        <pt x="265" y="678" on="0"/>
        <pt x="350" y="678" on="1"/>
        <pt x="425" y="678" on="0"/>
        <pt x="526" y="636" on="0"/>
        <pt x="556" y="615" on="1"/>
        <pt x="557" y="600" on="0"/>
        <pt x="555" y="556" on="0"/>
        <pt x="550" y="506" on="0"/>
        <pt x="540" y="456" on="0"/>
        <pt x="534" y="435" on="1"/>
        <pt x="442" y="435" on="1"/>
        <pt x="418" y="560" on="1"/>
        <pt x="385" y="574" on="0"/>
        <pt x="310" y="590" on="0"/>
        <pt x="267" y="590" on="1"/>
        <pt x="241" y="570" on="0"/>
        <pt x="204" y="514" on="0"/>
        <pt x="180" y="449" on="0"/>
        <pt x="169" y="379" on="0"/>
        <pt x="169" y="345" on="1"/>
        <pt x="169" y="291" on="0"/>
        <pt x="196" y="195" on="0"/>
        <pt x="250" y="126" on="0"/>
        <pt x="331" y="87" on="0"/>
        <pt x="384" y="89" on="1"/>
        <pt x="549" y="143" on="1"/>
        <pt x="573" y="72" on="1"/>
      </contour>
    </TTGlyph>
    <TTGlyph name="Cacute" xMin="14" yMin="-16" xMax="573" yMax="898">
      <component glyphName="C" x="0" y="0" flags="0x204"/>
      <component glyphName="acutecomb.case" x="330" y="0" flags="0x4"/>
    </TTGlyph>
    <TTGlyph name="Ccaron" xMin="14" yMin="-16" xMax="573" yMax="906">
      <component glyphName="C" x="0" y="0" flags="0x204"/>
      <component glyphName="uni030C.case" x="332" y="70" flags="0x4"/>
    </TTGlyph>
    <TTGlyph name="Ccedilla" xMin="14" yMin="-269" xMax="573" yMax="678">
      <component glyphName="C" x="0" y="0" flags="0x204"/>
      <component glyphName="uni0327.case" x="331" y="0" flags="0x4"/>
    </TTGlyph>
    <TTGlyph name="Chi" xMin="2" yMin="0" xMax="704" yMax="658">
      <component glyphName="X" x="0" y="0" flags="0x204"/>
    </TTGlyph>
    <TTGlyph name="D" xMin="26" yMin="0" xMax="692" yMax="666">
      <contour>
        <pt x="26" y="32" on="1"/>
        <pt x="45" y="44" on="0"/>
        <pt x="89" y="64" on="0"/>
        <pt x="111" y="73" on="1"/>
        <pt x="111" y="598" on="1"/>
        <pt x="40" y="607" on="1"/>
        <pt x="41" y="658" on="1"/>
        <pt x="122" y="662" on="0"/>
        <pt x="281" y="666" on="0"/>
        <pt x="362" y="666" on="1"/>
        <pt x="442" y="666" on="0"/>
        <pt x="566" y="608" on="0"/>
        <pt x="649" y="514" on="0"/>
        <pt x="692" y="394" on="0"/>
        <pt x="692" y="334" on="1"/>
        <pt x="692" y="271" on="0"/>
        <pt x="651" y="150" on="0"/>
        <pt x="566" y="57" on="0"/>
        <pt x="435" y="0" on="0"/>
        <pt x="346" y="0" on="1"/>
        <pt x="32" y="0" on="1"/>
      </contour>
      <contour>
        <pt x="408" y="588" on="1"/>
        <pt x="263" y="573" on="1"/>
        <pt x="263" y="95" on="1"/>
        <pt x="283" y="89" on="0"/>
        <pt x="322" y="83" on="0"/>
        <pt x="339" y="83" on="1"/>
        <pt x="388" y="83" on="0"/>
        <pt x="461" y="126" on="0"/>
        <pt x="509" y="195" on="0"/>
        <pt x="532" y="283" on="0"/>
        <pt x="532" y="328" on="1"/>
        <pt x="532" y="369" on="0"/>
        <pt x="514" y="449" on="0"/>
        <pt x="482" y="517" on="0"/>
        <pt x="436" y="572" on="0"/>
      </contour>
    </TTGlyph>
    <TTGlyph name="Dcaron" xMin="26" yMin="0" xMax="692" yMax="906">
      <component glyphName="D" x="0" y="0" flags="0x204"/>
      <component glyphName="uni030C.case" x="343" y="70" flags="0x4"/>
    </TTGlyph>
    <TTGlyph name="Dcroat" xMin="14" yMin="0" xMax="692" yMax="666">
      <contour>
        <pt x="26" y="32" on="1"/>
        <pt x="45" y="44" on="0"/>
        <pt x="89" y="64" on="0"/>
        <pt x="111" y="73" on="1"/>
        <pt x="111" y="274" on="1"/>
        <pt x="20" y="274" on="1"/>
        <pt x="14" y="307" on="1"/>
        <pt x="57" y="350" on="1"/>
        <pt x="111" y="350" on="1"/>
        <pt x="111" y="598" on="1"/>
        <pt x="40" y="607" on="1"/>
        <pt x="41" y="658" on="1"/>
        <pt x="122" y="662" on="0"/>
        <pt x="281" y="666" on="0"/>
        <pt x="362" y="666" on="1"/>
        <pt x="442" y="666" on="0"/>
        <pt x="566" y="608" on="0"/>
        <pt x="649" y="514" on="0"/>
        <pt x="692" y="394" on="0"/>
        <pt x="692" y="334" on="1"/>
        <pt x="692" y="271" on="0"/>
        <pt x="651" y="150" on="0"/>
        <pt x="566" y="57" on="0"/>
        <pt x="435" y="0" on="0"/>
        <pt x="346" y="0" on="1"/>
        <pt x="32" y="0" on="1"/>
      </contour>
      <contour>
        <pt x="362" y="274" on="1"/>
        <pt x="263" y="274" on="1"/>
        <pt x="263" y="95" on="1"/>
        <pt x="283" y="89" on="0"/>
        <pt x="322" y="83" on="0"/>
        <pt x="339" y="83" on="1"/>
        <pt x="388" y="83" on="0"/>
        <pt x="461" y="126" on="0"/>
        <pt x="509" y="195" on="0"/>
        <pt x="532" y="283" on="0"/>
        <pt x="532" y="328" on="1"/>
        <pt x="532" y="369" on="0"/>
        <pt x="514" y="449" on="0"/>
        <pt x="482" y="517" on="0"/>
        <pt x="436" y="572" on="0"/>
        <pt x="408" y="588" on="1"/>
        <pt x="263" y="573" on="1"/>
        <pt x="263" y="350" on="1"/>
        <pt x="399" y="350" on="1"/>
        <pt x="405" y="317" on="1"/>
      </contour>
    </TTGlyph>
    <TTGlyph name="Delta" xMin="24" yMin="0" xMax="632" yMax="682">
      <contour>
        <pt x="24" y="76" on="1"/>
        <pt x="260" y="616" on="1"/>
        <pt x="248" y="646" on="1"/>
        <pt x="378" y="682" on="1"/>
        <pt x="632" y="86" on="1"/>
        <pt x="598" y="0" on="1"/>
        <pt x="53" y="0" on="1"/>
      </contour>
      <contour>
        <pt x="306" y="502" on="1"/>
        <pt x="144" y="100" on="1"/>
        <pt x="466" y="104" on="1"/>
      </contour>
    </TTGlyph>
    <TTGlyph name="E" xMin="26" yMin="0" xMax="567" yMax="658">
      <contour>
        <pt x="26" y="32" on="1"/>
        <pt x="45" y="44" on="0"/>
        <pt x="89" y="64" on="0"/>
        <pt x="111" y="73" on="1"/>
        <pt x="111" y="598" on="1"/>
        <pt x="37" y="607" on="1"/>
        <pt x="38" y="658" on="1"/>
        <pt x="559" y="658" on="1"/>
        <pt x="559" y="658" on="1"/>
        <pt x="560" y="658" on="1"/>
        <pt x="561" y="643" on="0"/>
        <pt x="560" y="598" on="0"/>
        <pt x="556" y="547" on="0"/>
        <pt x="549" y="492" on="0"/>
        <pt x="544" y="468" on="1"/>
        <pt x="460" y="468" on="1"/>
        <pt x="443" y="567" on="1"/>
        <pt x="263" y="580" on="1"/>
        <pt x="263" y="365" on="1"/>
        <pt x="478" y="382" on="1"/>
        <pt x="478" y="281" on="1"/>
        <pt x="263" y="290" on="1"/>
        <pt x="263" y="83" on="1"/>
        <pt x="450" y="96" on="1"/>
        <pt x="483" y="205" on="1"/>
        <pt x="567" y="199" on="1"/>
        <pt x="568" y="178" on="0"/>
        <pt x="566" y="126" on="0"/>
        <pt x="563" y="72" on="0"/>
        <pt x="558" y="20" on="0"/>
        <pt x="555" y="0" on="1"/>
        <pt x="32" y="0" on="1"/>
      </contour>
    </TTGlyph>
    <TTGlyph name="Eacute" xMin="26" yMin="0" xMax="567" yMax="898">
      <component glyphName="E" x="0" y="0" flags="0x204"/>
      <component glyphName="acutecomb.case" x="310" y="0" flags="0x4"/>
    </TTGlyph>
    <TTGlyph name="Ecaron" xMin="26" yMin="0" xMax="567" yMax="906">
      <component glyphName="E" x="0" y="0" flags="0x204"/>
      <component glyphName="uni030C.case" x="312" y="70" flags="0x4"/>
    </TTGlyph>
    <TTGlyph name="Ecircumflex" xMin="26" yMin="0" xMax="567" yMax="909">
      <component glyphName="E" x="0" y="0" flags="0x204"/>
      <component glyphName="uni0302.case" x="312" y="70" flags="0x4"/>
    </TTGlyph>
    <TTGlyph name="Edieresis" xMin="26" yMin="0" xMax="567" yMax="898">
      <component glyphName="E" x="0" y="0" flags="0x204"/>
      <component glyphName="uni0308.case" x="311" y="179" flags="0x4"/>
    </TTGlyph>
    <TTGlyph name="Edotaccent" xMin="26" yMin="0" xMax="567" yMax="898">
      <component glyphName="E" x="0" y="0" flags="0x204"/>
      <component glyphName="uni0307.case" x="311" y="179" flags="0x4"/>
    </TTGlyph>
    <TTGlyph name="Egrave" xMin="26" yMin="0" xMax="567" yMax="898">
      <component glyphName="E" x="0" y="0" flags="0x204"/>
      <component glyphName="gravecomb.case" x="312" y="0" flags="0x4"/>
    </TTGlyph>
    <TTGlyph name="Emacron" xMin="26" yMin="0" xMax="567" yMax="831">
      <component glyphName="E" x="0" y="0" flags="0x204"/>
      <component glyphName="uni0304.case" x="310" y="0" flags="0x4"/>
    </TTGlyph>
    <TTGlyph name="Eogonek" xMin="26" yMin="-275" xMax="588" yMax="658">
      <component glyphName="E" x="0" y="0" flags="0x204"/>
      <component glyphName="uni0328.case" x="573" y="-10" flags="0x4"/>
    </TTGlyph>
    <TTGlyph name="Epsilon" xMin="26" yMin="0" xMax="567" yMax="658">
      <component glyphName="E" x="0" y="0" flags="0x204"/>
    </TTGlyph>
    <TTGlyph name="Epsilonacute" xMin="-184" yMin="0" xMax="567" yMax="665">
      <component glyphName="Epsilon" x="0" y="0" flags="0x204"/>
      <component glyphName="grAcute.case" x="-183" y="0" flags="0x4"/>
    </TTGlyph>
    <TTGlyph name="Epsilonasper" xMin="-174" yMin="0" xMax="567" yMax="666">
      <component glyphName="Epsilon" x="0" y="0" flags="0x204"/>
      <component glyphName="asper.case" x="-206" y="0" flags="0x4"/>
    </TTGlyph>
    <TTGlyph name="Epsilonasperacute" xMin="-352" yMin="0" xMax="567" yMax="666">
      <component glyphName="asperacute.case" x="-281" y="0" flags="0x4"/>
      <component glyphName="Epsilon" x="0" y="0" flags="0x204"/>
    </TTGlyph>
    <TTGlyph name="Epsilonaspergrave" xMin="-359" yMin="0" xMax="567" yMax="666">
      <component glyphName="Epsilon" x="0" y="0" flags="0x204"/>
      <component glyphName="aspergrave.case" x="-285" y="0" flags="0x4"/>
    </TTGlyph>
    <TTGlyph name="Epsilongrave" xMin="-189" yMin="0" xMax="567" yMax="665">
      <component glyphName="Epsilon" x="0" y="0" flags="0x204"/>
      <component glyphName="grGrave.case" x="-214" y="0" flags="0x4"/>
    </TTGlyph>
    <TTGlyph name="Epsilonlenis" xMin="-172" yMin="0" xMax="567" yMax="666">
      <component glyphName="Epsilon" x="0" y="0" flags="0x204"/>
      <component glyphName="lenis.case" x="-183" y="0" flags="0x4"/>
    </TTGlyph>
    <TTGlyph name="Epsilonlenisacute" xMin="-338" yMin="0" xMax="567" yMax="666">
      <component glyphName="Epsilon" x="0" y="0" flags="0x204"/>
      <component glyphName="lenisacute.case" x="-220" y="0" flags="0x4"/>
    </TTGlyph>
    <TTGlyph name="Epsilonlenisgrave" xMin="-362" yMin="0" xMax="567" yMax="666">
      <component glyphName="Epsilon" x="0" y="0" flags="0x204"/>
      <component glyphName="lenisgrave.case" x="-233" y="0" flags="0x4"/>
    </TTGlyph>
    <TTGlyph name="Epsilonwithtonos" xMin="-183" yMin="0" xMax="567" yMax="664">
      <component glyphName="Epsilon" x="0" y="0" flags="0x204"/>
      <component glyphName="tonos.case" x="-183" y="0" flags="0x4"/>
    </TTGlyph>
    <TTGlyph name="Eta" xMin="26" yMin="0" xMax="777" yMax="658">
      <component glyphName="H" x="0" y="0" flags="0x204"/>
    </TTGlyph>
    <TTGlyph name="Etaacute" xMin="-186" yMin="0" xMax="777" yMax="665">
      <component glyphName="Eta" x="0" y="0" flags="0x204"/>
      <component glyphName="grAcute.case" x="-185" y="0" flags="0x4"/>
    </TTGlyph>
    <TTGlyph name="Etaasper" xMin="-176" yMin="0" xMax="777" yMax="666">
      <component glyphName="Eta" x="0" y="0" flags="0x204"/>
      <component glyphName="asper.case" x="-208" y="0" flags="0x4"/>
    </TTGlyph>
    <TTGlyph name="Etaasperacute" xMin="-354" yMin="0" xMax="777" yMax="666">
      <component glyphName="asperacute.case" x="-283" y="0" flags="0x4"/>
      <component glyphName="Eta" x="0" y="0" flags="0x4"/>
    </TTGlyph>
    <TTGlyph name="Etaasperacuteiotasub" xMin="-354" yMin="-224" xMax="777" yMax="666">
      <component glyphName="asperacute.case" x="-283" y="0" flags="0x4"/>
      <component glyphName="Eta" x="0" y="0" flags="0x4"/>
      <component glyphName="iotaadscript.case" x="289" y="0" flags="0x4"/>
    </TTGlyph>
    <TTGlyph name="Etaaspergrave" xMin="-361" yMin="0" xMax="777" yMax="666">
      <component glyphName="aspergrave.case" x="-287" y="0" flags="0x4"/>
      <component glyphName="Eta" x="0" y="0" flags="0x4"/>
    </TTGlyph>
    <TTGlyph name="Etaaspergraveiotasub" xMin="-361" yMin="-224" xMax="777" yMax="666">
      <component glyphName="aspergrave.case" x="-287" y="0" flags="0x4"/>
      <component glyphName="Eta" x="0" y="0" flags="0x4"/>
      <component glyphName="iotaadscript.case" x="289" y="0" flags="0x4"/>
    </TTGlyph>
    <TTGlyph name="Etaasperiotasub" xMin="-176" yMin="-224" xMax="777" yMax="666">
      <component glyphName="Eta" x="0" y="0" flags="0x204"/>
      <component glyphName="iotaadscript.case" x="289" y="0" flags="0x4"/>
      <component glyphName="asper.case" x="-208" y="0" flags="0x4"/>
    </TTGlyph>
    <TTGlyph name="Etaaspertilde" xMin="-392" yMin="0" xMax="777" yMax="675">
      <component glyphName="aspertilde.case" x="-220" y="0" flags="0x4"/>
      <component glyphName="Eta" x="0" y="0" flags="0x4"/>
    </TTGlyph>
    <TTGlyph name="Etaaspertildeiotasub" xMin="-392" yMin="-224" xMax="777" yMax="675">
      <component glyphName="aspertilde.case" x="-220" y="0" flags="0x4"/>
      <component glyphName="Eta" x="0" y="0" flags="0x4"/>
      <component glyphName="iotaadscript.case" x="289" y="0" flags="0x4"/>
    </TTGlyph>
    <TTGlyph name="Etagrave" xMin="-191" yMin="0" xMax="777" yMax="665">
      <component glyphName="Eta" x="0" y="0" flags="0x4"/>
      <component glyphName="grGrave.case" x="-216" y="0" flags="0x4"/>
    </TTGlyph>
    <TTGlyph name="Etaiotasub" xMin="26" yMin="-224" xMax="777" yMax="658">
      <component glyphName="Eta" x="0" y="0" flags="0x204"/>
      <component glyphName="iotaadscript.case" x="289" y="0" flags="0x4"/>
    </TTGlyph>
    <TTGlyph name="Etalenis" xMin="-174" yMin="0" xMax="777" yMax="666">
      <component glyphName="Eta" x="0" y="0" flags="0x204"/>
      <component glyphName="lenis.case" x="-185" y="0" flags="0x4"/>
    </TTGlyph>
    <TTGlyph name="Etalenisacute" xMin="-340" yMin="0" xMax="777" yMax="666">
      <component glyphName="Eta" x="0" y="0" flags="0x204"/>
      <component glyphName="lenisacute.case" x="-222" y="0" flags="0x4"/>
    </TTGlyph>
    <TTGlyph name="Etalenisacuteiotasub" xMin="-340" yMin="-224" xMax="777" yMax="666">
      <component glyphName="Eta" x="0" y="0" flags="0x204"/>
      <component glyphName="lenisacute.case" x="-222" y="0" flags="0x4"/>
      <component glyphName="iotaadscript.case" x="289" y="0" flags="0x4"/>
    </TTGlyph>
    <TTGlyph name="Etalenisgrave" xMin="-364" yMin="0" xMax="777" yMax="666">
      <component glyphName="Eta" x="0" y="0" flags="0x204"/>
      <component glyphName="lenisgrave.case" x="-235" y="0" flags="0x4"/>
    </TTGlyph>
    <TTGlyph name="Etalenisgraveiotasub" xMin="-364" yMin="-224" xMax="777" yMax="666">
      <component glyphName="Eta" x="0" y="0" flags="0x204"/>
      <component glyphName="lenisgrave.case" x="-235" y="0" flags="0x4"/>
      <component glyphName="iotaadscript.case" x="289" y="0" flags="0x4"/>
    </TTGlyph>
    <TTGlyph name="Etalenisiotasub" xMin="-174" yMin="-224" xMax="777" yMax="666">
      <component glyphName="Eta" x="0" y="0" flags="0x204"/>
      <component glyphName="lenis.case" x="-185" y="0" flags="0x4"/>
      <component glyphName="iotaadscript.case" x="289" y="0" flags="0x4"/>
    </TTGlyph>
    <TTGlyph name="Etalenistilde" xMin="-392" yMin="0" xMax="777" yMax="675">
      <component glyphName="Eta" x="0" y="0" flags="0x204"/>
      <component glyphName="lenistilde.case" x="-220" y="0" flags="0x4"/>
    </TTGlyph>
    <TTGlyph name="Etalenistildeiotasub" xMin="-392" yMin="-224" xMax="777" yMax="675">
      <component glyphName="Eta" x="0" y="0" flags="0x204"/>
      <component glyphName="lenistilde.case" x="-220" y="0" flags="0x4"/>
      <component glyphName="iotaadscript.case" x="289" y="0" flags="0x4"/>
    </TTGlyph>
    <TTGlyph name="Etawithtonos" xMin="-185" yMin="0" xMax="777" yMax="664">
      <component glyphName="Eta" x="0" y="0" flags="0x204"/>
      <component glyphName="tonos.case" x="-185" y="0" flags="0x4"/>
    </TTGlyph>
    <TTGlyph name="Eth" xMin="14" yMin="0" xMax="692" yMax="666">
      <component glyphName="Dcroat" x="0" y="0" flags="0x204"/>
    </TTGlyph>
    <TTGlyph name="Euro" xMin="-28" yMin="-21" xMax="614" yMax="670">
      <contour>
        <pt x="-28" y="227" on="1"/>
        <pt x="9" y="269" on="1"/>
        <pt x="87" y="269" on="1"/>
        <pt x="86" y="279" on="0"/>
        <pt x="85" y="301" on="0"/>
        <pt x="85" y="311" on="1"/>
        <pt x="85" y="319" on="0"/>
        <pt x="85" y="335" on="0"/>
        <pt x="86" y="343" on="1"/>
        <pt x="3" y="343" on="1"/>
        <pt x="-3" y="366" on="1"/>
        <pt x="35" y="408" on="1"/>
        <pt x="96" y="408" on="1"/>
        <pt x="108" y="460" on="0"/>
        <pt x="159" y="555" on="0"/>
        <pt x="239" y="627" on="0"/>
        <pt x="347" y="670" on="0"/>
        <pt x="416" y="670" on="1"/>
        <pt x="475" y="670" on="0"/>
        <pt x="577" y="638" on="0"/>
        <pt x="614" y="608" on="1"/>
        <pt x="610" y="564" on="0"/>
        <pt x="594" y="483" on="0"/>
        <pt x="585" y="455" on="1"/>
        <pt x="512" y="455" on="1"/>
        <pt x="499" y="551" on="1"/>
        <pt x="462" y="570" on="0"/>
        <pt x="386" y="587" on="0"/>
        <pt x="348" y="583" on="1"/>
        <pt x="309" y="555" on="0"/>
        <pt x="256" y="464" on="0"/>
        <pt x="245" y="408" on="1"/>
        <pt x="552" y="408" on="1"/>
        <pt x="558" y="385" on="1"/>
        <pt x="521" y="343" on="1"/>
        <pt x="237" y="343" on="1"/>
        <pt x="236" y="338" on="0"/>
        <pt x="236" y="326" on="0"/>
        <pt x="236" y="321" on="1"/>
        <pt x="236" y="308" on="0"/>
        <pt x="238" y="282" on="0"/>
        <pt x="239" y="269" on="1"/>
        <pt x="511" y="269" on="1"/>
        <pt x="517" y="246" on="1"/>
        <pt x="480" y="204" on="1"/>
        <pt x="256" y="204" on="1"/>
        <pt x="276" y="153" on="0"/>
        <pt x="367" y="88" on="0"/>
        <pt x="443" y="83" on="1"/>
        <pt x="588" y="123" on="1"/>
        <pt x="612" y="54" on="1"/>
        <pt x="428" y="-21" on="1"/>
        <pt x="355" y="-21" on="0"/>
        <pt x="243" y="14" on="0"/>
        <pt x="163" y="76" on="0"/>
        <pt x="112" y="158" on="0"/>
        <pt x="99" y="204" on="1"/>
        <pt x="-22" y="204" on="1"/>
      </contour>
    </TTGlyph>
    <TTGlyph name="F" xMin="26" yMin="0" xMax="556" yMax="658">
      <contour>
        <pt x="26" y="32" on="1"/>
        <pt x="44" y="43" on="0"/>
        <pt x="85" y="63" on="0"/>
        <pt x="107" y="72" on="1"/>
        <pt x="107" y="598" on="1"/>
        <pt x="33" y="607" on="1"/>
        <pt x="34" y="658" on="1"/>
        <pt x="555" y="658" on="1"/>
        <pt x="555" y="658" on="1"/>
        <pt x="556" y="658" on="1"/>
        <pt x="557" y="643" on="0"/>
        <pt x="556" y="597" on="0"/>
        <pt x="552" y="544" on="0"/>
        <pt x="545" y="488" on="0"/>
        <pt x="540" y="464" on="1"/>
        <pt x="456" y="464" on="1"/>
        <pt x="439" y="567" on="1"/>
        <pt x="259" y="580" on="1"/>
        <pt x="259" y="346" on="1"/>
        <pt x="482" y="362" on="1"/>
        <pt x="482" y="257" on="1"/>
        <pt x="259" y="267" on="1"/>
        <pt x="259" y="68" on="1"/>
        <pt x="379" y="51" on="1"/>
        <pt x="378" y="0" on="1"/>
        <pt x="32" y="0" on="1"/>
      </contour>
    </TTGlyph>
    <TTGlyph name="G" xMin="14" yMin="-20" xMax="676" yMax="678">
      <contour>
        <pt x="387" y="-20" on="1"/>
        <pt x="286" y="-26" on="0"/>
        <pt x="143" y="33" on="0"/>
        <pt x="55" y="131" on="0"/>
        <pt x="14" y="256" on="0"/>
        <pt x="14" y="316" on="1"/>
        <pt x="14" y="385" on="0"/>
        <pt x="61" y="516" on="0"/>
        <pt x="152" y="617" on="0"/>
        <pt x="289" y="678" on="0"/>
        <pt x="379" y="678" on="1"/>
        <pt x="457" y="678" on="0"/>
        <pt x="567" y="635" on="0"/>
        <pt x="592" y="617" on="1"/>
        <pt x="594" y="588" on="0"/>
        <pt x="584" y="491" on="0"/>
        <pt x="571" y="447" on="1"/>
        <pt x="480" y="447" on="1"/>
        <pt x="456" y="559" on="1"/>
        <pt x="420" y="574" on="0"/>
        <pt x="328" y="593" on="0"/>
        <pt x="273" y="590" on="1"/>
        <pt x="219" y="551" on="0"/>
        <pt x="169" y="411" on="0"/>
        <pt x="169" y="336" on="1"/>
        <pt x="169" y="287" on="0"/>
        <pt x="194" y="195" on="0"/>
        <pt x="245" y="124" on="0"/>
        <pt x="322" y="79" on="0"/>
        <pt x="373" y="78" on="1"/>
        <pt x="393" y="77" on="0"/>
        <pt x="438" y="82" on="0"/>
        <pt x="460" y="86" on="1"/>
        <pt x="460" y="224" on="1"/>
        <pt x="435" y="233" on="0"/>
        <pt x="383" y="256" on="0"/>
        <pt x="360" y="269" on="1"/>
        <pt x="366" y="303" on="1"/>
        <pt x="675" y="303" on="1"/>
        <pt x="676" y="255" on="1"/>
        <pt x="600" y="239" on="1"/>
        <pt x="600" y="69" on="1"/>
      </contour>
    </TTGlyph>
    <TTGlyph name="Gamma" xMin="26" yMin="0" xMax="555" yMax="658">
      <contour>
        <pt x="26" y="32" on="1"/>
        <pt x="45" y="44" on="0"/>
        <pt x="89" y="64" on="0"/>
        <pt x="111" y="73" on="1"/>
        <pt x="111" y="598" on="1"/>
        <pt x="38" y="607" on="1"/>
        <pt x="39" y="658" on="1"/>
        <pt x="555" y="658" on="1"/>
        <pt x="556" y="643" on="0"/>
        <pt x="555" y="597" on="0"/>
        <pt x="551" y="545" on="0"/>
        <pt x="544" y="489" on="0"/>
        <pt x="539" y="464" on="1"/>
        <pt x="455" y="464" on="1"/>
        <pt x="439" y="567" on="1"/>
        <pt x="263" y="580" on="1"/>
        <pt x="263" y="68" on="1"/>
        <pt x="383" y="51" on="1"/>
        <pt x="382" y="0" on="1"/>
        <pt x="32" y="0" on="1"/>
      </contour>
    </TTGlyph>
    <TTGlyph name="Gbreve" xMin="14" yMin="-20" xMax="676" yMax="874">
      <component glyphName="G" x="0" y="0" flags="0x204"/>
      <component glyphName="uni0306.case" x="352" y="0" flags="0x4"/>
    </TTGlyph>
    <TTGlyph name="Gcommaaccent" xMin="14" yMin="-298" xMax="676" yMax="678">
      <component glyphName="G" x="0" y="0" flags="0x204"/>
      <component glyphName="uni0326.case" x="351" y="0" flags="0x4"/>
    </TTGlyph>
    <TTGlyph name="H" xMin="26" yMin="0" xMax="777" yMax="658">
      <contour>
        <pt x="26" y="32" on="1"/>
        <pt x="45" y="44" on="0"/>
        <pt x="89" y="64" on="0"/>
        <pt x="111" y="73" on="1"/>
        <pt x="111" y="596" on="1"/>
        <pt x="34" y="607" on="1"/>
        <pt x="35" y="658" on="1"/>
        <pt x="341" y="658" on="1"/>
        <pt x="347" y="626" on="1"/>
        <pt x="328" y="615" on="0"/>
        <pt x="285" y="594" on="0"/>
        <pt x="263" y="585" on="1"/>
        <pt x="263" y="370" on="1"/>
        <pt x="532" y="370" on="1"/>
        <pt x="532" y="596" on="1"/>
        <pt x="455" y="607" on="1"/>
        <pt x="456" y="658" on="1"/>
        <pt x="763" y="658" on="1"/>
        <pt x="769" y="626" on="1"/>
        <pt x="750" y="614" on="0"/>
        <pt x="707" y="594" on="0"/>
        <pt x="684" y="585" on="1"/>
        <pt x="684" y="64" on="1"/>
        <pt x="777" y="51" on="1"/>
        <pt x="776" y="0" on="1"/>
        <pt x="453" y="0" on="1"/>
        <pt x="447" y="32" on="1"/>
        <pt x="466" y="44" on="0"/>
        <pt x="510" y="64" on="0"/>
        <pt x="532" y="73" on="1"/>
        <pt x="532" y="284" on="1"/>
        <pt x="263" y="284" on="1"/>
        <pt x="263" y="64" on="1"/>
        <pt x="355" y="51" on="1"/>
        <pt x="354" y="0" on="1"/>
        <pt x="32" y="0" on="1"/>
      </contour>
    </TTGlyph>
    <TTGlyph name="I" xMin="26" yMin="0" xMax="355" yMax="658">
      <contour>
        <pt x="26" y="32" on="1"/>
        <pt x="45" y="44" on="0"/>
        <pt x="89" y="64" on="0"/>
        <pt x="111" y="73" on="1"/>
        <pt x="111" y="596" on="1"/>
        <pt x="34" y="607" on="1"/>
        <pt x="35" y="658" on="1"/>
        <pt x="341" y="658" on="1"/>
        <pt x="347" y="626" on="1"/>
        <pt x="328" y="615" on="0"/>
        <pt x="285" y="594" on="0"/>
        <pt x="263" y="585" on="1"/>
        <pt x="263" y="64" on="1"/>
        <pt x="355" y="51" on="1"/>
        <pt x="354" y="0" on="1"/>
        <pt x="32" y="0" on="1"/>
      </contour>
    </TTGlyph>
    <TTGlyph name="Iacute" xMin="26" yMin="0" xMax="355" yMax="898">
      <component glyphName="I" x="0" y="0" flags="0x204"/>
      <component glyphName="acutecomb.case" x="187" y="0" flags="0x4"/>
    </TTGlyph>
    <TTGlyph name="Icircumflex" xMin="-15" yMin="0" xMax="395" yMax="909">
      <component glyphName="I" x="0" y="0" flags="0x204"/>
      <component glyphName="uni0302.case" x="189" y="70" flags="0x4"/>
    </TTGlyph>
    <TTGlyph name="Idieresis" xMin="-6" yMin="0" xMax="383" yMax="898">
      <component glyphName="I" x="0" y="0" flags="0x204"/>
      <component glyphName="uni0308.case" x="188" y="179" flags="0x4"/>
    </TTGlyph>
    <TTGlyph name="Idotaccent" xMin="26" yMin="0" xMax="355" yMax="898">
      <component glyphName="I" x="0" y="0" flags="0x204"/>
      <component glyphName="uni0307.case" x="188" y="179" flags="0x4"/>
    </TTGlyph>
    <TTGlyph name="Igrave" xMin="26" yMin="0" xMax="355" yMax="898">
      <component glyphName="I" x="0" y="0" flags="0x204"/>
      <component glyphName="gravecomb.case" x="189" y="0" flags="0x4"/>
    </TTGlyph>
    <TTGlyph name="Imacron" xMin="26" yMin="0" xMax="367" yMax="815">
      <contour>
        <pt x="26" y="790" on="1"/>
        <pt x="55" y="805" on="0"/>
        <pt x="116" y="815" on="0"/>
        <pt x="139" y="815" on="1"/>
        <pt x="362" y="815" on="1"/>
        <pt x="367" y="768" on="1"/>
        <pt x="320" y="726" on="1"/>
        <pt x="32" y="726" on="1"/>
      </contour>
      <contour>
        <pt x="28" y="32" on="1"/>
        <pt x="47" y="44" on="0"/>
        <pt x="91" y="64" on="0"/>
        <pt x="113" y="73" on="1"/>
        <pt x="113" y="596" on="1"/>
        <pt x="36" y="607" on="1"/>
        <pt x="37" y="658" on="1"/>
        <pt x="343" y="658" on="1"/>
        <pt x="349" y="626" on="1"/>
        <pt x="330" y="615" on="0"/>
        <pt x="287" y="594" on="0"/>
        <pt x="265" y="585" on="1"/>
        <pt x="265" y="64" on="1"/>
        <pt x="357" y="51" on="1"/>
        <pt x="356" y="0" on="1"/>
        <pt x="34" y="0" on="1"/>
      </contour>
    </TTGlyph>
    <TTGlyph name="Iogonek" xMin="26" yMin="-274" xMax="355" yMax="658">
      <component glyphName="I" x="0" y="0" flags="0x204"/>
      <component glyphName="uni0328.case" x="292" y="-9" flags="0x4"/>
    </TTGlyph>
    <TTGlyph name="Iota" xMin="26" yMin="0" xMax="355" yMax="658">
      <component glyphName="I" x="0" y="0" flags="0x204"/>
    </TTGlyph>
    <TTGlyph name="Iotaacute" xMin="-186" yMin="0" xMax="355" yMax="665">
      <component glyphName="grAcute.case" x="-185" y="0" flags="0x4"/>
      <component glyphName="Iota" x="0" y="0" flags="0x204"/>
    </TTGlyph>
    <TTGlyph name="Iotaasper" xMin="-177" yMin="0" xMax="355" yMax="666">
      <component glyphName="Iota" x="0" y="0" flags="0x204"/>
      <component glyphName="asper.case" x="-209" y="0" flags="0x4"/>
    </TTGlyph>
    <TTGlyph name="Iotaasperacute" xMin="-354" yMin="0" xMax="355" yMax="666">
      <component glyphName="asperacute.case" x="-283" y="0" flags="0x4"/>
      <component glyphName="Iota" x="0" y="0" flags="0x204"/>
    </TTGlyph>
    <TTGlyph name="Iotaaspergrave" xMin="-361" yMin="0" xMax="355" yMax="666">
      <component glyphName="aspergrave.case" x="-287" y="0" flags="0x4"/>
      <component glyphName="Iota" x="0" y="0" flags="0x204"/>
    </TTGlyph>
    <TTGlyph name="Iotaaspertilde" xMin="-393" yMin="0" xMax="355" yMax="675">
      <component glyphName="aspertilde.case" x="-221" y="0" flags="0x4"/>
      <component glyphName="Iota" x="0" y="0" flags="0x204"/>
    </TTGlyph>
    <TTGlyph name="Iotabreve" xMin="26" yMin="0" xMax="355" yMax="874">
      <component glyphName="uni0306.case" x="191" y="0" flags="0x4"/>
      <component glyphName="Iota" x="0" y="0" flags="0x204"/>
    </TTGlyph>
    <TTGlyph name="Iotadieresis" xMin="-4" yMin="0" xMax="385" yMax="898">
      <component glyphName="uni0308" x="190" y="179" flags="0x4"/>
      <component glyphName="Iota" x="0" y="0" flags="0x204"/>
    </TTGlyph>
    <TTGlyph name="Iotagrave" xMin="-191" yMin="0" xMax="355" yMax="665">
      <component glyphName="Iota" x="0" y="0" flags="0x204"/>
      <component glyphName="grGrave.case" x="-216" y="0" flags="0x4"/>
    </TTGlyph>
    <TTGlyph name="Iotalenis" xMin="-174" yMin="0" xMax="355" yMax="666">
      <component glyphName="lenis.case" x="-185" y="0" flags="0x4"/>
      <component glyphName="Iota" x="0" y="0" flags="0x204"/>
    </TTGlyph>
    <TTGlyph name="Iotalenisacute" xMin="-340" yMin="0" xMax="355" yMax="666">
      <component glyphName="lenisacute.case" x="-222" y="0" flags="0x4"/>
      <component glyphName="Iota" x="0" y="0" flags="0x204"/>
    </TTGlyph>
    <TTGlyph name="Iotalenisgrave" xMin="-364" yMin="0" xMax="355" yMax="666">
      <component glyphName="Iota" x="0" y="0" flags="0x204"/>
      <component glyphName="lenisgrave.case" x="-235" y="0" flags="0x4"/>
    </TTGlyph>
    <TTGlyph name="Iotalenistilde" xMin="-393" yMin="0" xMax="355" yMax="675">
      <component glyphName="Iota" x="0" y="0" flags="0x204"/>
      <component glyphName="lenistilde.case" x="-221" y="0" flags="0x4"/>
    </TTGlyph>
    <TTGlyph name="Iotawithmacron" xMin="-5" yMin="0" xMax="404" yMax="831">
      <component glyphName="uni0304.case" x="189" y="0" flags="0x4"/>
      <component glyphName="Iota" x="0" y="0" flags="0x204"/>
    </TTGlyph>
    <TTGlyph name="Iotawithtonos" xMin="-185" yMin="0" xMax="355" yMax="664">
      <component glyphName="Iota" x="0" y="0" flags="0x204"/>
      <component glyphName="tonos.case" x="-185" y="0" flags="0x4"/>
    </TTGlyph>
    <TTGlyph name="J" xMin="-18" yMin="-186" xMax="362" yMax="658">
      <contour>
        <pt x="-18" y="-131" on="1"/>
        <pt x="13" y="-111" on="0"/>
        <pt x="66" y="-65" on="0"/>
        <pt x="104" y="-3" on="0"/>
        <pt x="125" y="82" on="0"/>
        <pt x="125" y="140" on="1"/>
        <pt x="125" y="594" on="1"/>
        <pt x="36" y="607" on="1"/>
        <pt x="37" y="658" on="1"/>
        <pt x="356" y="658" on="1"/>
        <pt x="362" y="626" on="1"/>
        <pt x="343" y="614" on="0"/>
        <pt x="299" y="594" on="0"/>
        <pt x="276" y="584" on="1"/>
        <pt x="276" y="129" on="1"/>
        <pt x="276" y="63" on="0"/>
        <pt x="236" y="-36" on="0"/>
        <pt x="167" y="-110" on="0"/>
        <pt x="71" y="-164" on="0"/>
        <pt x="17" y="-186" on="1"/>
      </contour>
    </TTGlyph>
    <TTGlyph name="K" xMin="26" yMin="0" xMax="710" yMax="658">
      <contour>
        <pt x="26" y="32" on="1"/>
        <pt x="45" y="44" on="0"/>
        <pt x="89" y="64" on="0"/>
        <pt x="111" y="73" on="1"/>
        <pt x="111" y="596" on="1"/>
        <pt x="33" y="607" on="1"/>
        <pt x="34" y="658" on="1"/>
        <pt x="341" y="658" on="1"/>
        <pt x="347" y="626" on="1"/>
        <pt x="328" y="615" on="0"/>
        <pt x="285" y="594" on="0"/>
        <pt x="263" y="585" on="1"/>
        <pt x="263" y="361" on="1"/>
        <pt x="484" y="597" on="1"/>
        <pt x="418" y="607" on="1"/>
        <pt x="419" y="658" on="1"/>
        <pt x="667" y="658" on="1"/>
        <pt x="673" y="626" on="1"/>
        <pt x="657" y="616" on="0"/>
        <pt x="612" y="597" on="0"/>
        <pt x="590" y="589" on="1"/>
        <pt x="403" y="391" on="1"/>
        <pt x="648" y="62" on="1"/>
        <pt x="710" y="52" on="1"/>
        <pt x="709" y="0" on="1"/>
        <pt x="508" y="0" on="1"/>
        <pt x="304" y="286" on="1"/>
        <pt x="263" y="243" on="1"/>
        <pt x="263" y="63" on="1"/>
        <pt x="347" y="51" on="1"/>
        <pt x="346" y="0" on="1"/>
        <pt x="32" y="0" on="1"/>
      </contour>
    </TTGlyph>
    <TTGlyph name="KORONIS" xMin="92" yMin="530" xMax="242" yMax="786">
      <component glyphName="lenis" x="0" y="0" flags="0x204"/>
    </TTGlyph>
    <TTGlyph name="Kappa" xMin="26" yMin="0" xMax="710" yMax="658">
      <component glyphName="K" x="0" y="0" flags="0x204"/>
    </TTGlyph>
    <TTGlyph name="Kcommaaccent" xMin="26" yMin="-298" xMax="710" yMax="658">
      <component glyphName="K" x="0" y="0" flags="0x204"/>
      <component glyphName="uni0326.case" x="387" y="0" flags="0x4"/>
    </TTGlyph>
    <TTGlyph name="L" xMin="26" yMin="0" xMax="589" yMax="658">
      <contour>
        <pt x="26" y="32" on="1"/>
        <pt x="45" y="44" on="0"/>
        <pt x="89" y="64" on="0"/>
        <pt x="111" y="73" on="1"/>
        <pt x="111" y="596" on="1"/>
        <pt x="34" y="607" on="1"/>
        <pt x="35" y="658" on="1"/>
        <pt x="341" y="658" on="1"/>
        <pt x="347" y="626" on="1"/>
        <pt x="328" y="615" on="0"/>
        <pt x="285" y="594" on="0"/>
        <pt x="263" y="585" on="1"/>
        <pt x="263" y="84" on="1"/>
        <pt x="463" y="100" on="1"/>
        <pt x="502" y="238" on="1"/>
        <pt x="589" y="230" on="1"/>
        <pt x="590" y="205" on="0"/>
        <pt x="589" y="144" on="0"/>
        <pt x="586" y="82" on="0"/>
        <pt x="580" y="23" on="0"/>
        <pt x="576" y="0" on="1"/>
        <pt x="575" y="0" on="1"/>
        <pt x="575" y="0" on="1"/>
        <pt x="32" y="0" on="1"/>
      </contour>
    </TTGlyph>
    <TTGlyph name="Lacute" xMin="26" yMin="0" xMax="589" yMax="898">
      <component glyphName="L" x="0" y="0" flags="0x204"/>
      <component glyphName="acutecomb.case" x="194" y="0" flags="0x4"/>
    </TTGlyph>
    <TTGlyph name="Lamda" xMin="-20" yMin="0" xMax="727" yMax="682">
      <contour>
        <pt x="-20" y="32" on="1"/>
        <pt x="-1" y="43" on="0"/>
        <pt x="42" y="64" on="0"/>
        <pt x="64" y="73" on="1"/>
        <pt x="284" y="614" on="1"/>
        <pt x="272" y="646" on="1"/>
        <pt x="403" y="682" on="1"/>
        <pt x="655" y="61" on="1"/>
        <pt x="727" y="51" on="1"/>
        <pt x="726" y="0" on="1"/>
        <pt x="411" y="0" on="1"/>
        <pt x="405" y="32" on="1"/>
        <pt x="424" y="44" on="0"/>
        <pt x="468" y="64" on="0"/>
        <pt x="491" y="74" on="1"/>
        <pt x="331" y="493" on="1"/>
        <pt x="168" y="64" on="1"/>
        <pt x="260" y="51" on="1"/>
        <pt x="259" y="0" on="1"/>
        <pt x="-14" y="0" on="1"/>
      </contour>
    </TTGlyph>
    <TTGlyph name="Lcaron" xMin="26" yMin="0" xMax="589" yMax="760">
      <component glyphName="L" x="0" y="0" flags="0x204"/>
      <component glyphName="uni030C.calt" x="438" y="1" flags="0x4"/>
    </TTGlyph>
    <TTGlyph name="Lcommaaccent" xMin="26" yMin="-298" xMax="589" yMax="658">
      <component glyphName="L" x="0" y="0" flags="0x204"/>
      <component glyphName="uni0326.case" x="302" y="0" flags="0x4"/>
    </TTGlyph>
    <TTGlyph name="Lslash" xMin="26" yMin="0" xMax="605" yMax="658">
      <contour>
        <pt x="42" y="32" on="1"/>
        <pt x="61" y="44" on="0"/>
        <pt x="105" y="64" on="0"/>
        <pt x="127" y="73" on="1"/>
        <pt x="127" y="246" on="1"/>
        <pt x="56" y="210" on="1"/>
        <pt x="26" y="271" on="1"/>
        <pt x="127" y="322" on="1"/>
        <pt x="127" y="596" on="1"/>
        <pt x="50" y="607" on="1"/>
        <pt x="51" y="658" on="1"/>
        <pt x="357" y="658" on="1"/>
        <pt x="363" y="626" on="1"/>
        <pt x="344" y="615" on="0"/>
        <pt x="301" y="594" on="0"/>
        <pt x="279" y="585" on="1"/>
        <pt x="279" y="399" on="1"/>
        <pt x="400" y="460" on="1"/>
        <pt x="417" y="436" on="1"/>
        <pt x="403" y="384" on="1"/>
        <pt x="279" y="322" on="1"/>
        <pt x="279" y="84" on="1"/>
        <pt x="479" y="100" on="1"/>
        <pt x="518" y="238" on="1"/>
        <pt x="605" y="230" on="1"/>
        <pt x="606" y="205" on="0"/>
        <pt x="605" y="144" on="0"/>
        <pt x="602" y="82" on="0"/>
        <pt x="596" y="23" on="0"/>
        <pt x="592" y="0" on="1"/>
        <pt x="591" y="0" on="1"/>
        <pt x="591" y="0" on="1"/>
        <pt x="48" y="0" on="1"/>
      </contour>
    </TTGlyph>
    <TTGlyph name="M" xMin="26" yMin="-7" xMax="929" yMax="650">
      <contour>
        <pt x="26" y="32" on="1"/>
        <pt x="45" y="44" on="0"/>
        <pt x="91" y="65" on="0"/>
        <pt x="115" y="75" on="1"/>
        <pt x="129" y="586" on="1"/>
        <pt x="47" y="603" on="1"/>
        <pt x="48" y="650" on="1"/>
        <pt x="312" y="650" on="1"/>
        <pt x="311" y="649" on="1"/>
        <pt x="488" y="156" on="1"/>
        <pt x="669" y="650" on="1"/>
        <pt x="902" y="650" on="1"/>
        <pt x="908" y="618" on="1"/>
        <pt x="890" y="607" on="0"/>
        <pt x="848" y="587" on="0"/>
        <pt x="826" y="578" on="1"/>
        <pt x="835" y="66" on="1"/>
        <pt x="929" y="47" on="1"/>
        <pt x="928" y="0" on="1"/>
        <pt x="610" y="0" on="1"/>
        <pt x="604" y="32" on="1"/>
        <pt x="623" y="44" on="0"/>
        <pt x="667" y="64" on="0"/>
        <pt x="689" y="73" on="1"/>
        <pt x="686" y="342" on="1"/>
        <pt x="700" y="513" on="1"/>
        <pt x="515" y="16" on="1"/>
        <pt x="400" y="-7" on="1"/>
        <pt x="214" y="508" on="1"/>
        <pt x="230" y="342" on="1"/>
        <pt x="225" y="64" on="1"/>
        <pt x="309" y="47" on="1"/>
        <pt x="308" y="0" on="1"/>
        <pt x="32" y="0" on="1"/>
      </contour>
    </TTGlyph>
    <TTGlyph name="Mu" xMin="26" yMin="-7" xMax="929" yMax="650">
      <component glyphName="M" x="0" y="0" flags="0x204"/>
    </TTGlyph>
    <TTGlyph name="N" xMin="26" yMin="-13" xMax="747" yMax="658">
      <contour>
        <pt x="26" y="32" on="1"/>
        <pt x="45" y="44" on="0"/>
        <pt x="89" y="64" on="0"/>
        <pt x="111" y="73" on="1"/>
        <pt x="111" y="596" on="1"/>
        <pt x="41" y="607" on="1"/>
        <pt x="42" y="658" on="1"/>
        <pt x="264" y="658" on="1"/>
        <pt x="263" y="657" on="1"/>
        <pt x="572" y="174" on="1"/>
        <pt x="557" y="301" on="1"/>
        <pt x="557" y="593" on="1"/>
        <pt x="460" y="607" on="1"/>
        <pt x="461" y="658" on="1"/>
        <pt x="741" y="658" on="1"/>
        <pt x="747" y="626" on="1"/>
        <pt x="729" y="615" on="0"/>
        <pt x="688" y="595" on="0"/>
        <pt x="666" y="586" on="1"/>
        <pt x="662" y="0" on="1"/>
        <pt x="521" y="-13" on="1"/>
        <pt x="205" y="472" on="1"/>
        <pt x="220" y="349" on="1"/>
        <pt x="220" y="64" on="1"/>
        <pt x="308" y="51" on="1"/>
        <pt x="307" y="0" on="1"/>
        <pt x="32" y="0" on="1"/>
      </contour>
    </TTGlyph>
    <TTGlyph name="Nacute" xMin="26" yMin="-13" xMax="747" yMax="898">
      <component glyphName="N" x="0" y="0" flags="0x204"/>
      <component glyphName="acutecomb.case" x="366" y="0" flags="0x4"/>
    </TTGlyph>
    <TTGlyph name="Ncaron" xMin="26" yMin="-13" xMax="747" yMax="906">
      <component glyphName="N" x="0" y="0" flags="0x204"/>
      <component glyphName="uni030C.case" x="368" y="70" flags="0x4"/>
    </TTGlyph>
    <TTGlyph name="Ncommaaccent" xMin="26" yMin="-298" xMax="747" yMax="658">
      <component glyphName="N" x="0" y="0" flags="0x204"/>
      <component glyphName="uni0326.case" x="389" y="0" flags="0x4"/>
    </TTGlyph>
    <TTGlyph name="Ntilde" xMin="26" yMin="-13" xMax="747" yMax="889">
      <component glyphName="N" x="0" y="0" flags="0x204"/>
      <component glyphName="tildecomb.case" x="368" y="0" flags="0x4"/>
    </TTGlyph>
    <TTGlyph name="Nu" xMin="26" yMin="-13" xMax="747" yMax="658">
      <component glyphName="N" x="0" y="0" flags="0x204"/>
    </TTGlyph>
    <TTGlyph name="O" xMin="14" yMin="-20" xMax="661" yMax="678">
      <contour>
        <pt x="342" y="-20" on="1"/>
        <pt x="279" y="-20" on="0"/>
        <pt x="160" y="24" on="0"/>
        <pt x="69" y="110" on="0"/>
        <pt x="14" y="240" on="0"/>
        <pt x="14" y="325" on="1"/>
        <pt x="14" y="405" on="0"/>
        <pt x="64" y="536" on="0"/>
        <pt x="149" y="628" on="0"/>
        <pt x="267" y="678" on="0"/>
        <pt x="334" y="678" on="1"/>
        <pt x="399" y="678" on="0"/>
        <pt x="518" y="630" on="0"/>
        <pt x="608" y="539" on="0"/>
        <pt x="661" y="405" on="0"/>
        <pt x="661" y="320" on="1"/>
        <pt x="661" y="235" on="0"/>
        <pt x="607" y="106" on="0"/>
        <pt x="519" y="22" on="0"/>
        <pt x="403" y="-20" on="0"/>
      </contour>
      <contour>
        <pt x="359" y="68" on="1"/>
        <pt x="375" y="68" on="0"/>
        <pt x="402" y="73" on="0"/>
        <pt x="416" y="77" on="1"/>
        <pt x="453" y="107" on="0"/>
        <pt x="500" y="236" on="0"/>
        <pt x="500" y="317" on="1"/>
        <pt x="500" y="369" on="0"/>
        <pt x="479" y="468" on="0"/>
        <pt x="435" y="544" on="0"/>
        <pt x="367" y="590" on="0"/>
        <pt x="321" y="590" on="1"/>
        <pt x="304" y="590" on="0"/>
        <pt x="267" y="583" on="0"/>
        <pt x="248" y="576" on="1"/>
        <pt x="216" y="548" on="0"/>
        <pt x="174" y="423" on="0"/>
        <pt x="174" y="343" on="1"/>
        <pt x="174" y="286" on="0"/>
        <pt x="197" y="185" on="0"/>
        <pt x="243" y="111" on="0"/>
        <pt x="313" y="68" on="0"/>
      </contour>
    </TTGlyph>
    <TTGlyph name="OE" xMin="14" yMin="-15" xMax="898" yMax="674">
      <contour>
        <pt x="347" y="-15" on="1"/>
        <pt x="286" y="-15" on="0"/>
        <pt x="166" y="26" on="0"/>
        <pt x="72" y="110" on="0"/>
        <pt x="14" y="242" on="0"/>
        <pt x="14" y="332" on="1"/>
        <pt x="14" y="418" on="0"/>
        <pt x="75" y="547" on="0"/>
        <pt x="173" y="632" on="0"/>
        <pt x="297" y="674" on="0"/>
        <pt x="360" y="674" on="1"/>
        <pt x="388" y="674" on="0"/>
        <pt x="444" y="666" on="0"/>
        <pt x="470" y="658" on="1"/>
        <pt x="890" y="658" on="1"/>
        <pt x="891" y="643" on="0"/>
        <pt x="890" y="598" on="0"/>
        <pt x="886" y="547" on="0"/>
        <pt x="879" y="492" on="0"/>
        <pt x="874" y="468" on="1"/>
        <pt x="790" y="468" on="1"/>
        <pt x="773" y="565" on="1"/>
        <pt x="589" y="575" on="1"/>
        <pt x="589" y="365" on="1"/>
        <pt x="800" y="382" on="1"/>
        <pt x="800" y="281" on="1"/>
        <pt x="589" y="290" on="1"/>
        <pt x="589" y="87" on="1"/>
        <pt x="781" y="97" on="1"/>
        <pt x="814" y="205" on="1"/>
        <pt x="898" y="199" on="1"/>
        <pt x="899" y="178" on="0"/>
        <pt x="897" y="126" on="0"/>
        <pt x="894" y="72" on="0"/>
        <pt x="889" y="20" on="0"/>
        <pt x="886" y="0" on="1"/>
        <pt x="459" y="0" on="1"/>
        <pt x="432" y="-8" on="0"/>
        <pt x="375" y="-15" on="0"/>
      </contour>
      <contour>
        <pt x="169" y="333" on="1"/>
        <pt x="169" y="283" on="0"/>
        <pt x="191" y="189" on="0"/>
        <pt x="237" y="117" on="0"/>
        <pt x="307" y="73" on="0"/>
        <pt x="356" y="73" on="1"/>
        <pt x="377" y="73" on="0"/>
        <pt x="419" y="81" on="0"/>
        <pt x="437" y="88" on="1"/>
        <pt x="437" y="567" on="1"/>
        <pt x="415" y="576" on="0"/>
        <pt x="366" y="584" on="0"/>
        <pt x="342" y="584" on="1"/>
        <pt x="320" y="584" on="0"/>
        <pt x="275" y="578" on="0"/>
        <pt x="255" y="571" on="1"/>
        <pt x="214" y="538" on="0"/>
        <pt x="169" y="406" on="0"/>
      </contour>
    </TTGlyph>
    <TTGlyph name="Oacute" xMin="14" yMin="-20" xMax="661" yMax="898">
      <component glyphName="O" x="0" y="0" flags="0x204"/>
      <component glyphName="acutecomb.case" x="336" y="0" flags="0x4"/>
    </TTGlyph>
    <TTGlyph name="Ocircumflex" xMin="14" yMin="-20" xMax="661" yMax="909">
      <component glyphName="O" x="0" y="0" flags="0x204"/>
      <component glyphName="uni0302.case" x="338" y="70" flags="0x4"/>
    </TTGlyph>
    <TTGlyph name="Odieresis" xMin="14" yMin="-20" xMax="661" yMax="898">
      <component glyphName="O" x="0" y="0" flags="0x204"/>
      <component glyphName="uni0308.case" x="337" y="179" flags="0x4"/>
    </TTGlyph>
    <TTGlyph name="Ograve" xMin="14" yMin="-20" xMax="661" yMax="898">
      <component glyphName="O" x="0" y="0" flags="0x204"/>
      <component glyphName="gravecomb.case" x="338" y="0" flags="0x4"/>
    </TTGlyph>
    <TTGlyph name="Ohungarumlaut" xMin="14" yMin="-20" xMax="661" yMax="928">
      <component glyphName="O" x="0" y="0" flags="0x204"/>
      <component glyphName="uni030B.case" x="338" y="179" flags="0x4"/>
    </TTGlyph>
    <TTGlyph name="Omacron" xMin="14" yMin="-20" xMax="661" yMax="831">
      <component glyphName="O" x="0" y="0" flags="0x204"/>
      <component glyphName="uni0304.case" x="336" y="0" flags="0x4"/>
    </TTGlyph>
    <TTGlyph name="Omega" xMin="14" yMin="0" xMax="789" yMax="678">
      <contour>
        <pt x="27" y="0" on="1"/>
        <pt x="24" y="23" on="0"/>
        <pt x="19" y="77" on="0"/>
        <pt x="16" y="130" on="0"/>
        <pt x="14" y="180" on="0"/>
        <pt x="15" y="199" on="1"/>
        <pt x="84" y="205" on="1"/>
        <pt x="117" y="97" on="1"/>
        <pt x="256" y="86" on="1"/>
        <pt x="174" y="130" on="0"/>
        <pt x="78" y="282" on="0"/>
        <pt x="78" y="370" on="1"/>
        <pt x="78" y="436" on="0"/>
        <pt x="127" y="549" on="0"/>
        <pt x="212" y="631" on="0"/>
        <pt x="331" y="678" on="0"/>
        <pt x="400" y="678" on="1"/>
        <pt x="468" y="678" on="0"/>
        <pt x="587" y="632" on="0"/>
        <pt x="673" y="552" on="0"/>
        <pt x="722" y="442" on="0"/>
        <pt x="722" y="379" on="1"/>
        <pt x="722" y="296" on="0"/>
        <pt x="627" y="138" on="0"/>
        <pt x="551" y="85" on="1"/>
        <pt x="687" y="96" on="1"/>
        <pt x="720" y="205" on="1"/>
        <pt x="789" y="199" on="1"/>
        <pt x="790" y="180" on="0"/>
        <pt x="789" y="130" on="0"/>
        <pt x="786" y="77" on="0"/>
        <pt x="780" y="23" on="0"/>
        <pt x="777" y="0" on="1"/>
        <pt x="458" y="0" on="1"/>
        <pt x="436" y="68" on="1"/>
        <pt x="499" y="132" on="0"/>
        <pt x="560" y="272" on="0"/>
        <pt x="560" y="356" on="1"/>
        <pt x="560" y="460" on="0"/>
        <pt x="461" y="590" on="0"/>
        <pt x="382" y="590" on="1"/>
        <pt x="363" y="590" on="0"/>
        <pt x="327" y="583" on="0"/>
        <pt x="309" y="576" on="1"/>
        <pt x="278" y="548" on="0"/>
        <pt x="240" y="446" on="0"/>
        <pt x="240" y="380" on="1"/>
        <pt x="240" y="289" on="0"/>
        <pt x="302" y="135" on="0"/>
        <pt x="369" y="68" on="1"/>
        <pt x="347" y="0" on="1"/>
        <pt x="28" y="0" on="1"/>
        <pt x="28" y="0" on="1"/>
      </contour>
    </TTGlyph>
    <TTGlyph name="Omegaacute" xMin="-102" yMin="0" xMax="789" yMax="678">
      <component glyphName="Omega" x="0" y="0" flags="0x204"/>
      <component glyphName="grAcute.case" x="-101" y="0" flags="0x4"/>
    </TTGlyph>
    <TTGlyph name="Omegaasper" xMin="-93" yMin="0" xMax="789" yMax="678">
      <component glyphName="Omega" x="0" y="0" flags="0x204"/>
      <component glyphName="asper.case" x="-125" y="0" flags="0x4"/>
    </TTGlyph>
    <TTGlyph name="Omegaasperacute" xMin="-270" yMin="0" xMax="789" yMax="678">
      <component glyphName="asperacute.case" x="-199" y="0" flags="0x4"/>
      <component glyphName="Omega" x="0" y="0" flags="0x204"/>
    </TTGlyph>
    <TTGlyph name="Omegaasperacuteiotasub" xMin="-270" yMin="-224" xMax="789" yMax="678">
      <component glyphName="asperacute.case" x="-199" y="0" flags="0x4"/>
      <component glyphName="Omega" x="0" y="0" flags="0x204"/>
      <component glyphName="iotaadscript.case" x="289" y="0" flags="0x4"/>
    </TTGlyph>
    <TTGlyph name="Omegaaspergrave" xMin="-277" yMin="0" xMax="789" yMax="678">
      <component glyphName="aspergrave.case" x="-203" y="0" flags="0x4"/>
      <component glyphName="Omega" x="0" y="0" flags="0x204"/>
    </TTGlyph>
    <TTGlyph name="Omegaaspergraveiotasub" xMin="-277" yMin="-224" xMax="789" yMax="678">
      <component glyphName="aspergrave.case" x="-203" y="0" flags="0x4"/>
      <component glyphName="Omega" x="0" y="0" flags="0x204"/>
      <component glyphName="iotaadscript.case" x="289" y="0" flags="0x4"/>
    </TTGlyph>
    <TTGlyph name="Omegaasperiotasub" xMin="-93" yMin="-224" xMax="789" yMax="678">
      <component glyphName="Omega" x="0" y="0" flags="0x204"/>
      <component glyphName="iotaadscript.case" x="289" y="0" flags="0x4"/>
      <component glyphName="asper.case" x="-125" y="0" flags="0x4"/>
    </TTGlyph>
    <TTGlyph name="Omegaaspertilde" xMin="-309" yMin="0" xMax="789" yMax="678">
      <component glyphName="aspertilde.case" x="-137" y="0" flags="0x4"/>
      <component glyphName="Omega" x="0" y="0" flags="0x204"/>
    </TTGlyph>
    <TTGlyph name="Omegaaspertildeiotasub" xMin="-309" yMin="-224" xMax="789" yMax="678">
      <component glyphName="aspertilde.case" x="-137" y="0" flags="0x4"/>
      <component glyphName="Omega" x="0" y="0" flags="0x204"/>
      <component glyphName="iotaadscript.case" x="289" y="0" flags="0x4"/>
    </TTGlyph>
    <TTGlyph name="Omegagrave" xMin="-107" yMin="0" xMax="789" yMax="678">
      <component glyphName="Omega" x="0" y="0" flags="0x204"/>
      <component glyphName="grGrave.case" x="-132" y="0" flags="0x4"/>
    </TTGlyph>
    <TTGlyph name="Omegaiotasub" xMin="14" yMin="-224" xMax="789" yMax="678">
      <component glyphName="Omega" x="0" y="0" flags="0x204"/>
      <component glyphName="iotaadscript.case" x="289" y="0" flags="0x4"/>
    </TTGlyph>
    <TTGlyph name="Omegalenis" xMin="-90" yMin="0" xMax="789" yMax="678">
      <component glyphName="lenis.case" x="-101" y="0" flags="0x4"/>
      <component glyphName="Omega" x="0" y="0" flags="0x204"/>
    </TTGlyph>
    <TTGlyph name="Omegalenisacute" xMin="-256" yMin="0" xMax="789" yMax="678">
      <component glyphName="Omega" x="0" y="0" flags="0x204"/>
      <component glyphName="lenisacute.case" x="-138" y="0" flags="0x4"/>
    </TTGlyph>
    <TTGlyph name="Omegalenisacuteiotasub" xMin="-256" yMin="-224" xMax="789" yMax="678">
      <component glyphName="Omega" x="0" y="0" flags="0x204"/>
      <component glyphName="lenisacute.case" x="-138" y="0" flags="0x4"/>
      <component glyphName="iotaadscript.case" x="289" y="0" flags="0x4"/>
    </TTGlyph>
    <TTGlyph name="Omegalenisgrave" xMin="-280" yMin="0" xMax="789" yMax="678">
      <component glyphName="Omega" x="0" y="0" flags="0x204"/>
      <component glyphName="lenisgrave.case" x="-151" y="0" flags="0x4"/>
    </TTGlyph>
    <TTGlyph name="Omegalenisgraveiotasub" xMin="-280" yMin="-224" xMax="789" yMax="678">
      <component glyphName="Omega" x="0" y="0" flags="0x204"/>
      <component glyphName="lenisgrave.case" x="-151" y="0" flags="0x4"/>
      <component glyphName="iotaadscript.case" x="289" y="0" flags="0x4"/>
    </TTGlyph>
    <TTGlyph name="Omegalenisiotasub" xMin="-90" yMin="-224" xMax="789" yMax="678">
      <component glyphName="lenis.case" x="-101" y="0" flags="0x4"/>
      <component glyphName="Omega" x="0" y="0" flags="0x204"/>
      <component glyphName="iotaadscript.case" x="289" y="0" flags="0x4"/>
    </TTGlyph>
    <TTGlyph name="Omegalenistilde" xMin="-309" yMin="0" xMax="789" yMax="678">
      <component glyphName="Omega" x="0" y="0" flags="0x204"/>
      <component glyphName="lenistilde.case" x="-137" y="0" flags="0x4"/>
    </TTGlyph>
    <TTGlyph name="Omegalenistildeiotasub" xMin="-309" yMin="-224" xMax="789" yMax="678">
      <component glyphName="Omega" x="0" y="0" flags="0x204"/>
      <component glyphName="lenistilde.case" x="-137" y="0" flags="0x4"/>
      <component glyphName="iotaadscript.case" x="289" y="0" flags="0x4"/>
    </TTGlyph>
    <TTGlyph name="Omegawithtonos" xMin="-101" yMin="0" xMax="789" yMax="678">
      <component glyphName="Omega" x="0" y="0" flags="0x204"/>
      <component glyphName="tonos.case" x="-101" y="0" flags="0x4"/>
    </TTGlyph>
    <TTGlyph name="Omicron" xMin="14" yMin="-20" xMax="661" yMax="678">
      <component glyphName="O" x="0" y="0" flags="0x204"/>
    </TTGlyph>
    <TTGlyph name="Omicronacute" xMin="-158" yMin="-20" xMax="661" yMax="678">
      <component glyphName="Omicron" x="0" y="0" flags="0x204"/>
      <component glyphName="grAcute.case" x="-157" y="0" flags="0x4"/>
    </TTGlyph>
    <TTGlyph name="Omicronasper" xMin="-148" yMin="-20" xMax="661" yMax="678">
      <component glyphName="Omicron" x="0" y="0" flags="0x204"/>
      <component glyphName="asper.case" x="-180" y="0" flags="0x4"/>
    </TTGlyph>
    <TTGlyph name="Omicronasperacute" xMin="-326" yMin="-20" xMax="661" yMax="678">
      <component glyphName="asperacute.case" x="-255" y="0" flags="0x4"/>
      <component glyphName="Omicron" x="0" y="0" flags="0x204"/>
    </TTGlyph>
    <TTGlyph name="Omicronaspergrave" xMin="-338" yMin="-20" xMax="661" yMax="678">
      <component glyphName="aspergrave.case" x="-264" y="0" flags="0x4"/>
      <component glyphName="Omicron" x="0" y="0" flags="0x204"/>
    </TTGlyph>
    <TTGlyph name="Omicrongrave" xMin="-163" yMin="-20" xMax="661" yMax="678">
      <component glyphName="Omicron" x="0" y="0" flags="0x204"/>
      <component glyphName="grGrave.case" x="-188" y="0" flags="0x4"/>
    </TTGlyph>
    <TTGlyph name="Omicronlenis" xMin="-146" yMin="-20" xMax="661" yMax="678">
      <component glyphName="Omicron" x="0" y="0" flags="0x204"/>
      <component glyphName="lenis.case" x="-157" y="0" flags="0x4"/>
    </TTGlyph>
    <TTGlyph name="Omicronlenisacute" xMin="-312" yMin="-20" xMax="661" yMax="678">
      <component glyphName="Omicron" x="0" y="0" flags="0x204"/>
      <component glyphName="lenisacute.case" x="-194" y="0" flags="0x4"/>
    </TTGlyph>
    <TTGlyph name="Omicronlenisgrave" xMin="-336" yMin="-20" xMax="661" yMax="678">
      <component glyphName="Omicron" x="0" y="0" flags="0x204"/>
      <component glyphName="lenisgrave.case" x="-207" y="0" flags="0x4"/>
    </TTGlyph>
    <TTGlyph name="Omicronwithtonos" xMin="-157" yMin="-20" xMax="661" yMax="678">
      <component glyphName="Omicron" x="0" y="0" flags="0x204"/>
      <component glyphName="tonos.case" x="-157" y="0" flags="0x4"/>
    </TTGlyph>
    <TTGlyph name="Oslash" xMin="14" yMin="-87" xMax="661" yMax="740">
      <contour>
        <pt x="107" y="-49" on="1"/>
        <pt x="153" y="36" on="1"/>
        <pt x="92" y="77" on="0"/>
        <pt x="14" y="223" on="0"/>
        <pt x="14" y="325" on="1"/>
        <pt x="14" y="405" on="0"/>
        <pt x="64" y="536" on="0"/>
        <pt x="149" y="628" on="0"/>
        <pt x="267" y="678" on="0"/>
        <pt x="334" y="678" on="1"/>
        <pt x="373" y="678" on="0"/>
        <pt x="447" y="661" on="0"/>
        <pt x="480" y="644" on="1"/>
        <pt x="532" y="740" on="1"/>
        <pt x="601" y="700" on="1"/>
        <pt x="547" y="600" on="1"/>
        <pt x="598" y="554" on="0"/>
        <pt x="661" y="413" on="0"/>
        <pt x="661" y="320" on="1"/>
        <pt x="661" y="235" on="0"/>
        <pt x="607" y="106" on="0"/>
        <pt x="519" y="22" on="0"/>
        <pt x="403" y="-20" on="0"/>
        <pt x="342" y="-20" on="1"/>
        <pt x="311" y="-20" on="0"/>
        <pt x="252" y="-10" on="0"/>
        <pt x="224" y="0" on="1"/>
        <pt x="177" y="-87" on="1"/>
      </contour>
      <contour>
        <pt x="174" y="343" on="1"/>
        <pt x="174" y="289" on="0"/>
        <pt x="195" y="191" on="0"/>
        <pt x="216" y="154" on="1"/>
        <pt x="427" y="545" on="1"/>
        <pt x="407" y="566" on="0"/>
        <pt x="354" y="590" on="0"/>
        <pt x="321" y="590" on="1"/>
        <pt x="304" y="590" on="0"/>
        <pt x="267" y="583" on="0"/>
        <pt x="248" y="576" on="1"/>
        <pt x="216" y="548" on="0"/>
        <pt x="174" y="423" on="0"/>
      </contour>
      <contour>
        <pt x="359" y="68" on="1"/>
        <pt x="375" y="68" on="0"/>
        <pt x="402" y="73" on="0"/>
        <pt x="416" y="77" on="1"/>
        <pt x="453" y="107" on="0"/>
        <pt x="500" y="236" on="0"/>
        <pt x="500" y="317" on="1"/>
        <pt x="500" y="357" on="0"/>
        <pt x="488" y="433" on="0"/>
        <pt x="475" y="466" on="1"/>
        <pt x="274" y="92" on="1"/>
        <pt x="292" y="81" on="0"/>
        <pt x="334" y="68" on="0"/>
      </contour>
    </TTGlyph>
    <TTGlyph name="Otilde" xMin="14" yMin="-20" xMax="661" yMax="889">
      <component glyphName="O" x="0" y="0" flags="0x204"/>
      <component glyphName="tildecomb.case" x="338" y="0" flags="0x4"/>
    </TTGlyph>
    <TTGlyph name="P" xMin="26" yMin="0" xMax="616" yMax="666">
      <contour>
        <pt x="26" y="32" on="1"/>
        <pt x="44" y="43" on="0"/>
        <pt x="85" y="63" on="0"/>
        <pt x="107" y="72" on="1"/>
        <pt x="107" y="598" on="1"/>
        <pt x="33" y="607" on="1"/>
        <pt x="34" y="658" on="1"/>
        <pt x="357" y="666" on="1"/>
        <pt x="421" y="666" on="0"/>
        <pt x="518" y="629" on="0"/>
        <pt x="583" y="569" on="0"/>
        <pt x="616" y="490" on="0"/>
        <pt x="616" y="449" on="1"/>
        <pt x="616" y="406" on="0"/>
        <pt x="581" y="329" on="0"/>
        <pt x="517" y="272" on="0"/>
        <pt x="424" y="238" on="0"/>
        <pt x="366" y="238" on="1"/>
        <pt x="259" y="237" on="1"/>
        <pt x="259" y="68" on="1"/>
        <pt x="379" y="51" on="1"/>
        <pt x="378" y="0" on="1"/>
        <pt x="32" y="0" on="1"/>
      </contour>
      <contour>
        <pt x="398" y="588" on="1"/>
        <pt x="259" y="573" on="1"/>
        <pt x="259" y="326" on="1"/>
        <pt x="281" y="322" on="0"/>
        <pt x="323" y="318" on="0"/>
        <pt x="336" y="318" on="1"/>
        <pt x="368" y="318" on="0"/>
        <pt x="415" y="341" on="0"/>
        <pt x="445" y="377" on="0"/>
        <pt x="459" y="426" on="0"/>
        <pt x="459" y="451" on="1"/>
        <pt x="459" y="491" on="0"/>
        <pt x="429" y="571" on="0"/>
      </contour>
    </TTGlyph>
    <TTGlyph name="Phi" xMin="14" yMin="-14" xMax="733" yMax="673">
      <contour>
        <pt x="215" y="18" on="1"/>
        <pt x="232" y="29" on="0"/>
        <pt x="276" y="50" on="0"/>
        <pt x="305" y="61" on="1"/>
        <pt x="305" y="92" on="1"/>
        <pt x="170" y="97" on="0"/>
        <pt x="14" y="222" on="0"/>
        <pt x="14" y="325" on="1"/>
        <pt x="14" y="432" on="0"/>
        <pt x="170" y="565" on="0"/>
        <pt x="305" y="573" on="1"/>
        <pt x="305" y="610" on="1"/>
        <pt x="223" y="622" on="1"/>
        <pt x="224" y="673" on="1"/>
        <pt x="526" y="673" on="1"/>
        <pt x="532" y="641" on="1"/>
        <pt x="515" y="631" on="0"/>
        <pt x="471" y="609" on="0"/>
        <pt x="442" y="598" on="1"/>
        <pt x="442" y="573" on="1"/>
        <pt x="577" y="568" on="0"/>
        <pt x="733" y="443" on="0"/>
        <pt x="733" y="340" on="1"/>
        <pt x="733" y="233" on="0"/>
        <pt x="577" y="100" on="0"/>
        <pt x="442" y="92" on="1"/>
        <pt x="442" y="51" on="1"/>
        <pt x="540" y="37" on="1"/>
        <pt x="539" y="-14" on="1"/>
        <pt x="221" y="-14" on="1"/>
      </contour>
      <contour>
        <pt x="165" y="336" on="1"/>
        <pt x="165" y="263" on="0"/>
        <pt x="239" y="171" on="0"/>
        <pt x="305" y="160" on="1"/>
        <pt x="305" y="506" on="1"/>
        <pt x="281" y="505" on="0"/>
        <pt x="237" y="493" on="0"/>
        <pt x="221" y="486" on="1"/>
        <pt x="195" y="462" on="0"/>
        <pt x="165" y="382" on="0"/>
      </contour>
      <contour>
        <pt x="582" y="328" on="1"/>
        <pt x="582" y="402" on="0"/>
        <pt x="508" y="493" on="0"/>
        <pt x="442" y="504" on="1"/>
        <pt x="442" y="158" on="1"/>
        <pt x="466" y="159" on="0"/>
        <pt x="510" y="171" on="0"/>
        <pt x="526" y="178" on="1"/>
        <pt x="552" y="203" on="0"/>
        <pt x="582" y="282" on="0"/>
      </contour>
    </TTGlyph>
    <TTGlyph name="Pi" xMin="26" yMin="0" xMax="769" yMax="658">
      <contour>
        <pt x="26" y="32" on="1"/>
        <pt x="45" y="44" on="0"/>
        <pt x="89" y="64" on="0"/>
        <pt x="111" y="73" on="1"/>
        <pt x="111" y="596" on="1"/>
        <pt x="34" y="607" on="1"/>
        <pt x="35" y="658" on="1"/>
        <pt x="755" y="658" on="1"/>
        <pt x="761" y="626" on="1"/>
        <pt x="742" y="614" on="0"/>
        <pt x="699" y="594" on="0"/>
        <pt x="676" y="585" on="1"/>
        <pt x="676" y="64" on="1"/>
        <pt x="769" y="51" on="1"/>
        <pt x="768" y="0" on="1"/>
        <pt x="446" y="0" on="1"/>
        <pt x="440" y="32" on="1"/>
        <pt x="459" y="44" on="0"/>
        <pt x="502" y="64" on="0"/>
        <pt x="525" y="73" on="1"/>
        <pt x="525" y="575" on="1"/>
        <pt x="263" y="575" on="1"/>
        <pt x="263" y="64" on="1"/>
        <pt x="356" y="51" on="1"/>
        <pt x="355" y="0" on="1"/>
        <pt x="32" y="0" on="1"/>
      </contour>
    </TTGlyph>
    <TTGlyph name="Psi" xMin="0" yMin="0" xMax="902" yMax="666">
      <contour>
        <pt x="289" y="32" on="1"/>
        <pt x="306" y="42" on="0"/>
        <pt x="347" y="63" on="0"/>
        <pt x="375" y="74" on="1"/>
        <pt x="375" y="205" on="1"/>
        <pt x="270" y="216" on="0"/>
        <pt x="146" y="324" on="0"/>
        <pt x="126" y="420" on="1"/>
        <pt x="93" y="579" on="1"/>
        <pt x="9" y="579" on="1"/>
        <pt x="0" y="622" on="1"/>
        <pt x="28" y="643" on="0"/>
        <pt x="94" y="666" on="0"/>
        <pt x="125" y="666" on="1"/>
        <pt x="171" y="666" on="0"/>
        <pt x="230" y="615" on="0"/>
        <pt x="239" y="567" on="1"/>
        <pt x="259" y="457" on="1"/>
        <pt x="275" y="374" on="0"/>
        <pt x="329" y="291" on="0"/>
        <pt x="375" y="278" on="1"/>
        <pt x="375" y="596" on="1"/>
        <pt x="298" y="607" on="1"/>
        <pt x="299" y="658" on="1"/>
        <pt x="603" y="658" on="1"/>
        <pt x="609" y="626" on="1"/>
        <pt x="587" y="614" on="0"/>
        <pt x="549" y="595" on="0"/>
        <pt x="527" y="585" on="1"/>
        <pt x="527" y="273" on="1"/>
        <pt x="545" y="276" on="0"/>
        <pt x="574" y="286" on="0"/>
        <pt x="588" y="295" on="1"/>
        <pt x="602" y="308" on="0"/>
        <pt x="637" y="404" on="0"/>
        <pt x="647" y="457" on="1"/>
        <pt x="668" y="567" on="1"/>
        <pt x="677" y="615" on="0"/>
        <pt x="733" y="666" on="0"/>
        <pt x="777" y="666" on="1"/>
        <pt x="808" y="666" on="0"/>
        <pt x="874" y="643" on="0"/>
        <pt x="902" y="622" on="1"/>
        <pt x="893" y="579" on="1"/>
        <pt x="809" y="579" on="1"/>
        <pt x="776" y="421" on="1"/>
        <pt x="756" y="325" on="0"/>
        <pt x="632" y="218" on="0"/>
        <pt x="527" y="205" on="1"/>
        <pt x="527" y="64" on="1"/>
        <pt x="620" y="51" on="1"/>
        <pt x="619" y="0" on="1"/>
        <pt x="295" y="0" on="1"/>
      </contour>
    </TTGlyph>
    <TTGlyph name="Q" xMin="14" yMin="-182" xMax="743" yMax="678">
      <contour>
        <pt x="342" y="-20" on="1"/>
        <pt x="279" y="-20" on="0"/>
        <pt x="160" y="24" on="0"/>
        <pt x="69" y="110" on="0"/>
        <pt x="14" y="240" on="0"/>
        <pt x="14" y="325" on="1"/>
        <pt x="14" y="405" on="0"/>
        <pt x="64" y="536" on="0"/>
        <pt x="149" y="628" on="0"/>
        <pt x="267" y="678" on="0"/>
        <pt x="334" y="678" on="1"/>
        <pt x="399" y="678" on="0"/>
        <pt x="518" y="630" on="0"/>
        <pt x="608" y="539" on="0"/>
        <pt x="661" y="405" on="0"/>
        <pt x="661" y="320" on="1"/>
        <pt x="661" y="204" on="0"/>
        <pt x="565" y="52" on="0"/>
        <pt x="493" y="15" on="1"/>
        <pt x="743" y="-48" on="1"/>
        <pt x="676" y="-182" on="1"/>
        <pt x="379" y="-18" on="1"/>
        <pt x="370" y="-19" on="0"/>
        <pt x="351" y="-20" on="0"/>
      </contour>
      <contour>
        <pt x="359" y="68" on="1"/>
        <pt x="375" y="68" on="0"/>
        <pt x="402" y="73" on="0"/>
        <pt x="416" y="77" on="1"/>
        <pt x="453" y="107" on="0"/>
        <pt x="500" y="236" on="0"/>
        <pt x="500" y="317" on="1"/>
        <pt x="500" y="369" on="0"/>
        <pt x="479" y="468" on="0"/>
        <pt x="435" y="544" on="0"/>
        <pt x="367" y="590" on="0"/>
        <pt x="321" y="590" on="1"/>
        <pt x="304" y="590" on="0"/>
        <pt x="267" y="583" on="0"/>
        <pt x="248" y="576" on="1"/>
        <pt x="216" y="548" on="0"/>
        <pt x="174" y="423" on="0"/>
        <pt x="174" y="343" on="1"/>
        <pt x="174" y="286" on="0"/>
        <pt x="197" y="185" on="0"/>
        <pt x="243" y="111" on="0"/>
        <pt x="313" y="68" on="0"/>
      </contour>
    </TTGlyph>
    <TTGlyph name="R" xMin="26" yMin="0" xMax="683" yMax="666">
      <contour>
        <pt x="26" y="32" on="1"/>
        <pt x="45" y="44" on="0"/>
        <pt x="89" y="64" on="0"/>
        <pt x="111" y="73" on="1"/>
        <pt x="111" y="598" on="1"/>
        <pt x="37" y="607" on="1"/>
        <pt x="38" y="658" on="1"/>
        <pt x="357" y="666" on="1"/>
        <pt x="419" y="666" on="0"/>
        <pt x="517" y="633" on="0"/>
        <pt x="584" y="577" on="0"/>
        <pt x="619" y="503" on="0"/>
        <pt x="619" y="463" on="1"/>
        <pt x="619" y="406" on="0"/>
        <pt x="548" y="303" on="0"/>
        <pt x="485" y="277" on="1"/>
        <pt x="619" y="59" on="1"/>
        <pt x="683" y="51" on="1"/>
        <pt x="682" y="0" on="1"/>
        <pt x="482" y="0" on="1"/>
        <pt x="346" y="255" on="1"/>
        <pt x="263" y="254" on="1"/>
        <pt x="263" y="64" on="1"/>
        <pt x="353" y="51" on="1"/>
        <pt x="352" y="0" on="1"/>
        <pt x="32" y="0" on="1"/>
      </contour>
      <contour>
        <pt x="402" y="588" on="1"/>
        <pt x="263" y="573" on="1"/>
        <pt x="263" y="338" on="1"/>
        <pt x="281" y="334" on="0"/>
        <pt x="315" y="331" on="0"/>
        <pt x="328" y="331" on="1"/>
        <pt x="404" y="331" on="0"/>
        <pt x="462" y="410" on="0"/>
        <pt x="462" y="460" on="1"/>
        <pt x="462" y="498" on="0"/>
        <pt x="433" y="567" on="0"/>
      </contour>
    </TTGlyph>
    <TTGlyph name="Racute" xMin="26" yMin="0" xMax="683" yMax="898">
      <component glyphName="R" x="0" y="0" flags="0x204"/>
      <component glyphName="acutecomb.case" x="317" y="0" flags="0x4"/>
    </TTGlyph>
    <TTGlyph name="Rcaron" xMin="26" yMin="0" xMax="683" yMax="906">
      <component glyphName="R" x="0" y="0" flags="0x204"/>
      <component glyphName="uni030C.case" x="319" y="70" flags="0x4"/>
    </TTGlyph>
    <TTGlyph name="Rcommaaccent" xMin="26" yMin="-298" xMax="683" yMax="666">
      <component glyphName="R" x="0" y="0" flags="0x204"/>
      <component glyphName="uni0326.case" x="336" y="0" flags="0x4"/>
    </TTGlyph>
    <TTGlyph name="Rho" xMin="26" yMin="0" xMax="616" yMax="666">
      <component glyphName="P" x="0" y="0" flags="0x204"/>
    </TTGlyph>
    <TTGlyph name="Rhoasper" xMin="-162" yMin="0" xMax="616" yMax="666">
      <component glyphName="Rho" x="0" y="0" flags="0x4"/>
      <component glyphName="asper.case" x="-194" y="0" flags="0x4"/>
    </TTGlyph>
    <TTGlyph name="S" xMin="51" yMin="-20" xMax="539" yMax="678">
      <contour>
        <pt x="53" y="44" on="1"/>
        <pt x="52" y="59" on="0"/>
        <pt x="52" y="105" on="0"/>
        <pt x="57" y="157" on="0"/>
        <pt x="64" y="209" on="0"/>
        <pt x="68" y="230" on="1"/>
        <pt x="140" y="230" on="1"/>
        <pt x="189" y="90" on="1"/>
        <pt x="225" y="74" on="0"/>
        <pt x="299" y="61" on="0"/>
        <pt x="333" y="61" on="1"/>
        <pt x="362" y="75" on="0"/>
        <pt x="388" y="123" on="0"/>
        <pt x="388" y="145" on="1"/>
        <pt x="388" y="192" on="0"/>
        <pt x="304" y="246" on="0"/>
        <pt x="241" y="275" on="1"/>
        <pt x="208" y="291" on="0"/>
        <pt x="141" y="327" on="0"/>
        <pt x="88" y="375" on="0"/>
        <pt x="54" y="439" on="0"/>
        <pt x="54" y="481" on="1"/>
        <pt x="54" y="526" on="0"/>
        <pt x="94" y="599" on="0"/>
        <pt x="163" y="650" on="0"/>
        <pt x="257" y="678" on="0"/>
        <pt x="311" y="678" on="1"/>
        <pt x="363" y="678" on="0"/>
        <pt x="472" y="655" on="0"/>
        <pt x="509" y="642" on="1"/>
        <pt x="509" y="607" on="0"/>
        <pt x="502" y="504" on="0"/>
        <pt x="492" y="459" on="1"/>
        <pt x="412" y="459" on="1"/>
        <pt x="383" y="571" on="1"/>
        <pt x="351" y="587" on="0"/>
        <pt x="280" y="600" on="0"/>
        <pt x="244" y="599" on="1"/>
        <pt x="221" y="585" on="0"/>
        <pt x="198" y="539" on="0"/>
        <pt x="198" y="518" on="1"/>
        <pt x="198" y="475" on="0"/>
        <pt x="290" y="423" on="0"/>
        <pt x="353" y="393" on="1"/>
        <pt x="387" y="377" on="0"/>
        <pt x="454" y="340" on="0"/>
        <pt x="507" y="291" on="0"/>
        <pt x="539" y="225" on="0"/>
        <pt x="539" y="181" on="1"/>
        <pt x="539" y="133" on="0"/>
        <pt x="498" y="58" on="0"/>
        <pt x="431" y="7" on="0"/>
        <pt x="340" y="-20" on="0"/>
        <pt x="291" y="-20" on="1"/>
        <pt x="264" y="-20" on="0"/>
        <pt x="200" y="-11" on="0"/>
        <pt x="136" y="5" on="0"/>
        <pt x="76" y="29" on="0"/>
      </contour>
    </TTGlyph>
    <TTGlyph name="Sacute" xMin="51" yMin="-20" xMax="539" yMax="898">
      <component glyphName="S" x="0" y="0" flags="0x204"/>
      <component glyphName="acutecomb.case" x="296" y="0" flags="0x4"/>
    </TTGlyph>
    <TTGlyph name="Scaron" xMin="51" yMin="-20" xMax="539" yMax="906">
      <component glyphName="S" x="0" y="0" flags="0x204"/>
      <component glyphName="uni030C.case" x="298" y="70" flags="0x4"/>
    </TTGlyph>
    <TTGlyph name="Scedilla" xMin="51" yMin="-269" xMax="539" yMax="678">
      <component glyphName="S" x="0" y="0" flags="0x204"/>
      <component glyphName="uni0327.case" x="285" y="0" flags="0x4"/>
    </TTGlyph>
    <TTGlyph name="Scommaaccent" xMin="51" yMin="-298" xMax="539" yMax="678">
      <component glyphName="S" x="0" y="0" flags="0x204"/>
      <component glyphName="uni0326.case" x="285" y="0" flags="0x4"/>
    </TTGlyph>
    <TTGlyph name="Sigma" xMin="31" yMin="0" xMax="575" yMax="658">
      <contour>
        <pt x="31" y="64" on="1"/>
        <pt x="240" y="322" on="1"/>
        <pt x="35" y="593" on="1"/>
        <pt x="70" y="658" on="1"/>
        <pt x="562" y="658" on="1"/>
        <pt x="563" y="643" on="0"/>
        <pt x="562" y="598" on="0"/>
        <pt x="559" y="547" on="0"/>
        <pt x="552" y="492" on="0"/>
        <pt x="547" y="468" on="1"/>
        <pt x="462" y="468" on="1"/>
        <pt x="446" y="566" on="1"/>
        <pt x="221" y="580" on="1"/>
        <pt x="392" y="349" on="1"/>
        <pt x="188" y="99" on="1"/>
        <pt x="454" y="102" on="1"/>
        <pt x="491" y="225" on="1"/>
        <pt x="575" y="218" on="1"/>
        <pt x="576" y="197" on="0"/>
        <pt x="573" y="138" on="0"/>
        <pt x="568" y="77" on="0"/>
        <pt x="561" y="20" on="0"/>
        <pt x="558" y="0" on="1"/>
        <pt x="55" y="0" on="1"/>
      </contour>
    </TTGlyph>
    <TTGlyph name="T" xMin="7" yMin="0" xMax="637" yMax="664">
      <contour>
        <pt x="145" y="32" on="1"/>
        <pt x="165" y="45" on="0"/>
        <pt x="222" y="67" on="0"/>
        <pt x="247" y="77" on="1"/>
        <pt x="247" y="589" on="1"/>
        <pt x="120" y="579" on="1"/>
        <pt x="105" y="453" on="1"/>
        <pt x="25" y="453" on="1"/>
        <pt x="20" y="477" on="0"/>
        <pt x="13" y="538" on="0"/>
        <pt x="8" y="598" on="0"/>
        <pt x="8" y="649" on="0"/>
        <pt x="9" y="664" on="1"/>
        <pt x="99" y="662" on="0"/>
        <pt x="251" y="660" on="0"/>
        <pt x="397" y="660" on="0"/>
        <pt x="548" y="662" on="0"/>
        <pt x="636" y="664" on="1"/>
        <pt x="637" y="649" on="0"/>
        <pt x="637" y="598" on="0"/>
        <pt x="632" y="538" on="0"/>
        <pt x="625" y="477" on="0"/>
        <pt x="620" y="453" on="1"/>
        <pt x="540" y="453" on="1"/>
        <pt x="525" y="579" on="1"/>
        <pt x="399" y="589" on="1"/>
        <pt x="399" y="66" on="1"/>
        <pt x="501" y="51" on="1"/>
        <pt x="500" y="0" on="1"/>
        <pt x="151" y="0" on="1"/>
      </contour>
    </TTGlyph>
    <TTGlyph name="Tau" xMin="7" yMin="0" xMax="637" yMax="664">
      <component glyphName="T" x="0" y="0" flags="0x204"/>
    </TTGlyph>
    <TTGlyph name="Tcaron" xMin="7" yMin="0" xMax="637" yMax="906">
      <component glyphName="T" x="0" y="0" flags="0x204"/>
      <component glyphName="uni030C.case" x="324" y="70" flags="0x4"/>
    </TTGlyph>
    <TTGlyph name="Theta" xMin="14" yMin="-20" xMax="661" yMax="678">
      <contour>
        <pt x="342" y="-20" on="1"/>
        <pt x="279" y="-20" on="0"/>
        <pt x="160" y="24" on="0"/>
        <pt x="69" y="110" on="0"/>
        <pt x="14" y="240" on="0"/>
        <pt x="14" y="325" on="1"/>
        <pt x="14" y="405" on="0"/>
        <pt x="64" y="536" on="0"/>
        <pt x="149" y="628" on="0"/>
        <pt x="267" y="678" on="0"/>
        <pt x="334" y="678" on="1"/>
        <pt x="399" y="678" on="0"/>
        <pt x="518" y="630" on="0"/>
        <pt x="608" y="539" on="0"/>
        <pt x="661" y="405" on="0"/>
        <pt x="661" y="320" on="1"/>
        <pt x="661" y="235" on="0"/>
        <pt x="607" y="106" on="0"/>
        <pt x="519" y="22" on="0"/>
        <pt x="403" y="-20" on="0"/>
      </contour>
      <contour>
        <pt x="359" y="68" on="1"/>
        <pt x="375" y="68" on="0"/>
        <pt x="402" y="73" on="0"/>
        <pt x="416" y="77" on="1"/>
        <pt x="453" y="107" on="0"/>
        <pt x="500" y="236" on="0"/>
        <pt x="500" y="317" on="1"/>
        <pt x="500" y="369" on="0"/>
        <pt x="479" y="468" on="0"/>
        <pt x="435" y="544" on="0"/>
        <pt x="367" y="590" on="0"/>
        <pt x="321" y="590" on="1"/>
        <pt x="304" y="590" on="0"/>
        <pt x="267" y="583" on="0"/>
        <pt x="248" y="576" on="1"/>
        <pt x="216" y="548" on="0"/>
        <pt x="174" y="423" on="0"/>
        <pt x="174" y="343" on="1"/>
        <pt x="174" y="286" on="0"/>
        <pt x="197" y="185" on="0"/>
        <pt x="243" y="111" on="0"/>
        <pt x="313" y="68" on="0"/>
      </contour>
      <contour>
        <pt x="221" y="278" on="1"/>
        <pt x="221" y="374" on="1"/>
        <pt x="448" y="393" on="1"/>
        <pt x="448" y="268" on="1"/>
      </contour>
    </TTGlyph>
    <TTGlyph name="Thorn" xMin="26" yMin="0" xMax="597" yMax="650">
      <contour>
        <pt x="26" y="34" on="1"/>
        <pt x="42" y="45" on="0"/>
        <pt x="97" y="69" on="0"/>
        <pt x="114" y="76" on="1"/>
        <pt x="114" y="587" on="1"/>
        <pt x="34" y="599" on="1"/>
        <pt x="35" y="650" on="1"/>
        <pt x="345" y="650" on="1"/>
        <pt x="351" y="616" on="1"/>
        <pt x="335" y="606" on="0"/>
        <pt x="283" y="582" on="0"/>
        <pt x="266" y="575" on="1"/>
        <pt x="266" y="522" on="1"/>
        <pt x="356" y="522" on="1"/>
        <pt x="417" y="522" on="0"/>
        <pt x="508" y="488" on="0"/>
        <pt x="567" y="435" on="0"/>
        <pt x="597" y="366" on="0"/>
        <pt x="597" y="332" on="1"/>
        <pt x="597" y="297" on="0"/>
        <pt x="566" y="230" on="0"/>
        <pt x="505" y="179" on="0"/>
        <pt x="413" y="148" on="0"/>
        <pt x="352" y="148" on="1"/>
        <pt x="266" y="147" on="1"/>
        <pt x="266" y="64" on="1"/>
        <pt x="358" y="51" on="1"/>
        <pt x="357" y="0" on="1"/>
        <pt x="32" y="0" on="1"/>
      </contour>
      <contour>
        <pt x="380" y="443" on="1"/>
        <pt x="266" y="425" on="1"/>
        <pt x="266" y="230" on="1"/>
        <pt x="276" y="228" on="0"/>
        <pt x="300" y="225" on="0"/>
        <pt x="313" y="225" on="1"/>
        <pt x="384" y="225" on="0"/>
        <pt x="445" y="289" on="0"/>
        <pt x="445" y="332" on="1"/>
        <pt x="445" y="363" on="0"/>
        <pt x="413" y="422" on="0"/>
      </contour>
    </TTGlyph>
    <TTGlyph name="U" xMin="8" yMin="-19" xMax="728" yMax="658">
      <contour>
        <pt x="384" y="-19" on="1"/>
        <pt x="320" y="-19" on="0"/>
        <pt x="210" y="20" on="0"/>
        <pt x="131" y="98" on="0"/>
        <pt x="85" y="216" on="0"/>
        <pt x="85" y="295" on="1"/>
        <pt x="85" y="596" on="1"/>
        <pt x="8" y="607" on="1"/>
        <pt x="9" y="658" on="1"/>
        <pt x="315" y="658" on="1"/>
        <pt x="321" y="626" on="1"/>
        <pt x="302" y="615" on="0"/>
        <pt x="259" y="594" on="0"/>
        <pt x="237" y="585" on="1"/>
        <pt x="237" y="265" on="1"/>
        <pt x="237" y="168" on="0"/>
        <pt x="326" y="72" on="0"/>
        <pt x="398" y="72" on="1"/>
        <pt x="424" y="72" on="0"/>
        <pt x="467" y="85" on="0"/>
        <pt x="485" y="96" on="1"/>
        <pt x="510" y="119" on="0"/>
        <pt x="536" y="215" on="0"/>
        <pt x="536" y="284" on="1"/>
        <pt x="536" y="595" on="1"/>
        <pt x="451" y="607" on="1"/>
        <pt x="452" y="658" on="1"/>
        <pt x="722" y="658" on="1"/>
        <pt x="728" y="626" on="1"/>
        <pt x="709" y="615" on="0"/>
        <pt x="666" y="594" on="0"/>
        <pt x="644" y="585" on="1"/>
        <pt x="644" y="291" on="1"/>
        <pt x="644" y="206" on="0"/>
        <pt x="605" y="87" on="0"/>
        <pt x="536" y="14" on="0"/>
        <pt x="440" y="-19" on="0"/>
      </contour>
    </TTGlyph>
    <TTGlyph name="Uacute" xMin="8" yMin="-19" xMax="728" yMax="898">
      <component glyphName="U" x="0" y="0" flags="0x204"/>
      <component glyphName="acutecomb.case" x="369" y="0" flags="0x4"/>
    </TTGlyph>
    <TTGlyph name="Ucircumflex" xMin="8" yMin="-19" xMax="728" yMax="909">
      <component glyphName="U" x="0" y="0" flags="0x204"/>
      <component glyphName="uni0302.case" x="371" y="70" flags="0x4"/>
    </TTGlyph>
    <TTGlyph name="Udieresis" xMin="8" yMin="-19" xMax="728" yMax="898">
      <component glyphName="U" x="0" y="0" flags="0x204"/>
      <component glyphName="uni0308.case" x="370" y="179" flags="0x4"/>
    </TTGlyph>
    <TTGlyph name="Ugrave" xMin="8" yMin="-19" xMax="728" yMax="898">
      <component glyphName="U" x="0" y="0" flags="0x204"/>
      <component glyphName="gravecomb.case" x="371" y="0" flags="0x4"/>
    </TTGlyph>
    <TTGlyph name="Uhungarumlaut" xMin="8" yMin="-19" xMax="728" yMax="928">
      <component glyphName="U" x="0" y="0" flags="0x204"/>
      <component glyphName="uni030B.case" x="371" y="179" flags="0x4"/>
    </TTGlyph>
    <TTGlyph name="Umacron" xMin="8" yMin="-19" xMax="728" yMax="831">
      <component glyphName="U" x="0" y="0" flags="0x204"/>
      <component glyphName="uni0304.case" x="369" y="0" flags="0x4"/>
    </TTGlyph>
    <TTGlyph name="Uogonek" xMin="8" yMin="-274" xMax="728" yMax="658">
      <component glyphName="U" x="0" y="0" flags="0x204"/>
      <component glyphName="uni0328.case" x="505" y="-9" flags="0x4"/>
    </TTGlyph>
    <TTGlyph name="Upsilon" xMin="-2" yMin="0" xMax="672" yMax="665">
      <contour>
        <pt x="164" y="32" on="1"/>
        <pt x="183" y="44" on="0"/>
        <pt x="228" y="65" on="0"/>
        <pt x="251" y="74" on="1"/>
        <pt x="251" y="164" on="1"/>
        <pt x="251" y="229" on="0"/>
        <pt x="224" y="365" on="0"/>
        <pt x="179" y="480" on="0"/>
        <pt x="121" y="565" on="0"/>
        <pt x="90" y="579" on="1"/>
        <pt x="11" y="573" on="1"/>
        <pt x="-2" y="615" on="1"/>
        <pt x="29" y="637" on="0"/>
        <pt x="104" y="665" on="0"/>
        <pt x="139" y="665" on="1"/>
        <pt x="204" y="665" on="0"/>
        <pt x="300" y="563" on="0"/>
        <pt x="337" y="456" on="1"/>
        <pt x="345" y="350" on="1"/>
        <pt x="346" y="350" on="1"/>
        <pt x="374" y="504" on="0"/>
        <pt x="492" y="665" on="0"/>
        <pt x="560" y="665" on="1"/>
        <pt x="589" y="665" on="0"/>
        <pt x="652" y="641" on="0"/>
        <pt x="672" y="625" on="1"/>
        <pt x="659" y="582" on="1"/>
        <pt x="573" y="582" on="1"/>
        <pt x="542" y="572" on="0"/>
        <pt x="480" y="496" on="0"/>
        <pt x="433" y="385" on="0"/>
        <pt x="403" y="250" on="0"/>
        <pt x="403" y="182" on="1"/>
        <pt x="403" y="64" on="1"/>
        <pt x="494" y="51" on="1"/>
        <pt x="493" y="0" on="1"/>
        <pt x="170" y="0" on="1"/>
      </contour>
    </TTGlyph>
    <TTGlyph name="Upsilonacute" xMin="-213" yMin="0" xMax="672" yMax="665">
      <component glyphName="Upsilon" x="0" y="0" flags="0x204"/>
      <component glyphName="grAcute.case" x="-212" y="0" flags="0x4"/>
    </TTGlyph>
    <TTGlyph name="Upsilonasper" xMin="-203" yMin="0" xMax="672" yMax="666">
      <component glyphName="Upsilon" x="0" y="0" flags="0x204"/>
      <component glyphName="asper.case" x="-235" y="0" flags="0x4"/>
    </TTGlyph>
    <TTGlyph name="Upsilonasperacute" xMin="-381" yMin="0" xMax="672" yMax="666">
      <component glyphName="asperacute.case" x="-310" y="0" flags="0x4"/>
      <component glyphName="Upsilon" x="0" y="0" flags="0x204"/>
    </TTGlyph>
    <TTGlyph name="Upsilonaspergrave" xMin="-360" yMin="0" xMax="672" yMax="666">
      <component glyphName="Upsilon" x="0" y="0" flags="0x204"/>
      <component glyphName="aspergrave.case" x="-286" y="0" flags="0x4"/>
    </TTGlyph>
    <TTGlyph name="Upsilonaspertilde" xMin="-429" yMin="0" xMax="672" yMax="675">
      <component glyphName="Upsilon" x="0" y="0" flags="0x204"/>
      <component glyphName="aspertilde.case" x="-257" y="0" flags="0x4"/>
    </TTGlyph>
    <TTGlyph name="Upsilonbreve" xMin="-2" yMin="0" xMax="672" yMax="874">
      <component glyphName="Upsilon" x="0" y="0" flags="0x204"/>
      <component glyphName="uni0306.case" x="342" y="0" flags="0x4"/>
    </TTGlyph>
    <TTGlyph name="Upsilondieresis" xMin="-2" yMin="0" xMax="672" yMax="898">
      <component glyphName="Upsilon" x="0" y="0" flags="0x204"/>
      <component glyphName="uni0308" x="341" y="179" flags="0x4"/>
    </TTGlyph>
    <TTGlyph name="Upsilongrave" xMin="-218" yMin="0" xMax="672" yMax="665">
      <component glyphName="Upsilon" x="0" y="0" flags="0x204"/>
      <component glyphName="grGrave.case" x="-243" y="0" flags="0x4"/>
    </TTGlyph>
    <TTGlyph name="Upsilonwithmacron" xMin="-2" yMin="0" xMax="672" yMax="831">
      <component glyphName="Upsilon" x="0" y="0" flags="0x204"/>
      <component glyphName="uni0304.case" x="340" y="0" flags="0x4"/>
    </TTGlyph>
    <TTGlyph name="Upsilonwithtonos" xMin="-212" yMin="0" xMax="672" yMax="665">
      <component glyphName="Upsilon" x="0" y="0" flags="0x204"/>
      <component glyphName="tonos.case" x="-212" y="0" flags="0x4"/>
    </TTGlyph>
    <TTGlyph name="Uring" xMin="8" yMin="-19" xMax="728" yMax="947">
      <component glyphName="U" x="0" y="0" flags="0x204"/>
      <component glyphName="uni030A.case" x="370" y="0" flags="0x4"/>
    </TTGlyph>
    <TTGlyph name="V" xMin="-2" yMin="-14" xMax="711" yMax="658">
      <contour>
        <pt x="-2" y="607" on="1"/>
        <pt x="-1" y="658" on="1"/>
        <pt x="309" y="658" on="1"/>
        <pt x="315" y="626" on="1"/>
        <pt x="296" y="615" on="0"/>
        <pt x="254" y="594" on="0"/>
        <pt x="232" y="585" on="1"/>
        <pt x="347" y="232" on="1"/>
        <pt x="359" y="102" on="1"/>
        <pt x="366" y="102" on="1"/>
        <pt x="532" y="594" on="1"/>
        <pt x="443" y="607" on="1"/>
        <pt x="444" y="658" on="1"/>
        <pt x="705" y="658" on="1"/>
        <pt x="711" y="626" on="1"/>
        <pt x="694" y="616" on="0"/>
        <pt x="654" y="596" on="0"/>
        <pt x="633" y="588" on="1"/>
        <pt x="428" y="0" on="1"/>
        <pt x="398" y="-5" on="0"/>
        <pt x="324" y="-13" on="0"/>
        <pt x="287" y="-14" on="1"/>
        <pt x="73" y="596" on="1"/>
      </contour>
    </TTGlyph>
    <TTGlyph name="W" xMin="-2" yMin="-14" xMax="982" yMax="658">
      <contour>
        <pt x="-2" y="607" on="1"/>
        <pt x="-1" y="658" on="1"/>
        <pt x="303" y="658" on="1"/>
        <pt x="309" y="626" on="1"/>
        <pt x="291" y="615" on="0"/>
        <pt x="249" y="595" on="0"/>
        <pt x="227" y="586" on="1"/>
        <pt x="322" y="235" on="1"/>
        <pt x="330" y="102" on="1"/>
        <pt x="335" y="102" on="1"/>
        <pt x="445" y="483" on="1"/>
        <pt x="404" y="619" on="1"/>
        <pt x="549" y="652" on="1"/>
        <pt x="658" y="244" on="1"/>
        <pt x="669" y="102" on="1"/>
        <pt x="671" y="102" on="1"/>
        <pt x="805" y="593" on="1"/>
        <pt x="708" y="607" on="1"/>
        <pt x="709" y="658" on="1"/>
        <pt x="976" y="658" on="1"/>
        <pt x="982" y="626" on="1"/>
        <pt x="965" y="616" on="0"/>
        <pt x="927" y="597" on="0"/>
        <pt x="906" y="588" on="1"/>
        <pt x="738" y="-1" on="1"/>
        <pt x="707" y="-7" on="0"/>
        <pt x="635" y="-13" on="0"/>
        <pt x="596" y="-14" on="1"/>
        <pt x="489" y="338" on="1"/>
        <pt x="467" y="222" on="1"/>
        <pt x="398" y="-1" on="1"/>
        <pt x="367" y="-7" on="0"/>
        <pt x="296" y="-13" on="0"/>
        <pt x="257" y="-14" on="1"/>
        <pt x="69" y="597" on="1"/>
      </contour>
    </TTGlyph>
    <TTGlyph name="X" xMin="2" yMin="0" xMax="704" yMax="658">
      <contour>
        <pt x="2" y="32" on="1"/>
        <pt x="21" y="43" on="0"/>
        <pt x="63" y="63" on="0"/>
        <pt x="85" y="73" on="1"/>
        <pt x="271" y="340" on="1"/>
        <pt x="98" y="597" on="1"/>
        <pt x="32" y="607" on="1"/>
        <pt x="33" y="658" on="1"/>
        <pt x="315" y="658" on="1"/>
        <pt x="321" y="626" on="1"/>
        <pt x="309" y="619" on="0"/>
        <pt x="282" y="605" on="0"/>
        <pt x="268" y="598" on="1"/>
        <pt x="385" y="426" on="1"/>
        <pt x="489" y="596" on="1"/>
        <pt x="414" y="607" on="1"/>
        <pt x="415" y="658" on="1"/>
        <pt x="666" y="658" on="1"/>
        <pt x="672" y="626" on="1"/>
        <pt x="654" y="615" on="0"/>
        <pt x="614" y="595" on="0"/>
        <pt x="592" y="587" on="1"/>
        <pt x="436" y="350" on="1"/>
        <pt x="633" y="60" on="1"/>
        <pt x="704" y="51" on="1"/>
        <pt x="703" y="0" on="1"/>
        <pt x="403" y="0" on="1"/>
        <pt x="397" y="32" on="1"/>
        <pt x="410" y="40" on="0"/>
        <pt x="442" y="56" on="0"/>
        <pt x="458" y="63" on="1"/>
        <pt x="326" y="258" on="1"/>
        <pt x="199" y="63" on="1"/>
        <pt x="282" y="51" on="1"/>
        <pt x="281" y="0" on="1"/>
        <pt x="8" y="0" on="1"/>
      </contour>
    </TTGlyph>
    <TTGlyph name="Xi" xMin="45" yMin="0" xMax="625" yMax="664">
      <contour>
        <pt x="76" y="447" on="1"/>
        <pt x="71" y="472" on="0"/>
        <pt x="63" y="535" on="0"/>
        <pt x="59" y="596" on="0"/>
        <pt x="59" y="649" on="0"/>
        <pt x="60" y="664" on="1"/>
        <pt x="139" y="662" on="0"/>
        <pt x="274" y="660" on="0"/>
        <pt x="402" y="660" on="0"/>
        <pt x="534" y="662" on="0"/>
        <pt x="610" y="664" on="1"/>
        <pt x="611" y="649" on="0"/>
        <pt x="610" y="596" on="0"/>
        <pt x="606" y="535" on="0"/>
        <pt x="599" y="472" on="0"/>
        <pt x="594" y="447" on="1"/>
        <pt x="514" y="447" on="1"/>
        <pt x="502" y="558" on="1"/>
        <pt x="335" y="567" on="1"/>
        <pt x="168" y="558" on="1"/>
        <pt x="156" y="447" on="1"/>
      </contour>
      <contour>
        <pt x="173" y="283" on="1"/>
        <pt x="173" y="369" on="1"/>
        <pt x="500" y="389" on="1"/>
        <pt x="500" y="274" on="1"/>
      </contour>
      <contour>
        <pt x="58" y="0" on="1"/>
        <pt x="55" y="22" on="0"/>
        <pt x="49" y="78" on="0"/>
        <pt x="46" y="136" on="0"/>
        <pt x="45" y="193" on="0"/>
        <pt x="46" y="215" on="1"/>
        <pt x="130" y="221" on="1"/>
        <pt x="162" y="106" on="1"/>
        <pt x="335" y="97" on="1"/>
        <pt x="509" y="106" on="1"/>
        <pt x="541" y="221" on="1"/>
        <pt x="625" y="215" on="1"/>
        <pt x="626" y="193" on="0"/>
        <pt x="624" y="136" on="0"/>
        <pt x="621" y="78" on="0"/>
        <pt x="616" y="22" on="0"/>
        <pt x="613" y="0" on="1"/>
      </contour>
    </TTGlyph>
    <TTGlyph name="Y" xMin="-2" yMin="0" xMax="651" yMax="658">
      <contour>
        <pt x="168" y="32" on="1"/>
        <pt x="186" y="43" on="0"/>
        <pt x="227" y="63" on="0"/>
        <pt x="249" y="72" on="1"/>
        <pt x="249" y="247" on="1"/>
        <pt x="61" y="598" on="1"/>
        <pt x="-2" y="607" on="1"/>
        <pt x="-1" y="658" on="1"/>
        <pt x="266" y="658" on="1"/>
        <pt x="272" y="626" on="1"/>
        <pt x="259" y="618" on="0"/>
        <pt x="231" y="604" on="0"/>
        <pt x="216" y="597" on="1"/>
        <pt x="310" y="420" on="1"/>
        <pt x="337" y="335" on="1"/>
        <pt x="343" y="335" on="1"/>
        <pt x="474" y="596" on="1"/>
        <pt x="400" y="607" on="1"/>
        <pt x="401" y="658" on="1"/>
        <pt x="645" y="658" on="1"/>
        <pt x="651" y="626" on="1"/>
        <pt x="633" y="615" on="0"/>
        <pt x="593" y="596" on="0"/>
        <pt x="572" y="587" on="1"/>
        <pt x="397" y="263" on="1"/>
        <pt x="397" y="63" on="1"/>
        <pt x="480" y="51" on="1"/>
        <pt x="479" y="0" on="1"/>
        <pt x="174" y="0" on="1"/>
      </contour>
    </TTGlyph>
    <TTGlyph name="Yacute" xMin="-2" yMin="0" xMax="651" yMax="898">
      <component glyphName="Y" x="0" y="0" flags="0x204"/>
      <component glyphName="acutecomb.case" x="336" y="0" flags="0x4"/>
    </TTGlyph>
    <TTGlyph name="Ydieresis" xMin="-2" yMin="0" xMax="651" yMax="898">
      <component glyphName="Y" x="0" y="0" flags="0x204"/>
      <component glyphName="uni0308.case" x="337" y="179" flags="0x4"/>
    </TTGlyph>
    <TTGlyph name="Z" xMin="33" yMin="-1" xMax="596" yMax="658">
      <contour>
        <pt x="33" y="68" on="1"/>
        <pt x="410" y="582" on="1"/>
        <pt x="187" y="568" on="1"/>
        <pt x="156" y="442" on="1"/>
        <pt x="72" y="442" on="1"/>
        <pt x="68" y="467" on="0"/>
        <pt x="62" y="526" on="0"/>
        <pt x="61" y="584" on="0"/>
        <pt x="62" y="637" on="0"/>
        <pt x="64" y="658" on="1"/>
        <pt x="556" y="658" on="1"/>
        <pt x="589" y="591" on="1"/>
        <pt x="220" y="88" on="1"/>
        <pt x="460" y="94" on="1"/>
        <pt x="506" y="223" on="1"/>
        <pt x="596" y="210" on="1"/>
        <pt x="593" y="156" on="0"/>
        <pt x="580" y="56" on="0"/>
        <pt x="570" y="0" on="1"/>
        <pt x="73" y="-1" on="1"/>
        <pt x="73" y="-1" on="1"/>
        <pt x="73" y="-1" on="1"/>
        <pt x="72" y="-1" on="1"/>
        <pt x="73" y="0" on="1"/>
      </contour>
    </TTGlyph>
    <TTGlyph name="Zacute" xMin="33" yMin="-1" xMax="596" yMax="898">
      <component glyphName="Z" x="0" y="0" flags="0x204"/>
      <component glyphName="acutecomb.case" x="321" y="0" flags="0x4"/>
    </TTGlyph>
    <TTGlyph name="Zcaron" xMin="33" yMin="-1" xMax="596" yMax="906">
      <component glyphName="Z" x="0" y="0" flags="0x204"/>
      <component glyphName="uni030C.case" x="322" y="70" flags="0x4"/>
    </TTGlyph>
    <TTGlyph name="Zdotaccent" xMin="33" yMin="-1" xMax="596" yMax="898">
      <component glyphName="Z" x="0" y="0" flags="0x204"/>
      <component glyphName="uni0307.case" x="322" y="179" flags="0x4"/>
    </TTGlyph>
    <TTGlyph name="Zeta" xMin="33" yMin="-1" xMax="596" yMax="658">
      <component glyphName="Z" x="0" y="0" flags="0x204"/>
    </TTGlyph>
    <TTGlyph name="a" xMin="37" yMin="-16" xMax="535" yMax="499">
      <contour>
        <pt x="213" y="-13" on="1"/>
        <pt x="170" y="-19" on="0"/>
        <pt x="104" y="0" on="0"/>
        <pt x="59" y="37" on="0"/>
        <pt x="37" y="87" on="0"/>
        <pt x="37" y="111" on="1"/>
        <pt x="37" y="141" on="0"/>
        <pt x="74" y="203" on="0"/>
        <pt x="115" y="225" on="1"/>
        <pt x="306" y="230" on="1"/>
        <pt x="306" y="319" on="1"/>
        <pt x="306" y="365" on="0"/>
        <pt x="281" y="411" on="0"/>
        <pt x="259" y="421" on="1"/>
        <pt x="240" y="420" on="0"/>
        <pt x="197" y="412" on="0"/>
        <pt x="184" y="408" on="1"/>
        <pt x="166" y="300" on="1"/>
        <pt x="82" y="297" on="1"/>
        <pt x="70" y="328" on="0"/>
        <pt x="59" y="403" on="0"/>
        <pt x="61" y="438" on="1"/>
        <pt x="89" y="450" on="0"/>
        <pt x="160" y="473" on="0"/>
        <pt x="229" y="489" on="0"/>
        <pt x="291" y="499" on="0"/>
        <pt x="310" y="499" on="1"/>
        <pt x="348" y="499" on="0"/>
        <pt x="419" y="458" on="0"/>
        <pt x="440" y="427" on="1"/>
        <pt x="447" y="415" on="0"/>
        <pt x="452" y="371" on="0"/>
        <pt x="452" y="324" on="1"/>
        <pt x="452" y="110" on="1"/>
        <pt x="452" y="100" on="0"/>
        <pt x="465" y="87" on="0"/>
        <pt x="477" y="87" on="1"/>
        <pt x="488" y="87" on="0"/>
        <pt x="512" y="91" on="0"/>
        <pt x="526" y="93" on="1"/>
        <pt x="535" y="48" on="1"/>
        <pt x="413" y="-16" on="1"/>
        <pt x="390" y="-15" on="0"/>
        <pt x="337" y="25" on="0"/>
        <pt x="322" y="56" on="1"/>
      </contour>
      <contour>
        <pt x="182" y="118" on="1"/>
        <pt x="182" y="107" on="0"/>
        <pt x="193" y="82" on="0"/>
        <pt x="203" y="74" on="1"/>
        <pt x="229" y="75" on="0"/>
        <pt x="284" y="91" on="0"/>
        <pt x="306" y="99" on="1"/>
        <pt x="306" y="171" on="1"/>
        <pt x="285" y="172" on="0"/>
        <pt x="240" y="170" on="0"/>
        <pt x="205" y="159" on="0"/>
        <pt x="182" y="136" on="0"/>
      </contour>
    </TTGlyph>
    <TTGlyph name="aacute" xMin="37" yMin="-16" xMax="535" yMax="768">
      <component glyphName="a" x="0" y="0" flags="0x204"/>
      <component glyphName="acutecomb" x="259" y="-3" flags="0x4"/>
    </TTGlyph>
    <TTGlyph name="abreve" xMin="37" yMin="-16" xMax="535" yMax="715">
      <component glyphName="a" x="0" y="0" flags="0x204"/>
      <component glyphName="uni0306" x="260" y="-3" flags="0x4"/>
    </TTGlyph>
    <TTGlyph name="acircumflex" xMin="37" yMin="-16" xMax="535" yMax="731">
      <component glyphName="a" x="0" y="0" flags="0x204"/>
      <component glyphName="uni0302" x="259" y="-3" flags="0x4"/>
    </TTGlyph>
    <TTGlyph name="acute" xMin="22" yMin="533" xMax="268" yMax="771">
      <component glyphName="acutecomb" x="116" y="0" flags="0x4"/>
    </TTGlyph>
    <TTGlyph name="acutecomb" xMin="-94" yMin="533" xMax="152" yMax="771">
      <contour>
        <pt x="-94" y="593" on="1"/>
        <pt x="56" y="771" on="1"/>
        <pt x="152" y="688" on="1"/>
        <pt x="107" y="651" on="0"/>
        <pt x="23" y="573" on="0"/>
        <pt x="-19" y="533" on="1"/>
      </contour>
    </TTGlyph>
    <TTGlyph name="acutecomb.case" xMin="-130" yMin="688" xMax="165" yMax="898">
      <contour>
        <pt x="-130" y="761" on="1"/>
        <pt x="107" y="898" on="1"/>
        <pt x="165" y="787" on="1"/>
        <pt x="102" y="763" on="0"/>
        <pt x="-25" y="714" on="0"/>
        <pt x="-87" y="688" on="1"/>
      </contour>
    </TTGlyph>
    <TTGlyph name="adieresis" xMin="37" yMin="-16" xMax="535" yMax="716">
      <component glyphName="a" x="0" y="0" flags="0x204"/>
      <component glyphName="uni0308" x="259" y="-3" flags="0x4"/>
    </TTGlyph>
    <TTGlyph name="ae" xMin="37" yMin="-15" xMax="760" yMax="497">
      <contour>
        <pt x="213" y="-13" on="1"/>
        <pt x="170" y="-19" on="0"/>
        <pt x="104" y="0" on="0"/>
        <pt x="59" y="37" on="0"/>
        <pt x="37" y="87" on="0"/>
        <pt x="37" y="111" on="1"/>
        <pt x="37" y="141" on="0"/>
        <pt x="74" y="203" on="0"/>
        <pt x="115" y="225" on="1"/>
        <pt x="307" y="230" on="1"/>
        <pt x="306" y="316" on="1"/>
        <pt x="306" y="362" on="0"/>
        <pt x="281" y="407" on="0"/>
        <pt x="259" y="418" on="1"/>
        <pt x="240" y="417" on="0"/>
        <pt x="197" y="409" on="0"/>
        <pt x="184" y="404" on="1"/>
        <pt x="166" y="296" on="1"/>
        <pt x="78" y="297" on="1"/>
        <pt x="68" y="328" on="0"/>
        <pt x="59" y="400" on="0"/>
        <pt x="61" y="434" on="1"/>
        <pt x="90" y="447" on="0"/>
        <pt x="159" y="470" on="0"/>
        <pt x="229" y="487" on="0"/>
        <pt x="294" y="497" on="0"/>
        <pt x="318" y="497" on="1"/>
        <pt x="343" y="496" on="0"/>
        <pt x="390" y="464" on="0"/>
        <pt x="408" y="442" on="1"/>
        <pt x="438" y="467" on="0"/>
        <pt x="514" y="496" on="0"/>
        <pt x="555" y="496" on="1"/>
        <pt x="593" y="496" on="0"/>
        <pt x="667" y="471" on="0"/>
        <pt x="725" y="422" on="0"/>
        <pt x="760" y="346" on="0"/>
        <pt x="760" y="296" on="1"/>
        <pt x="755" y="295" on="1"/>
        <pt x="698" y="238" on="1"/>
        <pt x="444" y="241" on="1"/>
        <pt x="448" y="157" on="0"/>
        <pt x="537" y="85" on="0"/>
        <pt x="598" y="85" on="1"/>
        <pt x="632" y="85" on="0"/>
        <pt x="693" y="104" on="0"/>
        <pt x="728" y="121" on="1"/>
        <pt x="749" y="68" on="1"/>
        <pt x="592" y="-13" on="1"/>
        <pt x="521" y="-20" on="0"/>
        <pt x="403" y="25" on="0"/>
        <pt x="366" y="69" on="1"/>
      </contour>
      <contour>
        <pt x="520" y="420" on="1"/>
        <pt x="492" y="404" on="0"/>
        <pt x="456" y="345" on="0"/>
        <pt x="449" y="310" on="1"/>
        <pt x="626" y="319" on="1"/>
        <pt x="619" y="361" on="0"/>
        <pt x="561" y="420" on="0"/>
      </contour>
      <contour>
        <pt x="182" y="118" on="1"/>
        <pt x="182" y="107" on="0"/>
        <pt x="193" y="82" on="0"/>
        <pt x="203" y="74" on="1"/>
        <pt x="229" y="75" on="0"/>
        <pt x="309" y="100" on="0"/>
        <pt x="337" y="110" on="1"/>
        <pt x="330" y="124" on="0"/>
        <pt x="318" y="155" on="0"/>
        <pt x="315" y="171" on="1"/>
        <pt x="310" y="171" on="1"/>
        <pt x="288" y="172" on="0"/>
        <pt x="243" y="170" on="0"/>
        <pt x="206" y="159" on="0"/>
        <pt x="182" y="137" on="0"/>
      </contour>
    </TTGlyph>
    <TTGlyph name="agrave" xMin="37" yMin="-16" xMax="535" yMax="768">
      <component glyphName="a" x="0" y="0" flags="0x204"/>
      <component glyphName="gravecomb" x="259" y="-3" flags="0x4"/>
    </TTGlyph>
    <TTGlyph name="alpha" xMin="24" yMin="-14" xMax="580" yMax="501">
      <contour>
        <pt x="202" y="-14" on="1"/>
        <pt x="164" y="-14" on="0"/>
        <pt x="99" y="25" on="0"/>
        <pt x="51" y="92" on="0"/>
        <pt x="24" y="183" on="0"/>
        <pt x="24" y="236" on="1"/>
        <pt x="24" y="289" on="0"/>
        <pt x="54" y="385" on="0"/>
        <pt x="105" y="455" on="0"/>
        <pt x="174" y="497" on="0"/>
        <pt x="213" y="497" on="1"/>
        <pt x="263" y="497" on="0"/>
        <pt x="344" y="433" on="0"/>
        <pt x="364" y="379" on="1"/>
        <pt x="374" y="477" on="1"/>
        <pt x="408" y="501" on="1"/>
        <pt x="441" y="500" on="0"/>
        <pt x="507" y="476" on="0"/>
        <pt x="523" y="459" on="1"/>
        <pt x="444" y="113" on="1"/>
        <pt x="563" y="126" on="1"/>
        <pt x="580" y="89" on="1"/>
        <pt x="567" y="49" on="0"/>
        <pt x="502" y="-14" on="0"/>
        <pt x="471" y="-14" on="1"/>
        <pt x="435" y="-14" on="0"/>
        <pt x="381" y="59" on="0"/>
        <pt x="371" y="118" on="1"/>
        <pt x="370" y="118" on="1"/>
        <pt x="332" y="52" on="0"/>
        <pt x="249" y="-14" on="0"/>
      </contour>
      <contour>
        <pt x="114" y="151" on="1"/>
        <pt x="132" y="142" on="0"/>
        <pt x="172" y="133" on="0"/>
        <pt x="195" y="133" on="1"/>
        <pt x="257" y="133" on="0"/>
        <pt x="346" y="219" on="0"/>
        <pt x="357" y="289" on="1"/>
        <pt x="361" y="316" on="1"/>
        <pt x="338" y="332" on="0"/>
        <pt x="280" y="350" on="0"/>
        <pt x="249" y="350" on="1"/>
        <pt x="183" y="350" on="0"/>
        <pt x="104" y="272" on="0"/>
        <pt x="104" y="207" on="1"/>
        <pt x="104" y="190" on="0"/>
        <pt x="109" y="161" on="0"/>
      </contour>
    </TTGlyph>
    <TTGlyph name="alphaacute" xMin="24" yMin="-14" xMax="580" yMax="784">
      <component glyphName="alpha" x="0" y="0" flags="0x204"/>
      <component glyphName="grAcute" x="149" y="0" flags="0x4"/>
    </TTGlyph>
    <TTGlyph name="alphaacuteiotasub" xMin="24" yMin="-231" xMax="580" yMax="784">
      <component glyphName="alpha" x="0" y="0" flags="0x204"/>
      <component glyphName="iotaadscript" x="125" y="0" flags="0x4"/>
      <component glyphName="grAcute" x="149" y="0" flags="0x4"/>
    </TTGlyph>
    <TTGlyph name="alphaasper" xMin="24" yMin="-14" xMax="580" yMax="786">
      <component glyphName="asper" x="82" y="0" flags="0x4"/>
      <component glyphName="alpha" x="0" y="0" flags="0x204"/>
    </TTGlyph>
    <TTGlyph name="alphaasperacute" xMin="24" yMin="-14" xMax="580" yMax="786">
      <component glyphName="alpha" x="0" y="0" flags="0x204"/>
      <component glyphName="asperacute" x="100" y="0" flags="0x4"/>
    </TTGlyph>
    <TTGlyph name="alphaasperacuteiotasub" xMin="24" yMin="-231" xMax="580" yMax="786">
      <component glyphName="alpha" x="0" y="0" flags="0x204"/>
      <component glyphName="iotaadscript" x="125" y="0" flags="0x4"/>
      <component glyphName="asperacute" x="100" y="0" flags="0x4"/>
    </TTGlyph>
    <TTGlyph name="alphaaspergrave" xMin="24" yMin="-14" xMax="580" yMax="786">
      <component glyphName="alpha" x="0" y="0" flags="0x204"/>
      <component glyphName="aspergrave" x="91" y="0" flags="0x4"/>
    </TTGlyph>
    <TTGlyph name="alphaaspergraveiotasub" xMin="24" yMin="-231" xMax="580" yMax="786">
      <component glyphName="alpha" x="0" y="0" flags="0x204"/>
      <component glyphName="iotaadscript" x="125" y="0" flags="0x4"/>
      <component glyphName="aspergrave" x="91" y="0" flags="0x4"/>
    </TTGlyph>
    <TTGlyph name="alphaasperiotasub" xMin="24" yMin="-231" xMax="580" yMax="786">
      <component glyphName="asper" x="87" y="0" flags="0x4"/>
      <component glyphName="alpha" x="0" y="0" flags="0x204"/>
      <component glyphName="iotaadscript" x="125" y="0" flags="0x4"/>
    </TTGlyph>
    <TTGlyph name="alphaaspertilde" xMin="24" yMin="-14" xMax="580" yMax="950">
      <component glyphName="alpha" x="0" y="0" flags="0x204"/>
      <component glyphName="aspertilde" x="94" y="0" flags="0x4"/>
    </TTGlyph>
    <TTGlyph name="alphaaspertildeiotasub" xMin="24" yMin="-231" xMax="580" yMax="950">
      <component glyphName="alpha" x="0" y="0" flags="0x204"/>
      <component glyphName="iotaadscript" x="125" y="0" flags="0x4"/>
      <component glyphName="aspertilde" x="94" y="0" flags="0x4"/>
    </TTGlyph>
    <TTGlyph name="alphabreve" xMin="24" yMin="-14" xMax="580" yMax="718">
      <component glyphName="alpha" x="0" y="0" flags="0x204"/>
      <component glyphName="uni0306" x="300" y="0" flags="0x4"/>
    </TTGlyph>
    <TTGlyph name="alphagrave" xMin="24" yMin="-14" xMax="580" yMax="784">
      <component glyphName="alpha" x="0" y="0" flags="0x204"/>
      <component glyphName="grGrave" x="104" y="0" flags="0x4"/>
    </TTGlyph>
    <TTGlyph name="alphagraveiotasub" xMin="24" yMin="-231" xMax="580" yMax="784">
      <component glyphName="alpha" x="0" y="0" flags="0x204"/>
      <component glyphName="iotaadscript" x="125" y="0" flags="0x4"/>
      <component glyphName="grGrave" x="104" y="0" flags="0x4"/>
    </TTGlyph>
    <TTGlyph name="alphaiotasub" xMin="24" yMin="-231" xMax="580" yMax="501">
      <component glyphName="alpha" x="0" y="0" flags="0x204"/>
      <component glyphName="iotaadscript" x="125" y="0" flags="0x4"/>
    </TTGlyph>
    <TTGlyph name="alphalenis" xMin="24" yMin="-14" xMax="580" yMax="786">
      <component glyphName="alpha" x="0" y="0" flags="0x204"/>
      <component glyphName="lenis" x="113" y="0" flags="0x4"/>
    </TTGlyph>
    <TTGlyph name="alphalenisacute" xMin="24" yMin="-14" xMax="580" yMax="786">
      <component glyphName="alpha" x="0" y="0" flags="0x204"/>
      <component glyphName="lenisacute" x="129" y="0" flags="0x4"/>
    </TTGlyph>
    <TTGlyph name="alphalenisacuteiotasub" xMin="24" yMin="-231" xMax="580" yMax="786">
      <component glyphName="alpha" x="0" y="0" flags="0x204"/>
      <component glyphName="iotaadscript" x="125" y="0" flags="0x4"/>
      <component glyphName="lenisacute" x="129" y="0" flags="0x4"/>
    </TTGlyph>
    <TTGlyph name="alphalenisgrave" xMin="24" yMin="-14" xMax="580" yMax="786">
      <component glyphName="alpha" x="0" y="0" flags="0x204"/>
      <component glyphName="lenisgrave" x="94" y="0" flags="0x4"/>
    </TTGlyph>
    <TTGlyph name="alphalenisgraveiotasub" xMin="24" yMin="-231" xMax="580" yMax="786">
      <component glyphName="alpha" x="0" y="0" flags="0x204"/>
      <component glyphName="lenisgrave" x="94" y="0" flags="0x4"/>
      <component glyphName="iotaadscript" x="125" y="0" flags="0x4"/>
    </TTGlyph>
    <TTGlyph name="alphalenisiotasub" xMin="24" yMin="-231" xMax="580" yMax="786">
      <component glyphName="alpha" x="0" y="0" flags="0x204"/>
      <component glyphName="iotaadscript" x="125" y="0" flags="0x4"/>
      <component glyphName="lenis" x="113" y="0" flags="0x4"/>
    </TTGlyph>
    <TTGlyph name="alphalenistilde" xMin="24" yMin="-14" xMax="580" yMax="950">
      <component glyphName="alpha" x="0" y="0" flags="0x204"/>
      <component glyphName="lenistilde" x="101" y="0" flags="0x4"/>
    </TTGlyph>
    <TTGlyph name="alphalenistildeiotasub" xMin="24" yMin="-231" xMax="580" yMax="950">
      <component glyphName="alpha" x="0" y="0" flags="0x204"/>
      <component glyphName="lenistilde" x="101" y="0" flags="0x4"/>
      <component glyphName="iotaadscript" x="125" y="0" flags="0x4"/>
    </TTGlyph>
    <TTGlyph name="alphatilde" xMin="24" yMin="-14" xMax="580" yMax="730">
      <component glyphName="alpha" x="0" y="0" flags="0x204"/>
      <component glyphName="grTilde" x="129" y="0" flags="0x4"/>
    </TTGlyph>
    <TTGlyph name="alphatildeiotasub" xMin="24" yMin="-231" xMax="580" yMax="730">
      <component glyphName="alpha" x="0" y="0" flags="0x204"/>
      <component glyphName="grTilde" x="129" y="0" flags="0x4"/>
      <component glyphName="iotaadscript" x="125" y="0" flags="0x4"/>
    </TTGlyph>
    <TTGlyph name="alphawithmacron" xMin="24" yMin="-14" xMax="580" yMax="654">
      <component glyphName="alpha" x="0" y="0" flags="0x204"/>
      <component glyphName="uni0304" x="286" y="0" flags="0x4"/>
    </TTGlyph>
    <TTGlyph name="alphawithtonos" xMin="24" yMin="-14" xMax="580" yMax="784">
      <component glyphName="tonos" x="149" y="0" flags="0x4"/>
      <component glyphName="alpha" x="0" y="0" flags="0x204"/>
    </TTGlyph>
    <TTGlyph name="amacron" xMin="37" yMin="-16" xMax="535" yMax="651">
      <component glyphName="a" x="0" y="0" flags="0x204"/>
      <component glyphName="uni0304" x="258" y="-3" flags="0x4"/>
    </TTGlyph>
    <TTGlyph name="ampersand" xMin="16" yMin="-27" xMax="721" yMax="668">
      <contour>
        <pt x="310" y="-27" on="1"/>
        <pt x="249" y="-27" on="0"/>
        <pt x="141" y="6" on="0"/>
        <pt x="62" y="65" on="0"/>
        <pt x="16" y="149" on="0"/>
        <pt x="16" y="200" on="1"/>
        <pt x="16" y="260" on="0"/>
        <pt x="78" y="344" on="0"/>
        <pt x="125" y="365" on="1"/>
        <pt x="81" y="387" on="0"/>
        <pt x="37" y="459" on="0"/>
        <pt x="37" y="498" on="1"/>
        <pt x="37" y="529" on="0"/>
        <pt x="66" y="591" on="0"/>
        <pt x="123" y="638" on="0"/>
        <pt x="210" y="668" on="0"/>
        <pt x="267" y="668" on="1"/>
        <pt x="312" y="668" on="0"/>
        <pt x="417" y="648" on="0"/>
        <pt x="468" y="626" on="1"/>
        <pt x="423" y="506" on="1"/>
        <pt x="237" y="578" on="1"/>
        <pt x="208" y="565" on="0"/>
        <pt x="173" y="509" on="0"/>
        <pt x="173" y="478" on="1"/>
        <pt x="173" y="456" on="0"/>
        <pt x="190" y="413" on="0"/>
        <pt x="208" y="396" on="1"/>
        <pt x="313" y="362" on="1"/>
        <pt x="299" y="296" on="1"/>
        <pt x="230" y="297" on="0"/>
        <pt x="154" y="226" on="0"/>
        <pt x="154" y="177" on="1"/>
        <pt x="154" y="148" on="0"/>
        <pt x="179" y="103" on="0"/>
        <pt x="222" y="73" on="0"/>
        <pt x="277" y="58" on="0"/>
        <pt x="307" y="58" on="1"/>
        <pt x="329" y="58" on="0"/>
        <pt x="384" y="68" on="0"/>
        <pt x="408" y="80" on="1"/>
        <pt x="441" y="104" on="0"/>
        <pt x="471" y="175" on="0"/>
        <pt x="471" y="214" on="1"/>
        <pt x="471" y="244" on="0"/>
        <pt x="455" y="304" on="0"/>
        <pt x="440" y="330" on="1"/>
        <pt x="426" y="323" on="0"/>
        <pt x="395" y="305" on="0"/>
        <pt x="379" y="294" on="1"/>
        <pt x="344" y="357" on="1"/>
        <pt x="488" y="444" on="0"/>
        <pt x="661" y="482" on="0"/>
        <pt x="721" y="429" on="1"/>
        <pt x="685" y="316" on="1"/>
        <pt x="656" y="334" on="0"/>
        <pt x="597" y="362" on="0"/>
        <pt x="560" y="363" on="1"/>
        <pt x="578" y="329" on="0"/>
        <pt x="595" y="257" on="0"/>
        <pt x="595" y="223" on="1"/>
        <pt x="595" y="171" on="0"/>
        <pt x="556" y="80" on="0"/>
        <pt x="484" y="12" on="0"/>
        <pt x="377" y="-27" on="0"/>
      </contour>
    </TTGlyph>
    <TTGlyph name="anoteleia" xMin="45" yMin="277" xMax="214" yMax="445">
      <component glyphName="period" x="-46" y="316" flags="0x4"/>
    </TTGlyph>
    <TTGlyph name="aogonek" xMin="37" yMin="-250" xMax="535" yMax="499">
      <component glyphName="a" x="0" y="0" flags="0x204"/>
      <component glyphName="uni0328" x="482" y="2" flags="0x4"/>
    </TTGlyph>
    <TTGlyph name="approxequal" xMin="57" yMin="63" xMax="512" yMax="436">
      <component glyphName="tildecomb.case" x="276" y="-453" flags="0x4"/>
      <component glyphName="tildecomb.case" x="276" y="-639" flags="0x4"/>
    </TTGlyph>
    <TTGlyph name="aring" xMin="37" yMin="-16" xMax="535" yMax="765">
      <component glyphName="a" x="0" y="0" flags="0x204"/>
      <component glyphName="uni030A" x="259" y="-182" flags="0x4"/>
    </TTGlyph>
    <TTGlyph name="asciicircum" xMin="24" yMin="322" xMax="493" yMax="649">
      <contour>
        <pt x="24" y="369" on="1"/>
        <pt x="214" y="649" on="1"/>
        <pt x="295" y="649" on="1"/>
        <pt x="493" y="373" on="1"/>
        <pt x="423" y="326" on="1"/>
        <pt x="260" y="558" on="1"/>
        <pt x="253" y="558" on="1"/>
        <pt x="97" y="322" on="1"/>
      </contour>
    </TTGlyph>
    <TTGlyph name="asciitilde" xMin="77" yMin="171" xMax="532" yMax="358">
      <component glyphName="tildecomb.case" x="296" y="-531" flags="0x4"/>
    </TTGlyph>
    <TTGlyph name="asper" xMin="95" yMin="530" xMax="245" yMax="786">
      <contour>
        <pt x="245" y="572" on="1"/>
        <pt x="215" y="530" on="1"/>
        <pt x="160" y="555" on="0"/>
        <pt x="95" y="646" on="0"/>
        <pt x="95" y="692" on="1"/>
        <pt x="95" y="722" on="0"/>
        <pt x="133" y="776" on="0"/>
        <pt x="171" y="786" on="1"/>
        <pt x="199" y="773" on="0"/>
        <pt x="234" y="727" on="0"/>
        <pt x="239" y="696" on="1"/>
        <pt x="187" y="656" on="1"/>
        <pt x="189" y="634" on="0"/>
        <pt x="217" y="595" on="0"/>
      </contour>
    </TTGlyph>
    <TTGlyph name="asper.case" xMin="32" yMin="411" xMax="182" yMax="666">
      <contour>
        <pt x="152" y="411" on="1"/>
        <pt x="97" y="436" on="0"/>
        <pt x="32" y="527" on="0"/>
        <pt x="32" y="573" on="1"/>
        <pt x="32" y="603" on="0"/>
        <pt x="70" y="657" on="0"/>
        <pt x="108" y="666" on="1"/>
        <pt x="136" y="654" on="0"/>
        <pt x="171" y="607" on="0"/>
        <pt x="176" y="576" on="1"/>
        <pt x="124" y="537" on="1"/>
        <pt x="126" y="514" on="0"/>
        <pt x="154" y="476" on="0"/>
        <pt x="182" y="452" on="1"/>
      </contour>
    </TTGlyph>
    <TTGlyph name="asperacute" xMin="-1" yMin="530" xMax="338" yMax="786">
      <contour>
        <pt x="119" y="530" on="1"/>
        <pt x="64" y="555" on="0"/>
        <pt x="-1" y="646" on="0"/>
        <pt x="-1" y="692" on="1"/>
        <pt x="-1" y="722" on="0"/>
        <pt x="37" y="776" on="0"/>
        <pt x="76" y="786" on="1"/>
        <pt x="104" y="773" on="0"/>
        <pt x="139" y="727" on="0"/>
        <pt x="143" y="696" on="1"/>
        <pt x="92" y="656" on="1"/>
        <pt x="93" y="634" on="0"/>
        <pt x="121" y="595" on="0"/>
        <pt x="149" y="572" on="1"/>
      </contour>
      <contour>
        <pt x="176" y="552" on="1"/>
        <pt x="232" y="784" on="1"/>
        <pt x="260" y="787" on="0"/>
        <pt x="320" y="765" on="0"/>
        <pt x="336" y="751" on="1"/>
        <pt x="338" y="723" on="1"/>
        <pt x="228" y="530" on="1"/>
      </contour>
    </TTGlyph>
    <TTGlyph name="asperacute.case" xMin="-71" yMin="411" xMax="269" yMax="666">
      <contour>
        <pt x="50" y="411" on="1"/>
        <pt x="-6" y="436" on="0"/>
        <pt x="-71" y="527" on="0"/>
        <pt x="-71" y="573" on="1"/>
        <pt x="-71" y="603" on="0"/>
        <pt x="-33" y="657" on="0"/>
        <pt x="6" y="666" on="1"/>
        <pt x="34" y="654" on="0"/>
        <pt x="69" y="607" on="0"/>
        <pt x="74" y="576" on="1"/>
        <pt x="22" y="537" on="1"/>
        <pt x="24" y="514" on="0"/>
        <pt x="52" y="476" on="0"/>
        <pt x="80" y="452" on="1"/>
      </contour>
      <contour>
        <pt x="106" y="432" on="1"/>
        <pt x="163" y="665" on="1"/>
        <pt x="191" y="667" on="0"/>
        <pt x="250" y="645" on="0"/>
        <pt x="267" y="632" on="1"/>
        <pt x="269" y="604" on="1"/>
        <pt x="158" y="411" on="1"/>
      </contour>
    </TTGlyph>
    <TTGlyph name="aspergrave" xMin="-3" yMin="530" xMax="334" yMax="786">
      <contour>
        <pt x="118" y="530" on="1"/>
        <pt x="63" y="555" on="0"/>
        <pt x="-3" y="646" on="0"/>
        <pt x="-3" y="692" on="1"/>
        <pt x="-3" y="722" on="0"/>
        <pt x="36" y="776" on="0"/>
        <pt x="74" y="786" on="1"/>
        <pt x="102" y="773" on="0"/>
        <pt x="137" y="727" on="0"/>
        <pt x="142" y="696" on="1"/>
        <pt x="90" y="656" on="1"/>
        <pt x="92" y="634" on="0"/>
        <pt x="120" y="595" on="0"/>
        <pt x="148" y="572" on="1"/>
      </contour>
      <contour>
        <pt x="171" y="723" on="1"/>
        <pt x="173" y="751" on="1"/>
        <pt x="190" y="765" on="0"/>
        <pt x="249" y="787" on="0"/>
        <pt x="277" y="784" on="1"/>
        <pt x="334" y="552" on="1"/>
        <pt x="282" y="530" on="1"/>
      </contour>
    </TTGlyph>
    <TTGlyph name="aspergrave.case" xMin="-74" yMin="411" xMax="263" yMax="666">
      <contour>
        <pt x="47" y="411" on="1"/>
        <pt x="-9" y="436" on="0"/>
        <pt x="-74" y="527" on="0"/>
        <pt x="-74" y="573" on="1"/>
        <pt x="-74" y="603" on="0"/>
        <pt x="-36" y="657" on="0"/>
        <pt x="3" y="666" on="1"/>
        <pt x="31" y="654" on="0"/>
        <pt x="66" y="607" on="0"/>
        <pt x="71" y="576" on="1"/>
        <pt x="19" y="537" on="1"/>
        <pt x="21" y="514" on="0"/>
        <pt x="49" y="476" on="0"/>
        <pt x="77" y="452" on="1"/>
      </contour>
      <contour>
        <pt x="100" y="604" on="1"/>
        <pt x="102" y="632" on="1"/>
        <pt x="119" y="645" on="0"/>
        <pt x="178" y="667" on="0"/>
        <pt x="206" y="665" on="1"/>
        <pt x="263" y="432" on="1"/>
        <pt x="211" y="411" on="1"/>
      </contour>
    </TTGlyph>
    <TTGlyph name="aspertilde" xMin="-25" yMin="530" xMax="375" yMax="950">
      <component glyphName="grTilde" x="17" y="220" flags="0x4"/>
    </TTGlyph>
    <TTGlyph name="aspertilde.case" xMin="-172" yMin="252" xMax="228" yMax="675">
      <contour>
        <pt x="128" y="516" on="1"/>
        <pt x="99" y="516" on="0"/>
        <pt x="33" y="541" on="0"/>
        <pt x="-30" y="567" on="0"/>
        <pt x="-85" y="583" on="0"/>
        <pt x="-103" y="574" on="1"/>
        <pt x="-130" y="527" on="1"/>
        <pt x="-172" y="545" on="1"/>
        <pt x="-163" y="611" on="0"/>
        <pt x="-116" y="675" on="0"/>
        <pt x="-76" y="675" on="1"/>
        <pt x="-46" y="675" on="0"/>
        <pt x="20" y="650" on="0"/>
        <pt x="82" y="624" on="0"/>
        <pt x="136" y="606" on="0"/>
        <pt x="154" y="613" on="1"/>
        <pt x="183" y="664" on="1"/>
        <pt x="228" y="647" on="1"/>
        <pt x="218" y="580" on="0"/>
        <pt x="170" y="516" on="0"/>
      </contour>
      <contour>
        <pt x="64" y="252" on="1"/>
        <pt x="8" y="277" on="0"/>
        <pt x="-57" y="368" on="0"/>
        <pt x="-57" y="414" on="1"/>
        <pt x="-57" y="444" on="0"/>
        <pt x="-19" y="498" on="0"/>
        <pt x="20" y="508" on="1"/>
        <pt x="48" y="495" on="0"/>
        <pt x="83" y="449" on="0"/>
        <pt x="88" y="418" on="1"/>
        <pt x="36" y="378" on="1"/>
        <pt x="38" y="356" on="0"/>
        <pt x="66" y="317" on="0"/>
        <pt x="94" y="294" on="1"/>
      </contour>
    </TTGlyph>
    <TTGlyph name="asterisk" xMin="4" yMin="409" xMax="352" yMax="768">
      <contour>
        <pt x="51" y="679" on="1"/>
        <pt x="112" y="768" on="1"/>
        <pt x="170" y="628" on="1"/>
        <pt x="137" y="591" on="1"/>
      </contour>
      <contour>
        <pt x="167" y="641" on="1"/>
        <pt x="226" y="750" on="1"/>
        <pt x="329" y="717" on="1"/>
        <pt x="213" y="620" on="1"/>
      </contour>
      <contour>
        <pt x="224" y="577" on="1"/>
        <pt x="229" y="626" on="1"/>
        <pt x="351" y="605" on="1"/>
        <pt x="352" y="498" on="1"/>
      </contour>
      <contour>
        <pt x="4" y="580" on="1"/>
        <pt x="154" y="589" on="1"/>
        <pt x="180" y="546" on="1"/>
        <pt x="67" y="491" on="1"/>
      </contour>
      <contour>
        <pt x="186" y="556" on="1"/>
        <pt x="235" y="566" on="1"/>
        <pt x="252" y="443" on="1"/>
        <pt x="149" y="409" on="1"/>
      </contour>
    </TTGlyph>
    <TTGlyph name="at" xMin="67" yMin="-39" xMax="1009" yMax="709">
      <contour>
        <pt x="221" y="-39" on="1"/>
        <pt x="143" y="36" on="0"/>
        <pt x="67" y="212" on="0"/>
        <pt x="67" y="298" on="1"/>
        <pt x="67" y="379" on="0"/>
        <pt x="132" y="528" on="0"/>
        <pt x="254" y="641" on="0"/>
        <pt x="434" y="709" on="0"/>
        <pt x="548" y="709" on="1"/>
        <pt x="665" y="709" on="0"/>
        <pt x="840" y="638" on="0"/>
        <pt x="953" y="526" on="0"/>
        <pt x="1009" y="383" on="0"/>
        <pt x="1009" y="311" on="1"/>
        <pt x="1009" y="254" on="0"/>
        <pt x="974" y="144" on="0"/>
        <pt x="905" y="56" on="0"/>
        <pt x="802" y="-6" on="0"/>
        <pt x="735" y="-16" on="1"/>
        <pt x="684" y="-18" on="0"/>
        <pt x="621" y="24" on="0"/>
        <pt x="605" y="55" on="1"/>
        <pt x="496" y="-13" on="1"/>
        <pt x="453" y="-19" on="0"/>
        <pt x="387" y="0" on="0"/>
        <pt x="342" y="37" on="0"/>
        <pt x="320" y="86" on="0"/>
        <pt x="320" y="110" on="1"/>
        <pt x="320" y="140" on="0"/>
        <pt x="357" y="203" on="0"/>
        <pt x="398" y="225" on="1"/>
        <pt x="590" y="229" on="1"/>
        <pt x="590" y="315" on="1"/>
        <pt x="590" y="362" on="0"/>
        <pt x="563" y="407" on="0"/>
        <pt x="542" y="417" on="1"/>
        <pt x="523" y="416" on="0"/>
        <pt x="480" y="409" on="0"/>
        <pt x="467" y="404" on="1"/>
        <pt x="449" y="296" on="1"/>
        <pt x="365" y="293" on="1"/>
        <pt x="353" y="329" on="0"/>
        <pt x="342" y="399" on="0"/>
        <pt x="344" y="434" on="1"/>
        <pt x="372" y="446" on="0"/>
        <pt x="443" y="469" on="0"/>
        <pt x="511" y="485" on="0"/>
        <pt x="573" y="495" on="0"/>
        <pt x="592" y="495" on="1"/>
        <pt x="630" y="495" on="0"/>
        <pt x="705" y="452" on="0"/>
        <pt x="723" y="424" on="1"/>
        <pt x="730" y="411" on="0"/>
        <pt x="735" y="368" on="0"/>
        <pt x="735" y="321" on="1"/>
        <pt x="735" y="112" on="1"/>
        <pt x="735" y="80" on="0"/>
        <pt x="773" y="85" on="0"/>
        <pt x="790" y="98" on="1"/>
        <pt x="827" y="128" on="0"/>
        <pt x="867" y="245" on="0"/>
        <pt x="867" y="306" on="1"/>
        <pt x="867" y="365" on="0"/>
        <pt x="827" y="474" on="0"/>
        <pt x="750" y="555" on="0"/>
        <pt x="632" y="604" on="0"/>
        <pt x="554" y="604" on="1"/>
        <pt x="473" y="604" on="0"/>
        <pt x="344" y="551" on="0"/>
        <pt x="257" y="461" on="0"/>
        <pt x="211" y="341" on="0"/>
        <pt x="211" y="275" on="1"/>
        <pt x="211" y="210" on="0"/>
        <pt x="256" y="74" on="0"/>
        <pt x="302" y="12" on="1"/>
      </contour>
      <contour>
        <pt x="465" y="118" on="1"/>
        <pt x="465" y="106" on="0"/>
        <pt x="476" y="82" on="0"/>
        <pt x="486" y="74" on="1"/>
        <pt x="512" y="75" on="0"/>
        <pt x="568" y="91" on="0"/>
        <pt x="590" y="98" on="1"/>
        <pt x="590" y="171" on="1"/>
        <pt x="569" y="172" on="0"/>
        <pt x="524" y="169" on="0"/>
        <pt x="488" y="158" on="0"/>
        <pt x="465" y="136" on="0"/>
      </contour>
    </TTGlyph>
    <TTGlyph name="atilde" xMin="37" yMin="-16" xMax="535" yMax="727">
      <component glyphName="a" x="0" y="0" flags="0x204"/>
      <component glyphName="tildecomb" x="259" y="-3" flags="0x4"/>
    </TTGlyph>
    <TTGlyph name="b" xMin="-22" yMin="-19" xMax="536" yMax="736">
      <contour>
        <pt x="256" y="-19" on="1"/>
        <pt x="211" y="-19" on="0"/>
        <pt x="109" y="3" on="0"/>
        <pt x="59" y="22" on="1"/>
        <pt x="59" y="645" on="1"/>
        <pt x="-15" y="653" on="1"/>
        <pt x="-22" y="701" on="1"/>
        <pt x="17" y="716" on="0"/>
        <pt x="110" y="735" on="0"/>
        <pt x="155" y="736" on="1"/>
        <pt x="155" y="736" on="1"/>
        <pt x="155" y="736" on="1"/>
        <pt x="156" y="736" on="1"/>
        <pt x="156" y="735" on="1"/>
        <pt x="204" y="691" on="1"/>
        <pt x="204" y="411" on="1"/>
        <pt x="315" y="488" on="1"/>
        <pt x="366" y="497" on="0"/>
        <pt x="448" y="466" on="0"/>
        <pt x="505" y="401" on="0"/>
        <pt x="536" y="309" on="0"/>
        <pt x="536" y="258" on="1"/>
        <pt x="536" y="203" on="0"/>
        <pt x="499" y="102" on="0"/>
        <pt x="428" y="26" on="0"/>
        <pt x="323" y="-19" on="0"/>
      </contour>
      <contour>
        <pt x="278" y="383" on="1"/>
        <pt x="261" y="383" on="0"/>
        <pt x="223" y="370" on="0"/>
        <pt x="204" y="360" on="1"/>
        <pt x="204" y="82" on="1"/>
        <pt x="226" y="72" on="0"/>
        <pt x="283" y="63" on="0"/>
        <pt x="316" y="67" on="1"/>
        <pt x="349" y="92" on="0"/>
        <pt x="385" y="184" on="0"/>
        <pt x="385" y="231" on="1"/>
        <pt x="385" y="261" on="0"/>
        <pt x="370" y="316" on="0"/>
        <pt x="343" y="358" on="0"/>
        <pt x="303" y="383" on="0"/>
      </contour>
    </TTGlyph>
    <TTGlyph name="backslash" xMin="-18" yMin="-126" xMax="396" yMax="723">
      <contour>
        <pt x="-18" y="681" on="1"/>
        <pt x="88" y="723" on="1"/>
        <pt x="396" y="-86" on="1"/>
        <pt x="288" y="-126" on="1"/>
      </contour>
    </TTGlyph>
    <TTGlyph name="bar" xMin="100" yMin="-225" xMax="212" yMax="735">
      <contour>
        <pt x="100" y="735" on="1"/>
        <pt x="211" y="735" on="1"/>
        <pt x="212" y="-225" on="1"/>
        <pt x="100" y="-225" on="1"/>
      </contour>
    </TTGlyph>
    <TTGlyph name="beta" xMin="36" yMin="-224" xMax="505" yMax="735">
      <contour>
        <pt x="36" y="-204" on="1"/>
        <pt x="43" y="3" on="1"/>
        <pt x="45" y="60" on="0"/>
        <pt x="46" y="166" on="0"/>
        <pt x="46" y="238" on="1"/>
        <pt x="46" y="453" on="1"/>
        <pt x="46" y="584" on="0"/>
        <pt x="167" y="735" on="0"/>
        <pt x="271" y="735" on="1"/>
        <pt x="358" y="735" on="0"/>
        <pt x="472" y="617" on="0"/>
        <pt x="472" y="527" on="1"/>
        <pt x="472" y="478" on="0"/>
        <pt x="415" y="402" on="0"/>
        <pt x="366" y="381" on="1"/>
        <pt x="433" y="356" on="0"/>
        <pt x="505" y="263" on="0"/>
        <pt x="505" y="199" on="1"/>
        <pt x="505" y="153" on="0"/>
        <pt x="473" y="73" on="0"/>
        <pt x="419" y="14" on="0"/>
        <pt x="344" y="-20" on="0"/>
        <pt x="302" y="-20" on="1"/>
        <pt x="253" y="-20" on="0"/>
        <pt x="157" y="31" on="0"/>
        <pt x="125" y="73" on="1"/>
        <pt x="198" y="-192" on="1"/>
        <pt x="178" y="-204" on="0"/>
        <pt x="102" y="-223" on="0"/>
        <pt x="65" y="-224" on="1"/>
      </contour>
      <contour>
        <pt x="186" y="310" on="1"/>
        <pt x="180" y="332" on="0"/>
        <pt x="175" y="396" on="0"/>
        <pt x="179" y="420" on="1"/>
        <pt x="298" y="412" on="1"/>
        <pt x="338" y="428" on="0"/>
        <pt x="386" y="490" on="0"/>
        <pt x="386" y="532" on="1"/>
        <pt x="386" y="545" on="0"/>
        <pt x="382" y="565" on="0"/>
        <pt x="378" y="573" on="1"/>
        <pt x="363" y="582" on="0"/>
        <pt x="319" y="590" on="0"/>
        <pt x="295" y="590" on="1"/>
        <pt x="213" y="590" on="0"/>
        <pt x="127" y="484" on="0"/>
        <pt x="127" y="384" on="1"/>
        <pt x="127" y="207" on="1"/>
        <pt x="127" y="190" on="0"/>
        <pt x="128" y="161" on="0"/>
        <pt x="129" y="150" on="1"/>
        <pt x="151" y="139" on="0"/>
        <pt x="217" y="127" on="0"/>
        <pt x="253" y="127" on="1"/>
        <pt x="332" y="127" on="0"/>
        <pt x="421" y="188" on="0"/>
        <pt x="425" y="230" on="1"/>
        <pt x="415" y="258" on="0"/>
        <pt x="343" y="301" on="0"/>
        <pt x="291" y="311" on="1"/>
        <pt x="214" y="290" on="1"/>
      </contour>
    </TTGlyph>
    <TTGlyph name="braceleft" xMin="65" yMin="-145" xMax="408" yMax="729">
      <contour>
        <pt x="395" y="-145" on="1"/>
        <pt x="337" y="-141" on="0"/>
        <pt x="246" y="-108" on="0"/>
        <pt x="184" y="-60" on="0"/>
        <pt x="152" y="-4" on="0"/>
        <pt x="152" y="22" on="1"/>
        <pt x="152" y="142" on="1"/>
        <pt x="152" y="172" on="0"/>
        <pt x="148" y="218" on="0"/>
        <pt x="131" y="249" on="0"/>
        <pt x="96" y="266" on="0"/>
        <pt x="65" y="268" on="1"/>
        <pt x="71" y="327" on="1"/>
        <pt x="126" y="331" on="0"/>
        <pt x="152" y="392" on="0"/>
        <pt x="152" y="443" on="1"/>
        <pt x="152" y="549" on="1"/>
        <pt x="152" y="578" on="0"/>
        <pt x="180" y="638" on="0"/>
        <pt x="241" y="688" on="0"/>
        <pt x="336" y="724" on="0"/>
        <pt x="402" y="729" on="1"/>
        <pt x="408" y="632" on="1"/>
        <pt x="299" y="632" on="1"/>
        <pt x="307" y="449" on="1"/>
        <pt x="309" y="411" on="0"/>
        <pt x="281" y="337" on="0"/>
        <pt x="253" y="304" on="1"/>
        <pt x="253" y="295" on="1"/>
        <pt x="281" y="261" on="0"/>
        <pt x="309" y="189" on="0"/>
        <pt x="307" y="149" on="1"/>
        <pt x="299" y="-36" on="1"/>
        <pt x="405" y="-48" on="1"/>
      </contour>
    </TTGlyph>
    <TTGlyph name="braceright" xMin="85" yMin="-145" xMax="428" yMax="729">
      <contour>
        <pt x="88" y="-48" on="1"/>
        <pt x="194" y="-36" on="1"/>
        <pt x="186" y="149" on="1"/>
        <pt x="184" y="189" on="0"/>
        <pt x="212" y="261" on="0"/>
        <pt x="240" y="295" on="1"/>
        <pt x="240" y="304" on="1"/>
        <pt x="212" y="337" on="0"/>
        <pt x="184" y="411" on="0"/>
        <pt x="186" y="449" on="1"/>
        <pt x="194" y="632" on="1"/>
        <pt x="85" y="632" on="1"/>
        <pt x="91" y="729" on="1"/>
        <pt x="157" y="724" on="0"/>
        <pt x="252" y="688" on="0"/>
        <pt x="313" y="638" on="0"/>
        <pt x="341" y="578" on="0"/>
        <pt x="341" y="549" on="1"/>
        <pt x="341" y="443" on="1"/>
        <pt x="341" y="392" on="0"/>
        <pt x="367" y="331" on="0"/>
        <pt x="422" y="327" on="1"/>
        <pt x="428" y="268" on="1"/>
        <pt x="397" y="266" on="0"/>
        <pt x="362" y="249" on="0"/>
        <pt x="345" y="218" on="0"/>
        <pt x="341" y="172" on="0"/>
        <pt x="341" y="142" on="1"/>
        <pt x="341" y="22" on="1"/>
        <pt x="341" y="-4" on="0"/>
        <pt x="309" y="-60" on="0"/>
        <pt x="247" y="-108" on="0"/>
        <pt x="156" y="-141" on="0"/>
        <pt x="98" y="-145" on="1"/>
      </contour>
    </TTGlyph>
    <TTGlyph name="bracketleft" xMin="91" yMin="-122" xMax="363" yMax="712">
      <contour>
        <pt x="91" y="712" on="1"/>
        <pt x="357" y="712" on="1"/>
        <pt x="363" y="652" on="1"/>
        <pt x="233" y="622" on="1"/>
        <pt x="233" y="-32" on="1"/>
        <pt x="363" y="-62" on="1"/>
        <pt x="357" y="-122" on="1"/>
        <pt x="91" y="-122" on="1"/>
      </contour>
    </TTGlyph>
    <TTGlyph name="bracketright" xMin="30" yMin="-122" xMax="302" yMax="712">
      <contour>
        <pt x="30" y="-62" on="1"/>
        <pt x="160" y="-32" on="1"/>
        <pt x="160" y="622" on="1"/>
        <pt x="30" y="652" on="1"/>
        <pt x="36" y="712" on="1"/>
        <pt x="302" y="712" on="1"/>
        <pt x="302" y="-122" on="1"/>
        <pt x="36" y="-122" on="1"/>
      </contour>
    </TTGlyph>
    <TTGlyph name="breve" xMin="32" yMin="550" xMax="354" yMax="718">
      <component glyphName="uni0306" x="192" y="0" flags="0x4"/>
    </TTGlyph>
    <TTGlyph name="brokenbar" xMin="100" yMin="-76" xMax="211" yMax="616">
      <contour>
        <pt x="100" y="616" on="1"/>
        <pt x="211" y="616" on="1"/>
        <pt x="211" y="358" on="1"/>
        <pt x="100" y="358" on="1"/>
      </contour>
      <contour>
        <pt x="100" y="182" on="1"/>
        <pt x="211" y="182" on="1"/>
        <pt x="211" y="-76" on="1"/>
        <pt x="100" y="-76" on="1"/>
      </contour>
    </TTGlyph>
    <TTGlyph name="bullet" xMin="67" yMin="109" xMax="348" yMax="407">
      <contour>
        <pt x="222" y="109" on="1"/>
        <pt x="168" y="125" on="0"/>
        <pt x="89" y="188" on="0"/>
        <pt x="67" y="235" on="1"/>
        <pt x="77" y="294" on="0"/>
        <pt x="147" y="380" on="0"/>
        <pt x="198" y="407" on="1"/>
        <pt x="251" y="386" on="0"/>
        <pt x="330" y="310" on="0"/>
        <pt x="348" y="258" on="1"/>
        <pt x="335" y="209" on="0"/>
        <pt x="271" y="134" on="0"/>
      </contour>
    </TTGlyph>
    <TTGlyph name="bulletoperator" xMin="30" yMin="172" xMax="199" yMax="340">
      <contour>
        <pt x="126" y="172" on="1"/>
        <pt x="104" y="181" on="0"/>
        <pt x="45" y="225" on="0"/>
        <pt x="30" y="246" on="1"/>
        <pt x="44" y="274" on="0"/>
        <pt x="85" y="327" on="0"/>
        <pt x="107" y="340" on="1"/>
        <pt x="132" y="330" on="0"/>
        <pt x="186" y="285" on="0"/>
        <pt x="199" y="266" on="1"/>
        <pt x="189" y="241" on="0"/>
        <pt x="148" y="187" on="0"/>
      </contour>
    </TTGlyph>
    <TTGlyph name="c" xMin="14" yMin="-15" xMax="442" yMax="496">
      <contour>
        <pt x="290" y="-14" on="1"/>
        <pt x="232" y="-20" on="0"/>
        <pt x="130" y="12" on="0"/>
        <pt x="57" y="78" on="0"/>
        <pt x="14" y="177" on="0"/>
        <pt x="14" y="237" on="1"/>
        <pt x="14" y="295" on="0"/>
        <pt x="52" y="391" on="0"/>
        <pt x="117" y="458" on="0"/>
        <pt x="207" y="496" on="0"/>
        <pt x="259" y="496" on="1"/>
        <pt x="318" y="496" on="0"/>
        <pt x="418" y="442" on="0"/>
        <pt x="442" y="388" on="1"/>
        <pt x="333" y="313" on="1"/>
        <pt x="306" y="350" on="0"/>
        <pt x="243" y="403" on="0"/>
        <pt x="209" y="414" on="1"/>
        <pt x="180" y="382" on="0"/>
        <pt x="156" y="300" on="0"/>
        <pt x="156" y="262" on="1"/>
        <pt x="156" y="185" on="0"/>
        <pt x="232" y="84" on="0"/>
        <pt x="303" y="84" on="1"/>
        <pt x="328" y="84" on="0"/>
        <pt x="383" y="98" on="0"/>
        <pt x="411" y="111" on="1"/>
        <pt x="432" y="61" on="1"/>
      </contour>
    </TTGlyph>
    <TTGlyph name="cacute" xMin="14" yMin="-15" xMax="442" yMax="768">
      <component glyphName="c" x="0" y="0" flags="0x204"/>
      <component glyphName="acutecomb" x="254" y="-3" flags="0x4"/>
    </TTGlyph>
    <TTGlyph name="caron" xMin="30" yMin="541" xMax="410" yMax="764">
      <component glyphName="uni030C" x="228" y="0" flags="0x4"/>
    </TTGlyph>
    <TTGlyph name="ccaron" xMin="14" yMin="-15" xMax="442" yMax="761">
      <component glyphName="c" x="0" y="0" flags="0x204"/>
      <component glyphName="uni030C" x="254" y="-3" flags="0x4"/>
    </TTGlyph>
    <TTGlyph name="ccedilla" xMin="14" yMin="-269" xMax="442" yMax="496">
      <component glyphName="c" x="0" y="0" flags="0x204"/>
      <component glyphName="uni0327" x="246" y="0" flags="0x4"/>
    </TTGlyph>
    <TTGlyph name="cedilla" xMin="33" yMin="-269" xMax="244" yMax="6">
      <component glyphName="uni0327" x="124" y="0" flags="0x4"/>
    </TTGlyph>
    <TTGlyph name="cent" xMin="14" yMin="-116" xMax="442" yMax="601">
      <contour>
        <pt x="214" y="601" on="1"/>
        <pt x="300" y="601" on="1"/>
        <pt x="300" y="481" on="1"/>
        <pt x="346" y="474" on="0"/>
        <pt x="423" y="424" on="0"/>
        <pt x="442" y="383" on="1"/>
        <pt x="333" y="313" on="1"/>
        <pt x="306" y="347" on="0"/>
        <pt x="243" y="397" on="0"/>
        <pt x="209" y="407" on="1"/>
        <pt x="180" y="377" on="0"/>
        <pt x="156" y="301" on="0"/>
        <pt x="156" y="266" on="1"/>
        <pt x="156" y="194" on="0"/>
        <pt x="232" y="100" on="0"/>
        <pt x="303" y="100" on="1"/>
        <pt x="328" y="100" on="0"/>
        <pt x="383" y="113" on="0"/>
        <pt x="411" y="125" on="1"/>
        <pt x="432" y="79" on="1"/>
        <pt x="300" y="14" on="1"/>
        <pt x="300" y="-116" on="1"/>
        <pt x="214" y="-116" on="1"/>
        <pt x="214" y="11" on="1"/>
        <pt x="127" y="24" on="0"/>
        <pt x="14" y="150" on="0"/>
        <pt x="14" y="243" on="1"/>
        <pt x="14" y="339" on="0"/>
        <pt x="127" y="467" on="0"/>
        <pt x="214" y="480" on="1"/>
      </contour>
    </TTGlyph>
    <TTGlyph name="chi" xMin="-4" yMin="-228" xMax="571" yMax="497">
      <contour>
        <pt x="135" y="-228" on="1"/>
        <pt x="104" y="-223" on="0"/>
        <pt x="42" y="-174" on="0"/>
        <pt x="34" y="-149" on="1"/>
        <pt x="239" y="155" on="1"/>
        <pt x="224" y="186" on="0"/>
        <pt x="194" y="246" on="0"/>
        <pt x="170" y="289" on="1"/>
        <pt x="155" y="317" on="0"/>
        <pt x="135" y="350" on="0"/>
        <pt x="124" y="366" on="1"/>
        <pt x="61" y="339" on="1"/>
        <pt x="32" y="350" on="1"/>
        <pt x="17" y="376" on="0"/>
        <pt x="-3" y="443" on="0"/>
        <pt x="-4" y="470" on="1"/>
        <pt x="21" y="480" on="0"/>
        <pt x="67" y="491" on="0"/>
        <pt x="88" y="491" on="1"/>
        <pt x="149" y="491" on="0"/>
        <pt x="250" y="388" on="0"/>
        <pt x="284" y="289" on="1"/>
        <pt x="285" y="207" on="1"/>
        <pt x="292" y="206" on="1"/>
        <pt x="416" y="483" on="1"/>
        <pt x="445" y="497" on="1"/>
        <pt x="474" y="489" on="0"/>
        <pt x="540" y="437" on="0"/>
        <pt x="550" y="415" on="1"/>
        <pt x="350" y="139" on="1"/>
        <pt x="438" y="-97" on="1"/>
        <pt x="555" y="-85" on="1"/>
        <pt x="571" y="-124" on="1"/>
        <pt x="556" y="-170" on="0"/>
        <pt x="500" y="-226" on="0"/>
        <pt x="472" y="-226" on="1"/>
        <pt x="442" y="-226" on="0"/>
        <pt x="397" y="-181" on="0"/>
        <pt x="372" y="-127" on="1"/>
        <pt x="284" y="62" on="1"/>
        <pt x="167" y="-208" on="1"/>
      </contour>
    </TTGlyph>
    <TTGlyph name="circumflex" xMin="27" yMin="531" xMax="391" yMax="734">
      <component glyphName="uni0302" x="205" y="0" flags="0x4"/>
    </TTGlyph>
    <TTGlyph name="colon" xMin="91" yMin="-20" xMax="264" yMax="471">
      <contour>
        <pt x="187" y="288" on="1"/>
        <pt x="153" y="298" on="0"/>
        <pt x="105" y="336" on="0"/>
        <pt x="91" y="365" on="1"/>
        <pt x="96" y="402" on="0"/>
        <pt x="139" y="454" on="0"/>
        <pt x="172" y="471" on="1"/>
        <pt x="206" y="457" on="0"/>
        <pt x="256" y="410" on="0"/>
        <pt x="264" y="380" on="1"/>
        <pt x="254" y="349" on="0"/>
        <pt x="215" y="303" on="0"/>
      </contour>
      <contour>
        <pt x="187" y="-20" on="1"/>
        <pt x="153" y="-11" on="0"/>
        <pt x="105" y="28" on="0"/>
        <pt x="91" y="57" on="1"/>
        <pt x="96" y="94" on="0"/>
        <pt x="139" y="146" on="0"/>
        <pt x="172" y="163" on="1"/>
        <pt x="206" y="149" on="0"/>
        <pt x="256" y="102" on="0"/>
        <pt x="264" y="71" on="1"/>
        <pt x="254" y="40" on="0"/>
        <pt x="215" y="-6" on="0"/>
      </contour>
    </TTGlyph>
    <TTGlyph name="comma" xMin="46" yMin="-143" xMax="230" yMax="161">
      <contour>
        <pt x="46" y="-97" on="1"/>
        <pt x="77" y="-71" on="0"/>
        <pt x="113" y="-12" on="0"/>
        <pt x="115" y="14" on="1"/>
        <pt x="62" y="57" on="1"/>
        <pt x="67" y="94" on="0"/>
        <pt x="110" y="145" on="0"/>
        <pt x="141" y="161" on="1"/>
        <pt x="185" y="145" on="0"/>
        <pt x="230" y="84" on="0"/>
        <pt x="230" y="48" on="1"/>
        <pt x="230" y="-5" on="0"/>
        <pt x="146" y="-114" on="0"/>
        <pt x="84" y="-143" on="1"/>
      </contour>
    </TTGlyph>
    <TTGlyph name="copyright" xMin="43" yMin="-23" xMax="756" yMax="689">
      <contour>
        <pt x="400" y="-23" on="1"/>
        <pt x="326" y="-23" on="0"/>
        <pt x="196" y="31" on="0"/>
        <pt x="99" y="126" on="0"/>
        <pt x="43" y="257" on="0"/>
        <pt x="43" y="332" on="1"/>
        <pt x="43" y="407" on="0"/>
        <pt x="99" y="538" on="0"/>
        <pt x="194" y="633" on="0"/>
        <pt x="324" y="689" on="0"/>
        <pt x="398" y="689" on="1"/>
        <pt x="472" y="689" on="0"/>
        <pt x="602" y="633" on="0"/>
        <pt x="699" y="537" on="0"/>
        <pt x="756" y="406" on="0"/>
        <pt x="756" y="331" on="1"/>
        <pt x="756" y="258" on="0"/>
        <pt x="701" y="128" on="0"/>
        <pt x="605" y="33" on="0"/>
        <pt x="475" y="-23" on="0"/>
      </contour>
      <contour>
        <pt x="398" y="50" on="1"/>
        <pt x="458" y="50" on="0"/>
        <pt x="563" y="95" on="0"/>
        <pt x="640" y="171" on="0"/>
        <pt x="684" y="275" on="0"/>
        <pt x="684" y="333" on="1"/>
        <pt x="684" y="392" on="0"/>
        <pt x="639" y="496" on="0"/>
        <pt x="563" y="572" on="0"/>
        <pt x="459" y="617" on="0"/>
        <pt x="400" y="617" on="1"/>
        <pt x="342" y="617" on="0"/>
        <pt x="238" y="572" on="0"/>
        <pt x="161" y="495" on="0"/>
        <pt x="116" y="390" on="0"/>
        <pt x="116" y="330" on="1"/>
        <pt x="116" y="271" on="0"/>
        <pt x="160" y="168" on="0"/>
        <pt x="236" y="93" on="0"/>
        <pt x="339" y="50" on="0"/>
      </contour>
      <contour>
        <pt x="430" y="135" on="1"/>
        <pt x="334" y="131" on="0"/>
        <pt x="210" y="241" on="0"/>
        <pt x="210" y="330" on="1"/>
        <pt x="210" y="372" on="0"/>
        <pt x="239" y="445" on="0"/>
        <pt x="292" y="498" on="0"/>
        <pt x="367" y="529" on="0"/>
        <pt x="412" y="529" on="1"/>
        <pt x="460" y="529" on="0"/>
        <pt x="543" y="486" on="0"/>
        <pt x="571" y="432" on="1"/>
        <pt x="478" y="375" on="1"/>
        <pt x="459" y="409" on="0"/>
        <pt x="408" y="453" on="0"/>
        <pt x="371" y="463" on="1"/>
        <pt x="346" y="440" on="0"/>
        <pt x="322" y="376" on="0"/>
        <pt x="322" y="346" on="1"/>
        <pt x="322" y="297" on="0"/>
        <pt x="389" y="224" on="0"/>
        <pt x="453" y="224" on="1"/>
        <pt x="475" y="224" on="0"/>
        <pt x="518" y="234" on="0"/>
        <pt x="543" y="244" on="1"/>
        <pt x="560" y="199" on="1"/>
      </contour>
    </TTGlyph>
    <TTGlyph name="currency" xMin="52" yMin="125" xMax="458" yMax="583">
      <contour>
        <pt x="58" y="170" on="1"/>
        <pt x="113" y="233" on="1"/>
        <pt x="94" y="258" on="0"/>
        <pt x="73" y="321" on="0"/>
        <pt x="73" y="357" on="1"/>
        <pt x="73" y="391" on="0"/>
        <pt x="93" y="450" on="0"/>
        <pt x="111" y="472" on="1"/>
        <pt x="52" y="538" on="1"/>
        <pt x="103" y="583" on="1"/>
        <pt x="161" y="518" on="1"/>
        <pt x="183" y="531" on="0"/>
        <pt x="233" y="545" on="0"/>
        <pt x="258" y="545" on="1"/>
        <pt x="283" y="545" on="0"/>
        <pt x="332" y="532" on="0"/>
        <pt x="353" y="519" on="1"/>
        <pt x="406" y="582" on="1"/>
        <pt x="458" y="539" on="1"/>
        <pt x="401" y="474" on="1"/>
        <pt x="416" y="452" on="0"/>
        <pt x="434" y="393" on="0"/>
        <pt x="434" y="358" on="1"/>
        <pt x="434" y="321" on="0"/>
        <pt x="414" y="261" on="0"/>
        <pt x="397" y="238" on="1"/>
        <pt x="456" y="174" on="1"/>
        <pt x="408" y="127" on="1"/>
        <pt x="348" y="192" on="1"/>
        <pt x="327" y="179" on="0"/>
        <pt x="279" y="165" on="0"/>
        <pt x="254" y="165" on="1"/>
        <pt x="229" y="165" on="0"/>
        <pt x="181" y="178" on="0"/>
        <pt x="162" y="190" on="1"/>
        <pt x="108" y="125" on="1"/>
      </contour>
      <contour>
        <pt x="270" y="246" on="1"/>
        <pt x="277" y="246" on="0"/>
        <pt x="296" y="248" on="0"/>
        <pt x="306" y="250" on="1"/>
        <pt x="320" y="259" on="0"/>
        <pt x="343" y="315" on="0"/>
        <pt x="343" y="348" on="1"/>
        <pt x="343" y="368" on="0"/>
        <pt x="332" y="409" on="0"/>
        <pt x="307" y="442" on="0"/>
        <pt x="266" y="463" on="0"/>
        <pt x="236" y="463" on="1"/>
        <pt x="228" y="463" on="0"/>
        <pt x="212" y="461" on="0"/>
        <pt x="202" y="459" on="1"/>
        <pt x="186" y="446" on="0"/>
        <pt x="164" y="392" on="0"/>
        <pt x="164" y="362" on="1"/>
        <pt x="164" y="341" on="0"/>
        <pt x="176" y="299" on="0"/>
        <pt x="202" y="266" on="0"/>
        <pt x="242" y="246" on="0"/>
      </contour>
    </TTGlyph>
    <TTGlyph name="d" xMin="14" yMin="-16" xMax="569" yMax="736">
      <contour>
        <pt x="239" y="-16" on="1"/>
        <pt x="188" y="-17" on="0"/>
        <pt x="104" y="23" on="0"/>
        <pt x="46" y="92" on="0"/>
        <pt x="14" y="184" on="0"/>
        <pt x="14" y="234" on="1"/>
        <pt x="14" y="288" on="0"/>
        <pt x="51" y="383" on="0"/>
        <pt x="119" y="454" on="0"/>
        <pt x="217" y="495" on="0"/>
        <pt x="276" y="495" on="1"/>
        <pt x="292" y="495" on="0"/>
        <pt x="325" y="491" on="0"/>
        <pt x="340" y="487" on="1"/>
        <pt x="340" y="645" on="1"/>
        <pt x="265" y="653" on="1"/>
        <pt x="258" y="701" on="1"/>
        <pt x="297" y="716" on="0"/>
        <pt x="390" y="735" on="0"/>
        <pt x="436" y="736" on="1"/>
        <pt x="485" y="691" on="1"/>
        <pt x="485" y="110" on="1"/>
        <pt x="485" y="100" on="0"/>
        <pt x="499" y="87" on="0"/>
        <pt x="510" y="87" on="1"/>
        <pt x="521" y="87" on="0"/>
        <pt x="546" y="91" on="0"/>
        <pt x="560" y="93" on="1"/>
        <pt x="569" y="48" on="1"/>
        <pt x="446" y="-16" on="1"/>
        <pt x="421" y="-15" on="0"/>
        <pt x="364" y="33" on="0"/>
        <pt x="352" y="65" on="1"/>
      </contour>
      <contour>
        <pt x="166" y="249" on="1"/>
        <pt x="166" y="186" on="0"/>
        <pt x="224" y="96" on="0"/>
        <pt x="277" y="96" on="1"/>
        <pt x="290" y="96" on="0"/>
        <pt x="322" y="104" on="0"/>
        <pt x="340" y="111" on="1"/>
        <pt x="340" y="388" on="1"/>
        <pt x="315" y="401" on="0"/>
        <pt x="258" y="414" on="0"/>
        <pt x="227" y="411" on="1"/>
        <pt x="197" y="383" on="0"/>
        <pt x="166" y="295" on="0"/>
      </contour>
    </TTGlyph>
    <TTGlyph name="dagger" xMin="42" yMin="-180" xMax="513" yMax="689">
      <contour>
        <pt x="42" y="417" on="1"/>
        <pt x="85" y="469" on="1"/>
        <pt x="198" y="469" on="1"/>
        <pt x="192" y="649" on="1"/>
        <pt x="230" y="689" on="1"/>
        <pt x="351" y="685" on="1"/>
        <pt x="343" y="469" on="1"/>
        <pt x="507" y="469" on="1"/>
        <pt x="513" y="436" on="1"/>
        <pt x="470" y="384" on="1"/>
        <pt x="340" y="384" on="1"/>
        <pt x="319" y="-180" on="1"/>
        <pt x="218" y="-180" on="1"/>
        <pt x="200" y="384" on="1"/>
        <pt x="48" y="384" on="1"/>
      </contour>
    </TTGlyph>
    <TTGlyph name="daggerdbl" xMin="42" yMin="-180" xMax="518" yMax="689">
      <contour>
        <pt x="42" y="163" on="1"/>
        <pt x="85" y="214" on="1"/>
        <pt x="212" y="214" on="1"/>
        <pt x="206" y="384" on="1"/>
        <pt x="53" y="384" on="1"/>
        <pt x="47" y="417" on="1"/>
        <pt x="90" y="469" on="1"/>
        <pt x="204" y="469" on="1"/>
        <pt x="198" y="649" on="1"/>
        <pt x="236" y="689" on="1"/>
        <pt x="357" y="685" on="1"/>
        <pt x="349" y="469" on="1"/>
        <pt x="512" y="469" on="1"/>
        <pt x="518" y="436" on="1"/>
        <pt x="475" y="384" on="1"/>
        <pt x="346" y="384" on="1"/>
        <pt x="340" y="214" on="1"/>
        <pt x="507" y="214" on="1"/>
        <pt x="513" y="181" on="1"/>
        <pt x="470" y="130" on="1"/>
        <pt x="336" y="130" on="1"/>
        <pt x="325" y="-180" on="1"/>
        <pt x="224" y="-180" on="1"/>
        <pt x="214" y="130" on="1"/>
        <pt x="48" y="130" on="1"/>
      </contour>
    </TTGlyph>
    <TTGlyph name="dcaron" xMin="14" yMin="-16" xMax="710" yMax="808">
      <component glyphName="d" x="0" y="0" flags="0x204"/>
      <component glyphName="uni030C.calt" x="565" y="49" flags="0x4"/>
    </TTGlyph>
    <TTGlyph name="dcroat" xMin="14" yMin="-16" xMax="581" yMax="736">
      <contour>
        <pt x="239" y="-16" on="1"/>
        <pt x="188" y="-17" on="0"/>
        <pt x="104" y="23" on="0"/>
        <pt x="46" y="92" on="0"/>
        <pt x="14" y="184" on="0"/>
        <pt x="14" y="234" on="1"/>
        <pt x="14" y="288" on="0"/>
        <pt x="51" y="383" on="0"/>
        <pt x="119" y="454" on="0"/>
        <pt x="217" y="495" on="0"/>
        <pt x="276" y="495" on="1"/>
        <pt x="292" y="495" on="0"/>
        <pt x="325" y="491" on="0"/>
        <pt x="340" y="487" on="1"/>
        <pt x="340" y="537" on="1"/>
        <pt x="225" y="537" on="1"/>
        <pt x="219" y="570" on="1"/>
        <pt x="262" y="603" on="1"/>
        <pt x="340" y="603" on="1"/>
        <pt x="340" y="645" on="1"/>
        <pt x="265" y="653" on="1"/>
        <pt x="258" y="701" on="1"/>
        <pt x="297" y="716" on="0"/>
        <pt x="390" y="735" on="0"/>
        <pt x="436" y="736" on="1"/>
        <pt x="485" y="691" on="1"/>
        <pt x="485" y="603" on="1"/>
        <pt x="575" y="603" on="1"/>
        <pt x="581" y="570" on="1"/>
        <pt x="538" y="537" on="1"/>
        <pt x="485" y="537" on="1"/>
        <pt x="485" y="110" on="1"/>
        <pt x="485" y="100" on="0"/>
        <pt x="499" y="87" on="0"/>
        <pt x="510" y="87" on="1"/>
        <pt x="521" y="87" on="0"/>
        <pt x="546" y="91" on="0"/>
        <pt x="560" y="93" on="1"/>
        <pt x="569" y="48" on="1"/>
        <pt x="446" y="-16" on="1"/>
        <pt x="421" y="-15" on="0"/>
        <pt x="364" y="33" on="0"/>
        <pt x="352" y="65" on="1"/>
      </contour>
      <contour>
        <pt x="166" y="249" on="1"/>
        <pt x="166" y="186" on="0"/>
        <pt x="224" y="96" on="0"/>
        <pt x="277" y="96" on="1"/>
        <pt x="290" y="96" on="0"/>
        <pt x="322" y="104" on="0"/>
        <pt x="340" y="111" on="1"/>
        <pt x="340" y="388" on="1"/>
        <pt x="315" y="401" on="0"/>
        <pt x="258" y="414" on="0"/>
        <pt x="227" y="411" on="1"/>
        <pt x="197" y="383" on="0"/>
        <pt x="166" y="295" on="0"/>
      </contour>
    </TTGlyph>
    <TTGlyph name="degree" xMin="30" yMin="377" xMax="304" yMax="650">
      <contour>
        <pt x="169" y="377" on="1"/>
        <pt x="114" y="377" on="0"/>
        <pt x="30" y="452" on="0"/>
        <pt x="30" y="513" on="1"/>
        <pt x="30" y="570" on="0"/>
        <pt x="108" y="650" on="0"/>
        <pt x="165" y="650" on="1"/>
        <pt x="224" y="650" on="0"/>
        <pt x="304" y="570" on="0"/>
        <pt x="304" y="513" on="1"/>
        <pt x="304" y="451" on="0"/>
        <pt x="228" y="377" on="0"/>
      </contour>
      <contour>
        <pt x="174" y="444" on="1"/>
        <pt x="181" y="444" on="0"/>
        <pt x="196" y="446" on="0"/>
        <pt x="203" y="448" on="1"/>
        <pt x="214" y="459" on="0"/>
        <pt x="225" y="489" on="0"/>
        <pt x="225" y="505" on="1"/>
        <pt x="225" y="533" on="0"/>
        <pt x="190" y="581" on="0"/>
        <pt x="159" y="581" on="1"/>
        <pt x="152" y="581" on="0"/>
        <pt x="135" y="578" on="0"/>
        <pt x="126" y="574" on="1"/>
        <pt x="117" y="562" on="0"/>
        <pt x="107" y="533" on="0"/>
        <pt x="107" y="518" on="1"/>
        <pt x="107" y="490" on="0"/>
        <pt x="141" y="444" on="0"/>
      </contour>
    </TTGlyph>
    <TTGlyph name="delta" xMin="24" yMin="-20" xMax="471" yMax="735">
      <contour>
        <pt x="244" y="-20" on="1"/>
        <pt x="197" y="-20" on="0"/>
        <pt x="116" y="16" on="0"/>
        <pt x="57" y="78" on="0"/>
        <pt x="24" y="165" on="0"/>
        <pt x="24" y="215" on="1"/>
        <pt x="24" y="291" on="0"/>
        <pt x="106" y="398" on="0"/>
        <pt x="175" y="412" on="1"/>
        <pt x="123" y="445" on="0"/>
        <pt x="68" y="533" on="0"/>
        <pt x="68" y="587" on="1"/>
        <pt x="68" y="653" on="0"/>
        <pt x="163" y="735" on="0"/>
        <pt x="239" y="735" on="1"/>
        <pt x="269" y="735" on="0"/>
        <pt x="331" y="724" on="0"/>
        <pt x="362" y="713" on="1"/>
        <pt x="394" y="701" on="0"/>
        <pt x="452" y="671" on="0"/>
        <pt x="471" y="655" on="1"/>
        <pt x="470" y="634" on="0"/>
        <pt x="452" y="563" on="0"/>
        <pt x="442" y="544" on="1"/>
        <pt x="413" y="535" on="1"/>
        <pt x="350" y="576" on="0"/>
        <pt x="249" y="615" on="0"/>
        <pt x="206" y="615" on="1"/>
        <pt x="173" y="615" on="0"/>
        <pt x="131" y="591" on="0"/>
        <pt x="128" y="571" on="1"/>
        <pt x="141" y="544" on="0"/>
        <pt x="252" y="502" on="0"/>
        <pt x="374" y="438" on="0"/>
        <pt x="471" y="331" on="0"/>
        <pt x="471" y="240" on="1"/>
        <pt x="471" y="184" on="0"/>
        <pt x="437" y="88" on="0"/>
        <pt x="377" y="19" on="0"/>
        <pt x="293" y="-20" on="0"/>
      </contour>
      <contour>
        <pt x="119" y="143" on="1"/>
        <pt x="138" y="135" on="0"/>
        <pt x="185" y="127" on="0"/>
        <pt x="211" y="127" on="1"/>
        <pt x="287" y="127" on="0"/>
        <pt x="394" y="206" on="0"/>
        <pt x="400" y="266" on="1"/>
        <pt x="387" y="285" on="0"/>
        <pt x="342" y="318" on="0"/>
        <pt x="305" y="336" on="1"/>
        <pt x="208" y="326" on="0"/>
        <pt x="103" y="252" on="0"/>
        <pt x="103" y="201" on="1"/>
        <pt x="103" y="183" on="0"/>
        <pt x="111" y="153" on="0"/>
      </contour>
    </TTGlyph>
    <TTGlyph name="dieresis" xMin="40" yMin="550" xMax="429" yMax="719">
      <component glyphName="uni0308" x="234" y="0" flags="0x4"/>
    </TTGlyph>
    <TTGlyph name="dieresisacute" xMin="-90" yMin="531" xMax="405" yMax="785">
      <component glyphName="dieresistonos" x="-13" y="0" flags="0x4"/>
    </TTGlyph>
    <TTGlyph name="dieresisgrave" xMin="-90" yMin="531" xMax="405" yMax="785">
      <contour>
        <pt x="77" y="730" on="1"/>
        <pt x="80" y="758" on="1"/>
        <pt x="99" y="771" on="0"/>
        <pt x="160" y="788" on="0"/>
        <pt x="189" y="784" on="1"/>
        <pt x="219" y="547" on="1"/>
        <pt x="162" y="531" on="1"/>
      </contour>
      <contour>
        <pt x="-2" y="550" on="1"/>
        <pt x="-33" y="559" on="0"/>
        <pt x="-77" y="594" on="0"/>
        <pt x="-90" y="621" on="1"/>
        <pt x="-86" y="655" on="0"/>
        <pt x="-44" y="703" on="0"/>
        <pt x="-16" y="719" on="1"/>
        <pt x="15" y="707" on="0"/>
        <pt x="63" y="663" on="0"/>
        <pt x="70" y="634" on="1"/>
        <pt x="61" y="606" on="0"/>
        <pt x="26" y="563" on="0"/>
      </contour>
      <contour>
        <pt x="333" y="550" on="1"/>
        <pt x="302" y="559" on="0"/>
        <pt x="259" y="594" on="0"/>
        <pt x="246" y="621" on="1"/>
        <pt x="250" y="655" on="0"/>
        <pt x="292" y="703" on="0"/>
        <pt x="320" y="719" on="1"/>
        <pt x="350" y="707" on="0"/>
        <pt x="398" y="663" on="0"/>
        <pt x="405" y="634" on="1"/>
        <pt x="396" y="606" on="0"/>
        <pt x="361" y="563" on="0"/>
      </contour>
    </TTGlyph>
    <TTGlyph name="dieresistilde" xMin="-25" yMin="570" xMax="375" yMax="938">
      <component glyphName="grTilde" x="17" y="208" flags="0x4"/>
      <component glyphName="uni0308" x="178" y="20" flags="0x4"/>
    </TTGlyph>
    <TTGlyph name="dieresistonos" xMin="-77" yMin="531" xMax="418" yMax="785">
      <contour>
        <pt x="114" y="547" on="1"/>
        <pt x="144" y="784" on="1"/>
        <pt x="173" y="788" on="0"/>
        <pt x="234" y="771" on="0"/>
        <pt x="253" y="758" on="1"/>
        <pt x="256" y="730" on="1"/>
        <pt x="171" y="531" on="1"/>
      </contour>
      <contour>
        <pt x="11" y="550" on="1"/>
        <pt x="-20" y="559" on="0"/>
        <pt x="-64" y="594" on="0"/>
        <pt x="-77" y="621" on="1"/>
        <pt x="-73" y="655" on="0"/>
        <pt x="-31" y="703" on="0"/>
        <pt x="-3" y="719" on="1"/>
        <pt x="28" y="707" on="0"/>
        <pt x="76" y="663" on="0"/>
        <pt x="83" y="634" on="1"/>
        <pt x="74" y="606" on="0"/>
        <pt x="39" y="563" on="0"/>
      </contour>
      <contour>
        <pt x="346" y="550" on="1"/>
        <pt x="315" y="559" on="0"/>
        <pt x="272" y="594" on="0"/>
        <pt x="259" y="621" on="1"/>
        <pt x="263" y="655" on="0"/>
        <pt x="305" y="703" on="0"/>
        <pt x="333" y="719" on="1"/>
        <pt x="363" y="707" on="0"/>
        <pt x="411" y="663" on="0"/>
        <pt x="418" y="634" on="1"/>
        <pt x="409" y="606" on="0"/>
        <pt x="374" y="563" on="0"/>
      </contour>
    </TTGlyph>
    <TTGlyph name="divide" xMin="56" yMin="-21" xMax="542" yMax="514">
      <contour>
        <pt x="310" y="346" on="1"/>
        <pt x="269" y="356" on="0"/>
        <pt x="229" y="404" on="0"/>
        <pt x="222" y="417" on="1"/>
        <pt x="225" y="438" on="0"/>
        <pt x="243" y="471" on="0"/>
        <pt x="266" y="494" on="0"/>
        <pt x="289" y="510" on="0"/>
        <pt x="296" y="514" on="1"/>
        <pt x="341" y="496" on="0"/>
        <pt x="377" y="444" on="0"/>
        <pt x="381" y="430" on="1"/>
        <pt x="377" y="416" on="0"/>
        <pt x="346" y="363" on="0"/>
      </contour>
      <contour>
        <pt x="56" y="292" on="1"/>
        <pt x="542" y="292" on="1"/>
        <pt x="542" y="204" on="1"/>
        <pt x="56" y="204" on="1"/>
      </contour>
      <contour>
        <pt x="310" y="-21" on="1"/>
        <pt x="269" y="-11" on="0"/>
        <pt x="229" y="38" on="0"/>
        <pt x="222" y="51" on="1"/>
        <pt x="225" y="72" on="0"/>
        <pt x="243" y="105" on="0"/>
        <pt x="266" y="128" on="0"/>
        <pt x="289" y="144" on="0"/>
        <pt x="296" y="148" on="1"/>
        <pt x="341" y="129" on="0"/>
        <pt x="377" y="77" on="0"/>
        <pt x="381" y="63" on="1"/>
        <pt x="377" y="50" on="0"/>
        <pt x="346" y="-4" on="0"/>
      </contour>
    </TTGlyph>
    <TTGlyph name="dollar" xMin="51" yMin="-145" xMax="539" yMax="785">
      <contour>
        <pt x="53" y="44" on="1"/>
        <pt x="52" y="59" on="0"/>
        <pt x="52" y="105" on="0"/>
        <pt x="57" y="157" on="0"/>
        <pt x="64" y="209" on="0"/>
        <pt x="68" y="230" on="1"/>
        <pt x="140" y="230" on="1"/>
        <pt x="189" y="90" on="1"/>
        <pt x="225" y="74" on="0"/>
        <pt x="299" y="61" on="0"/>
        <pt x="333" y="61" on="1"/>
        <pt x="362" y="75" on="0"/>
        <pt x="388" y="123" on="0"/>
        <pt x="388" y="145" on="1"/>
        <pt x="388" y="192" on="0"/>
        <pt x="304" y="246" on="0"/>
        <pt x="241" y="275" on="1"/>
        <pt x="208" y="291" on="0"/>
        <pt x="141" y="327" on="0"/>
        <pt x="88" y="375" on="0"/>
        <pt x="54" y="439" on="0"/>
        <pt x="54" y="481" on="1"/>
        <pt x="54" y="559" on="0"/>
        <pt x="167" y="661" on="0"/>
        <pt x="254" y="674" on="1"/>
        <pt x="254" y="785" on="1"/>
        <pt x="356" y="785" on="1"/>
        <pt x="356" y="676" on="1"/>
        <pt x="399" y="672" on="0"/>
        <pt x="480" y="652" on="0"/>
        <pt x="509" y="642" on="1"/>
        <pt x="509" y="607" on="0"/>
        <pt x="502" y="504" on="0"/>
        <pt x="492" y="459" on="1"/>
        <pt x="412" y="459" on="1"/>
        <pt x="383" y="571" on="1"/>
        <pt x="351" y="587" on="0"/>
        <pt x="280" y="600" on="0"/>
        <pt x="244" y="599" on="1"/>
        <pt x="221" y="585" on="0"/>
        <pt x="198" y="539" on="0"/>
        <pt x="198" y="518" on="1"/>
        <pt x="198" y="475" on="0"/>
        <pt x="290" y="423" on="0"/>
        <pt x="353" y="393" on="1"/>
        <pt x="387" y="377" on="0"/>
        <pt x="454" y="340" on="0"/>
        <pt x="507" y="291" on="0"/>
        <pt x="539" y="225" on="0"/>
        <pt x="539" y="181" on="1"/>
        <pt x="539" y="141" on="0"/>
        <pt x="511" y="76" on="0"/>
        <pt x="462" y="27" on="0"/>
        <pt x="395" y="-6" on="0"/>
        <pt x="357" y="-14" on="1"/>
        <pt x="357" y="-145" on="1"/>
        <pt x="254" y="-145" on="1"/>
        <pt x="254" y="-18" on="1"/>
        <pt x="203" y="-14" on="0"/>
        <pt x="91" y="19" on="0"/>
      </contour>
    </TTGlyph>
    <TTGlyph name="dotaccent" xMin="30" yMin="550" xMax="189" yMax="719">
      <component glyphName="uni0307" x="108" y="0" flags="0x4"/>
    </TTGlyph>
    <TTGlyph name="dotbelowcomb" xMin="-78" yMin="-268" xMax="81" yMax="-98">
      <contour>
        <pt x="10" y="-268" on="1"/>
        <pt x="-21" y="-258" on="0"/>
        <pt x="-65" y="-224" on="0"/>
        <pt x="-78" y="-197" on="1"/>
        <pt x="-74" y="-163" on="0"/>
        <pt x="-32" y="-114" on="0"/>
        <pt x="-4" y="-98" on="1"/>
        <pt x="26" y="-111" on="0"/>
        <pt x="75" y="-157" on="0"/>
        <pt x="81" y="-183" on="1"/>
        <pt x="73" y="-211" on="0"/>
        <pt x="37" y="-254" on="0"/>
      </contour>
    </TTGlyph>
    <TTGlyph name="dotbelowcomb.case" xMin="-78" yMin="-268" xMax="81" yMax="-98">
      <component glyphName="dotbelowcomb" x="0" y="0" flags="0x204"/>
    </TTGlyph>
    <TTGlyph name="dotlessi" xMin="9" yMin="0" xMax="297" yMax="490">
      <contour>
        <pt x="18" y="34" on="1"/>
        <pt x="34" y="43" on="0"/>
        <pt x="72" y="59" on="0"/>
        <pt x="91" y="66" on="1"/>
        <pt x="91" y="398" on="1"/>
        <pt x="16" y="407" on="1"/>
        <pt x="9" y="455" on="1"/>
        <pt x="48" y="470" on="0"/>
        <pt x="141" y="489" on="0"/>
        <pt x="187" y="490" on="1"/>
        <pt x="236" y="446" on="1"/>
        <pt x="236" y="76" on="1"/>
        <pt x="252" y="71" on="0"/>
        <pt x="284" y="57" on="0"/>
        <pt x="297" y="49" on="1"/>
        <pt x="293" y="0" on="1"/>
        <pt x="21" y="0" on="1"/>
      </contour>
    </TTGlyph>
    <TTGlyph name="dvKSPLa" xMin="-48" yMin="-58" xMax="2147" yMax="639">
      <component glyphName="uni0915094D" x="0" y="0" flags="0x4"/>
      <component glyphName="uni0938094D" x="603" y="0" flags="0x4"/>
      <component glyphName="uni092A094D" x="1045" y="0" flags="0x4"/>
      <component glyphName="uni0932" x="1364" y="0" flags="0x4"/>
    </TTGlyph>
    <TTGlyph name="dvKSPLa.MAR" xMin="-48" yMin="-58" xMax="2171" yMax="639">
      <component glyphName="uni0915094D" x="0" y="0" flags="0x4"/>
      <component glyphName="uni0938094D" x="632" y="0" flags="0x4"/>
      <component glyphName="uni092A094D" x="1064" y="0" flags="0x4"/>
      <component glyphName="uni0932.MAR" x="1385" y="0" flags="0x4"/>
    </TTGlyph>
    <TTGlyph name="e" xMin="14" yMin="-14" xMax="466" yMax="496">
      <contour>
        <pt x="298" y="-13" on="1"/>
        <pt x="237" y="-19" on="0"/>
        <pt x="132" y="13" on="0"/>
        <pt x="57" y="78" on="0"/>
        <pt x="14" y="174" on="0"/>
        <pt x="14" y="231" on="1"/>
        <pt x="14" y="287" on="0"/>
        <pt x="53" y="384" on="0"/>
        <pt x="120" y="455" on="0"/>
        <pt x="210" y="496" on="0"/>
        <pt x="261" y="496" on="1"/>
        <pt x="299" y="496" on="0"/>
        <pt x="373" y="471" on="0"/>
        <pt x="431" y="422" on="0"/>
        <pt x="466" y="346" on="0"/>
        <pt x="466" y="296" on="1"/>
        <pt x="408" y="238" on="1"/>
        <pt x="153" y="241" on="1"/>
        <pt x="157" y="166" on="0"/>
        <pt x="243" y="85" on="0"/>
        <pt x="306" y="85" on="1"/>
        <pt x="337" y="85" on="0"/>
        <pt x="399" y="104" on="0"/>
        <pt x="434" y="121" on="1"/>
        <pt x="455" y="68" on="1"/>
      </contour>
      <contour>
        <pt x="226" y="420" on="1"/>
        <pt x="199" y="404" on="0"/>
        <pt x="166" y="344" on="0"/>
        <pt x="159" y="310" on="1"/>
        <pt x="332" y="319" on="1"/>
        <pt x="325" y="361" on="0"/>
        <pt x="267" y="420" on="0"/>
      </contour>
    </TTGlyph>
    <TTGlyph name="eacute" xMin="14" yMin="-14" xMax="466" yMax="768">
      <component glyphName="e" x="0" y="0" flags="0x204"/>
      <component glyphName="acutecomb" x="255" y="-3" flags="0x4"/>
    </TTGlyph>
    <TTGlyph name="ecaron" xMin="14" yMin="-14" xMax="466" yMax="761">
      <component glyphName="e" x="0" y="0" flags="0x204"/>
      <component glyphName="uni030C" x="255" y="-3" flags="0x4"/>
    </TTGlyph>
    <TTGlyph name="ecircumflex" xMin="14" yMin="-14" xMax="466" yMax="731">
      <component glyphName="e" x="0" y="0" flags="0x204"/>
      <component glyphName="uni0302" x="255" y="-3" flags="0x4"/>
    </TTGlyph>
    <TTGlyph name="edieresis" xMin="14" yMin="-14" xMax="466" yMax="716">
      <component glyphName="e" x="0" y="0" flags="0x204"/>
      <component glyphName="uni0308" x="255" y="-3" flags="0x4"/>
    </TTGlyph>
    <TTGlyph name="edotaccent" xMin="14" yMin="-14" xMax="466" yMax="716">
      <component glyphName="e" x="0" y="0" flags="0x204"/>
      <component glyphName="uni0307" x="255" y="-3" flags="0x4"/>
    </TTGlyph>
    <TTGlyph name="egrave" xMin="14" yMin="-14" xMax="466" yMax="768">
      <component glyphName="e" x="0" y="0" flags="0x204"/>
      <component glyphName="gravecomb" x="255" y="-3" flags="0x4"/>
    </TTGlyph>
    <TTGlyph name="eight" xMin="38" yMin="-21" xMax="510" yMax="668">
      <contour>
        <pt x="273" y="-21" on="1"/>
        <pt x="222" y="-21" on="0"/>
        <pt x="135" y="5" on="0"/>
        <pt x="73" y="53" on="0"/>
        <pt x="38" y="118" on="0"/>
        <pt x="38" y="157" on="1"/>
        <pt x="38" y="209" on="0"/>
        <pt x="102" y="300" on="0"/>
        <pt x="162" y="329" on="1"/>
        <pt x="113" y="360" on="0"/>
        <pt x="57" y="440" on="0"/>
        <pt x="57" y="489" on="1"/>
        <pt x="57" y="524" on="0"/>
        <pt x="87" y="590" on="0"/>
        <pt x="142" y="639" on="0"/>
        <pt x="225" y="668" on="0"/>
        <pt x="277" y="668" on="1"/>
        <pt x="327" y="668" on="0"/>
        <pt x="405" y="642" on="0"/>
        <pt x="459" y="598" on="0"/>
        <pt x="487" y="539" on="0"/>
        <pt x="487" y="507" on="1"/>
        <pt x="487" y="465" on="0"/>
        <pt x="434" y="382" on="0"/>
        <pt x="378" y="351" on="1"/>
        <pt x="432" y="319" on="0"/>
        <pt x="510" y="232" on="0"/>
        <pt x="510" y="167" on="1"/>
        <pt x="510" y="85" on="0"/>
        <pt x="377" y="-21" on="0"/>
      </contour>
      <contour>
        <pt x="189" y="513" on="1"/>
        <pt x="189" y="472" on="0"/>
        <pt x="258" y="417" on="0"/>
        <pt x="305" y="392" on="1"/>
        <pt x="343" y="421" on="0"/>
        <pt x="366" y="479" on="0"/>
        <pt x="366" y="500" on="1"/>
        <pt x="366" y="540" on="0"/>
        <pt x="313" y="594" on="0"/>
        <pt x="271" y="594" on="1"/>
        <pt x="258" y="594" on="0"/>
        <pt x="231" y="589" on="0"/>
        <pt x="217" y="583" on="1"/>
        <pt x="202" y="565" on="0"/>
        <pt x="189" y="529" on="0"/>
      </contour>
      <contour>
        <pt x="180" y="158" on="1"/>
        <pt x="180" y="115" on="0"/>
        <pt x="235" y="52" on="0"/>
        <pt x="287" y="52" on="1"/>
        <pt x="300" y="52" on="0"/>
        <pt x="332" y="58" on="0"/>
        <pt x="349" y="63" on="1"/>
        <pt x="362" y="84" on="0"/>
        <pt x="374" y="120" on="0"/>
        <pt x="374" y="139" on="1"/>
        <pt x="374" y="181" on="0"/>
        <pt x="315" y="244" on="0"/>
        <pt x="248" y="281" on="1"/>
        <pt x="214" y="257" on="0"/>
        <pt x="180" y="190" on="0"/>
      </contour>
    </TTGlyph>
    <TTGlyph name="ellipsis" xMin="91" yMin="-19" xMax="872" yMax="164">
      <contour>
        <pt x="795" y="-19" on="1"/>
        <pt x="761" y="-10" on="0"/>
        <pt x="713" y="29" on="0"/>
        <pt x="699" y="58" on="1"/>
        <pt x="704" y="95" on="0"/>
        <pt x="747" y="147" on="0"/>
        <pt x="780" y="164" on="1"/>
        <pt x="814" y="150" on="0"/>
        <pt x="864" y="103" on="0"/>
        <pt x="872" y="73" on="1"/>
        <pt x="862" y="42" on="0"/>
        <pt x="823" y="-4" on="0"/>
      </contour>
      <contour>
        <pt x="187" y="-19" on="1"/>
        <pt x="153" y="-10" on="0"/>
        <pt x="105" y="29" on="0"/>
        <pt x="91" y="58" on="1"/>
        <pt x="96" y="95" on="0"/>
        <pt x="139" y="147" on="0"/>
        <pt x="172" y="164" on="1"/>
        <pt x="206" y="150" on="0"/>
        <pt x="256" y="103" on="0"/>
        <pt x="264" y="73" on="1"/>
        <pt x="254" y="42" on="0"/>
        <pt x="215" y="-4" on="0"/>
      </contour>
      <contour>
        <pt x="491" y="-19" on="1"/>
        <pt x="457" y="-10" on="0"/>
        <pt x="409" y="29" on="0"/>
        <pt x="395" y="58" on="1"/>
        <pt x="400" y="95" on="0"/>
        <pt x="443" y="147" on="0"/>
        <pt x="476" y="164" on="1"/>
        <pt x="510" y="150" on="0"/>
        <pt x="560" y="103" on="0"/>
        <pt x="568" y="73" on="1"/>
        <pt x="558" y="42" on="0"/>
        <pt x="519" y="-4" on="0"/>
      </contour>
    </TTGlyph>
    <TTGlyph name="emacron" xMin="14" yMin="-14" xMax="466" yMax="651">
      <component glyphName="e" x="0" y="0" flags="0x204"/>
      <component glyphName="uni0304" x="254" y="-3" flags="0x4"/>
    </TTGlyph>
    <TTGlyph name="emdash" xMin="32" yMin="218" xMax="958" yMax="312">
      <contour>
        <pt x="32" y="285" on="1"/>
        <pt x="61" y="299" on="0"/>
        <pt x="123" y="312" on="0"/>
        <pt x="146" y="312" on="1"/>
        <pt x="954" y="312" on="1"/>
        <pt x="958" y="269" on="1"/>
        <pt x="911" y="218" on="1"/>
        <pt x="39" y="218" on="1"/>
      </contour>
    </TTGlyph>
    <TTGlyph name="endash" xMin="32" yMin="218" xMax="517" yMax="312">
      <contour>
        <pt x="32" y="285" on="1"/>
        <pt x="61" y="299" on="0"/>
        <pt x="123" y="312" on="0"/>
        <pt x="145" y="312" on="1"/>
        <pt x="512" y="312" on="1"/>
        <pt x="517" y="269" on="1"/>
        <pt x="469" y="218" on="1"/>
        <pt x="39" y="218" on="1"/>
      </contour>
    </TTGlyph>
    <TTGlyph name="eogonek" xMin="14" yMin="-231" xMax="466" yMax="496">
      <contour>
        <pt x="319" y="-231" on="1"/>
        <pt x="256" y="-237" on="0"/>
        <pt x="180" y="-168" on="0"/>
        <pt x="180" y="-122" on="1"/>
        <pt x="180" y="-94" on="0"/>
        <pt x="210" y="-39" on="0"/>
        <pt x="239" y="-13" on="1"/>
        <pt x="140" y="-4" on="0"/>
        <pt x="14" y="131" on="0"/>
        <pt x="14" y="231" on="1"/>
        <pt x="14" y="287" on="0"/>
        <pt x="53" y="384" on="0"/>
        <pt x="120" y="455" on="0"/>
        <pt x="210" y="496" on="0"/>
        <pt x="261" y="496" on="1"/>
        <pt x="299" y="496" on="0"/>
        <pt x="373" y="471" on="0"/>
        <pt x="431" y="422" on="0"/>
        <pt x="466" y="346" on="0"/>
        <pt x="466" y="296" on="1"/>
        <pt x="408" y="238" on="1"/>
        <pt x="153" y="241" on="1"/>
        <pt x="157" y="166" on="0"/>
        <pt x="243" y="85" on="0"/>
        <pt x="306" y="85" on="1"/>
        <pt x="337" y="85" on="0"/>
        <pt x="399" y="104" on="0"/>
        <pt x="434" y="121" on="1"/>
        <pt x="455" y="68" on="1"/>
        <pt x="411" y="44" on="1"/>
        <pt x="356" y="13" on="0"/>
        <pt x="284" y="-55" on="0"/>
        <pt x="284" y="-93" on="1"/>
        <pt x="284" y="-131" on="0"/>
        <pt x="358" y="-158" on="0"/>
        <pt x="421" y="-122" on="1"/>
        <pt x="442" y="-169" on="1"/>
      </contour>
      <contour>
        <pt x="226" y="420" on="1"/>
        <pt x="199" y="404" on="0"/>
        <pt x="166" y="344" on="0"/>
        <pt x="159" y="310" on="1"/>
        <pt x="332" y="319" on="1"/>
        <pt x="325" y="361" on="0"/>
        <pt x="267" y="420" on="0"/>
      </contour>
    </TTGlyph>
    <TTGlyph name="epsilon" xMin="29" yMin="-14" xMax="466" yMax="497">
      <contour>
        <pt x="244" y="-14" on="1"/>
        <pt x="149" y="-14" on="0"/>
        <pt x="29" y="70" on="0"/>
        <pt x="29" y="136" on="1"/>
        <pt x="29" y="170" on="0"/>
        <pt x="84" y="228" on="0"/>
        <pt x="129" y="244" on="1"/>
        <pt x="86" y="256" on="0"/>
        <pt x="37" y="312" on="0"/>
        <pt x="37" y="349" on="1"/>
        <pt x="37" y="414" on="0"/>
        <pt x="167" y="497" on="0"/>
        <pt x="269" y="497" on="1"/>
        <pt x="323" y="497" on="0"/>
        <pt x="414" y="481" on="0"/>
        <pt x="436" y="468" on="1"/>
        <pt x="443" y="446" on="0"/>
        <pt x="448" y="385" on="0"/>
        <pt x="444" y="357" on="1"/>
        <pt x="418" y="341" on="1"/>
        <pt x="376" y="359" on="0"/>
        <pt x="306" y="373" on="0"/>
        <pt x="259" y="373" on="1"/>
        <pt x="205" y="373" on="0"/>
        <pt x="129" y="346" on="0"/>
        <pt x="115" y="322" on="1"/>
        <pt x="122" y="305" on="0"/>
        <pt x="167" y="275" on="0"/>
        <pt x="195" y="268" on="1"/>
        <pt x="327" y="300" on="1"/>
        <pt x="348" y="282" on="1"/>
        <pt x="352" y="261" on="0"/>
        <pt x="349" y="198" on="0"/>
        <pt x="342" y="178" on="1"/>
        <pt x="202" y="201" on="1"/>
        <pt x="173" y="198" on="0"/>
        <pt x="112" y="165" on="0"/>
        <pt x="101" y="146" on="1"/>
        <pt x="114" y="127" on="0"/>
        <pt x="195" y="103" on="0"/>
        <pt x="244" y="103" on="1"/>
        <pt x="301" y="103" on="0"/>
        <pt x="392" y="119" on="0"/>
        <pt x="442" y="136" on="1"/>
        <pt x="466" y="88" on="1"/>
        <pt x="449" y="66" on="0"/>
        <pt x="399" y="28" on="0"/>
        <pt x="340" y="1" on="0"/>
        <pt x="275" y="-14" on="0"/>
      </contour>
    </TTGlyph>
    <TTGlyph name="epsilonacute" xMin="29" yMin="-14" xMax="466" yMax="784">
      <component glyphName="epsilon" x="0" y="0" flags="0x204"/>
      <component glyphName="grAcute" x="114" y="0" flags="0x4"/>
    </TTGlyph>
    <TTGlyph name="epsilonasper" xMin="29" yMin="-14" xMax="466" yMax="786">
      <component glyphName="asper" x="57" y="0" flags="0x4"/>
      <component glyphName="epsilon" x="0" y="0" flags="0x204"/>
    </TTGlyph>
    <TTGlyph name="epsilonasperacute" xMin="29" yMin="-14" xMax="466" yMax="786">
      <component glyphName="epsilon" x="0" y="0" flags="0x204"/>
      <component glyphName="asperacute" x="70" y="0" flags="0x4"/>
    </TTGlyph>
    <TTGlyph name="epsilonaspergrave" xMin="29" yMin="-14" xMax="466" yMax="786">
      <component glyphName="epsilon" x="0" y="0" flags="0x204"/>
      <component glyphName="aspergrave" x="61" y="0" flags="0x4"/>
    </TTGlyph>
    <TTGlyph name="epsilongrave" xMin="29" yMin="-14" xMax="466" yMax="784">
      <component glyphName="epsilon" x="0" y="0" flags="0x204"/>
      <component glyphName="grGrave" x="74" y="0" flags="0x4"/>
    </TTGlyph>
    <TTGlyph name="epsilonlenis" xMin="29" yMin="-14" xMax="466" yMax="786">
      <component glyphName="epsilon" x="0" y="0" flags="0x204"/>
      <component glyphName="lenis" x="83" y="0" flags="0x4"/>
    </TTGlyph>
    <TTGlyph name="epsilonlenisacute" xMin="29" yMin="-14" xMax="466" yMax="786">
      <component glyphName="epsilon" x="0" y="0" flags="0x204"/>
      <component glyphName="lenisacute" x="99" y="0" flags="0x4"/>
    </TTGlyph>
    <TTGlyph name="epsilonlenisgrave" xMin="29" yMin="-14" xMax="466" yMax="786">
      <component glyphName="epsilon" x="0" y="0" flags="0x204"/>
      <component glyphName="lenisgrave" x="64" y="0" flags="0x4"/>
    </TTGlyph>
    <TTGlyph name="epsilonwithtonos" xMin="29" yMin="-14" xMax="466" yMax="784">
      <component glyphName="tonos" x="114" y="0" flags="0x4"/>
      <component glyphName="epsilon" x="0" y="0" flags="0x204"/>
    </TTGlyph>
    <TTGlyph name="equal" xMin="56" yMin="120" xMax="528" yMax="385">
      <contour>
        <pt x="56" y="385" on="1"/>
        <pt x="528" y="385" on="1"/>
        <pt x="528" y="304" on="1"/>
        <pt x="56" y="304" on="1"/>
      </contour>
      <contour>
        <pt x="56" y="201" on="1"/>
        <pt x="528" y="201" on="1"/>
        <pt x="528" y="120" on="1"/>
        <pt x="56" y="120" on="1"/>
      </contour>
    </TTGlyph>
    <TTGlyph name="eta" xMin="4" yMin="-224" xMax="505" yMax="497">
      <contour>
        <pt x="88" y="6" on="1"/>
        <pt x="137" y="367" on="1"/>
        <pt x="21" y="358" on="1"/>
        <pt x="4" y="397" on="1"/>
        <pt x="23" y="441" on="0"/>
        <pt x="87" y="497" on="0"/>
        <pt x="118" y="497" on="1"/>
        <pt x="136" y="497" on="0"/>
        <pt x="167" y="477" on="0"/>
        <pt x="179" y="458" on="1"/>
        <pt x="189" y="442" on="0"/>
        <pt x="203" y="396" on="0"/>
        <pt x="206" y="367" on="1"/>
        <pt x="227" y="428" on="0"/>
        <pt x="305" y="497" on="0"/>
        <pt x="355" y="497" on="1"/>
        <pt x="430" y="497" on="0"/>
        <pt x="506" y="363" on="0"/>
        <pt x="505" y="231" on="1"/>
        <pt x="504" y="-204" on="1"/>
        <pt x="467" y="-224" on="1"/>
        <pt x="430" y="-224" on="0"/>
        <pt x="367" y="-209" on="0"/>
        <pt x="342" y="-195" on="1"/>
        <pt x="367" y="-72" on="0"/>
        <pt x="399" y="96" on="0"/>
        <pt x="416" y="208" on="0"/>
        <pt x="422" y="281" on="0"/>
        <pt x="422" y="309" on="1"/>
        <pt x="422" y="323" on="0"/>
        <pt x="420" y="340" on="0"/>
        <pt x="418" y="343" on="1"/>
        <pt x="411" y="350" on="0"/>
        <pt x="390" y="356" on="0"/>
        <pt x="375" y="356" on="1"/>
        <pt x="350" y="356" on="0"/>
        <pt x="299" y="327" on="0"/>
        <pt x="255" y="278" on="0"/>
        <pt x="221" y="214" on="0"/>
        <pt x="212" y="179" on="1"/>
        <pt x="232" y="0" on="1"/>
        <pt x="209" y="-6" on="0"/>
        <pt x="126" y="-8" on="0"/>
        <pt x="96" y="-4" on="1"/>
      </contour>
    </TTGlyph>
    <TTGlyph name="etaacute" xMin="4" yMin="-224" xMax="505" yMax="784">
      <component glyphName="grAcute" x="163" y="0" flags="0x4"/>
      <component glyphName="eta" x="0" y="0" flags="0x4"/>
    </TTGlyph>
    <TTGlyph name="etaacuteiotasub" xMin="4" yMin="-231" xMax="505" yMax="784">
      <component glyphName="grAcute" x="163" y="0" flags="0x4"/>
      <component glyphName="eta" x="0" y="0" flags="0x4"/>
      <component glyphName="iotaadscript" x="42" y="0" flags="0x4"/>
    </TTGlyph>
    <TTGlyph name="etaasper" xMin="4" yMin="-224" xMax="505" yMax="786">
      <component glyphName="asper" x="102" y="0" flags="0x4"/>
      <component glyphName="eta" x="0" y="0" flags="0x4"/>
    </TTGlyph>
    <TTGlyph name="etaasperacute" xMin="4" yMin="-224" xMax="505" yMax="786">
      <component glyphName="eta" x="0" y="0" flags="0x4"/>
      <component glyphName="asperacute" x="117" y="0" flags="0x4"/>
    </TTGlyph>
    <TTGlyph name="etaasperacuteiotasub" xMin="4" yMin="-231" xMax="505" yMax="786">
      <component glyphName="eta" x="0" y="0" flags="0x4"/>
      <component glyphName="iotaadscript" x="42" y="0" flags="0x4"/>
      <component glyphName="asperacute" x="117" y="0" flags="0x4"/>
    </TTGlyph>
    <TTGlyph name="etaaspergrave" xMin="4" yMin="-224" xMax="505" yMax="786">
      <component glyphName="eta" x="0" y="0" flags="0x4"/>
      <component glyphName="aspergrave" x="109" y="0" flags="0x4"/>
    </TTGlyph>
    <TTGlyph name="etaaspergraveiotasub" xMin="4" yMin="-231" xMax="505" yMax="786">
      <component glyphName="eta" x="0" y="0" flags="0x4"/>
      <component glyphName="iotaadscript" x="42" y="0" flags="0x4"/>
      <component glyphName="aspergrave" x="109" y="0" flags="0x4"/>
    </TTGlyph>
    <TTGlyph name="etaasperiotasub" xMin="4" yMin="-231" xMax="505" yMax="786">
      <component glyphName="asper" x="102" y="0" flags="0x4"/>
      <component glyphName="eta" x="0" y="0" flags="0x4"/>
      <component glyphName="iotaadscript" x="42" y="0" flags="0x4"/>
    </TTGlyph>
    <TTGlyph name="etaaspertilde" xMin="4" yMin="-224" xMax="505" yMax="950">
      <component glyphName="eta" x="0" y="0" flags="0x4"/>
      <component glyphName="aspertilde" x="111" y="0" flags="0x4"/>
    </TTGlyph>
    <TTGlyph name="etaaspertildeiotasub" xMin="4" yMin="-231" xMax="505" yMax="950">
      <component glyphName="eta" x="0" y="0" flags="0x4"/>
      <component glyphName="iotaadscript" x="42" y="0" flags="0x4"/>
      <component glyphName="aspertilde" x="111" y="0" flags="0x4"/>
    </TTGlyph>
    <TTGlyph name="etagrave" xMin="4" yMin="-224" xMax="505" yMax="784">
      <component glyphName="eta" x="0" y="0" flags="0x4"/>
      <component glyphName="grGrave" x="121" y="0" flags="0x4"/>
    </TTGlyph>
    <TTGlyph name="etagraveiotasub" xMin="4" yMin="-231" xMax="505" yMax="784">
      <component glyphName="eta" x="0" y="0" flags="0x4"/>
      <component glyphName="iotaadscript" x="42" y="0" flags="0x4"/>
      <component glyphName="grGrave" x="121" y="0" flags="0x4"/>
    </TTGlyph>
    <TTGlyph name="etaiotasub" xMin="4" yMin="-231" xMax="505" yMax="497">
      <component glyphName="eta" x="0" y="0" flags="0x4"/>
      <component glyphName="iotaadscript" x="42" y="0" flags="0x4"/>
    </TTGlyph>
    <TTGlyph name="etalenis" xMin="4" yMin="-224" xMax="505" yMax="786">
      <component glyphName="eta" x="0" y="0" flags="0x4"/>
      <component glyphName="lenis" x="128" y="0" flags="0x4"/>
    </TTGlyph>
    <TTGlyph name="etalenisacute" xMin="4" yMin="-224" xMax="505" yMax="786">
      <component glyphName="lenisacute" x="146" y="0" flags="0x4"/>
      <component glyphName="eta" x="0" y="0" flags="0x4"/>
    </TTGlyph>
    <TTGlyph name="etalenisacuteiotasub" xMin="4" yMin="-231" xMax="505" yMax="786">
      <component glyphName="lenisacute" x="146" y="0" flags="0x4"/>
      <component glyphName="eta" x="0" y="0" flags="0x4"/>
      <component glyphName="iotaadscript" x="42" y="0" flags="0x4"/>
    </TTGlyph>
    <TTGlyph name="etalenisgrave" xMin="4" yMin="-224" xMax="505" yMax="786">
      <component glyphName="lenisgrave" x="112" y="0" flags="0x4"/>
      <component glyphName="eta" x="0" y="0" flags="0x4"/>
    </TTGlyph>
    <TTGlyph name="etalenisgraveiotasub" xMin="4" yMin="-231" xMax="505" yMax="786">
      <component glyphName="lenisgrave" x="112" y="0" flags="0x4"/>
      <component glyphName="eta" x="0" y="0" flags="0x4"/>
      <component glyphName="iotaadscript" x="42" y="0" flags="0x4"/>
    </TTGlyph>
    <TTGlyph name="etalenisiotasub" xMin="4" yMin="-231" xMax="505" yMax="786">
      <component glyphName="iotaadscript" x="42" y="0" flags="0x4"/>
      <component glyphName="lenis" x="128" y="0" flags="0x4"/>
      <component glyphName="eta" x="0" y="0" flags="0x4"/>
    </TTGlyph>
    <TTGlyph name="etalenistilde" xMin="4" yMin="-224" xMax="505" yMax="950">
      <component glyphName="lenistilde" x="119" y="0" flags="0x4"/>
      <component glyphName="eta" x="0" y="0" flags="0x4"/>
    </TTGlyph>
    <TTGlyph name="etalenistildeiotasub" xMin="4" yMin="-231" xMax="505" yMax="950">
      <component glyphName="lenistilde" x="119" y="0" flags="0x4"/>
      <component glyphName="iotaadscript" x="42" y="0" flags="0x4"/>
      <component glyphName="eta" x="0" y="0" flags="0x4"/>
    </TTGlyph>
    <TTGlyph name="etatilde" xMin="4" yMin="-224" xMax="505" yMax="730">
      <component glyphName="grTilde" x="146" y="0" flags="0x4"/>
      <component glyphName="eta" x="0" y="0" flags="0x4"/>
    </TTGlyph>
    <TTGlyph name="etatildeiotasub" xMin="4" yMin="-231" xMax="505" yMax="730">
      <component glyphName="grTilde" x="146" y="0" flags="0x4"/>
      <component glyphName="iotaadscript" x="42" y="0" flags="0x4"/>
      <component glyphName="eta" x="0" y="0" flags="0x4"/>
    </TTGlyph>
    <TTGlyph name="etawithtonos" xMin="4" yMin="-224" xMax="505" yMax="784">
      <component glyphName="tonos" x="163" y="0" flags="0x4"/>
      <component glyphName="eta" x="0" y="0" flags="0x4"/>
    </TTGlyph>
</ttFont>
